{
	"header": {
	  "keySignatures": [
		{
		  "key": "F",
		  "scale": "minor",
		  "ticks": 0
		}
	  ],
	  "meta": [],
	  "name": "",
	  "ppq": 256,
	  "tempos": [
		{
		  "bpm": 120,
		  "ticks": 0
		}
	  ],
	  "timeSignatures": [
		{
		  "ticks": 0,
		  "timeSignature": [
			4,
			4
		  ],
		  "measures": 0
		}
	  ]
	},
	"tracks": [
	  {
		"channel": 0,
		"controlChanges": {
		  "7": [
			{
			  "number": 7,
			  "ticks": 0,
			  "time": 0,
			  "value": 0.7874015748031497
			},
			{
			  "number": 7,
			  "ticks": 0,
			  "time": 0,
			  "value": 0.7874015748031497
			}
		  ],
		  "10": [
			{
			  "number": 10,
			  "ticks": 0,
			  "time": 0,
			  "value": 0.4015748031496063
			},
			{
			  "number": 10,
			  "ticks": 0,
			  "time": 0,
			  "value": 0.4015748031496063
			}
		  ],
		  "64": [
			{
			  "number": 64,
			  "ticks": 0,
			  "time": 0,
			  "value": 0
			},
			{
			  "number": 64,
			  "ticks": 0,
			  "time": 0,
			  "value": 0
			}
		  ],
		  "91": [
			{
			  "number": 91,
			  "ticks": 0,
			  "time": 0,
			  "value": 0.3779527559055118
			},
			{
			  "number": 91,
			  "ticks": 0,
			  "time": 0,
			  "value": 0.3779527559055118
			}
		  ],
		  "121": [
			{
			  "number": 121,
			  "ticks": 0,
			  "time": 0,
			  "value": 0
			},
			{
			  "number": 121,
			  "ticks": 0,
			  "time": 0,
			  "value": 0
			}
		  ]
		},
		"pitchBends": [],
		"instrument": {
		  "family": "piano",
		  "name": "acoustic grand piano",
		  "number": 0
		},
		"name": "Piano",
		"notes": [
		  {
			"duration": 0.5,
			"durationTicks": 256,
			"midi": 69,
			"name": "A4",
			"ticks": 0,
			"time": 0,
			"velocity": 0.6456692913385826
		  },
		  {
			"duration": 2,
			"durationTicks": 1024,
			"midi": 50,
			"name": "D3",
			"ticks": 0,
			"time": 0,
			"velocity": 0.6614173228346457
		  },
		  {
			"duration": 2,
			"durationTicks": 1024,
			"midi": 53,
			"name": "F3",
			"ticks": 0,
			"time": 0,
			"velocity": 0.6614173228346457
		  },
		  {
			"duration": 0.25,
			"durationTicks": 128,
			"midi": 69,
			"name": "A4",
			"ticks": 256,
			"time": 0.5,
			"velocity": 0.7637795275590551
		  },
		  {
			"duration": 0.25,
			"durationTicks": 128,
			"midi": 69,
			"name": "A4",
			"ticks": 384,
			"time": 0.75,
			"velocity": 0.7795275590551181
		  },
		  {
			"duration": 0.5,
			"durationTicks": 256,
			"midi": 69,
			"name": "A4",
			"ticks": 512,
			"time": 1,
			"velocity": 0.8031496062992126
		  },
		  {
			"duration": 0.25,
			"durationTicks": 128,
			"midi": 69,
			"name": "A4",
			"ticks": 768,
			"time": 1.5,
			"velocity": 0.7716535433070866
		  },
		  {
			"duration": 0.25,
			"durationTicks": 128,
			"midi": 69,
			"name": "A4",
			"ticks": 896,
			"time": 1.75,
			"velocity": 0.8031496062992126
		  },
		  {
			"duration": 0.5,
			"durationTicks": 256,
			"midi": 69,
			"name": "A4",
			"ticks": 1024,
			"time": 2,
			"velocity": 0.7716535433070866
		  },
		  {
			"duration": 2,
			"durationTicks": 1024,
			"midi": 50,
			"name": "D3",
			"ticks": 1024,
			"time": 2,
			"velocity": 0.7874015748031497
		  },
		  {
			"duration": 2,
			"durationTicks": 1024,
			"midi": 53,
			"name": "F3",
			"ticks": 1024,
			"time": 2,
			"velocity": 0.7874015748031497
		  },
		  {
			"duration": 0.5,
			"durationTicks": 256,
			"midi": 62,
			"name": "D4",
			"ticks": 1280,
			"time": 2.5,
			"velocity": 0.6377952755905512
		  },
		  {
			"duration": 0.5,
			"durationTicks": 256,
			"midi": 65,
			"name": "F4",
			"ticks": 1536,
			"time": 3,
			"velocity": 0.8740157480314961
		  },
		  {
			"duration": 0.5,
			"durationTicks": 256,
			"midi": 69,
			"name": "A4",
			"ticks": 1792,
			"time": 3.5,
			"velocity": 0.8818897637795275
		  },
		  {
			"duration": 0.5,
			"durationTicks": 256,
			"midi": 67,
			"name": "G4",
			"ticks": 2048,
			"time": 4,
			"velocity": 0.7165354330708661
		  },
		  {
			"duration": 2,
			"durationTicks": 1024,
			"midi": 48,
			"name": "C3",
			"ticks": 2048,
			"time": 4,
			"velocity": 0.7795275590551181
		  },
		  {
			"duration": 2,
			"durationTicks": 1024,
			"midi": 52,
			"name": "E3",
			"ticks": 2048,
			"time": 4,
			"velocity": 0.7795275590551181
		  },
		  {
			"duration": 0.25,
			"durationTicks": 128,
			"midi": 67,
			"name": "G4",
			"ticks": 2304,
			"time": 4.5,
			"velocity": 0.7480314960629921
		  },
		  {
			"duration": 0.25,
			"durationTicks": 128,
			"midi": 67,
			"name": "G4",
			"ticks": 2432,
			"time": 4.75,
			"velocity": 0.8031496062992126
		  },
		  {
			"duration": 0.5,
			"durationTicks": 256,
			"midi": 67,
			"name": "G4",
			"ticks": 2560,
			"time": 5,
			"velocity": 0.7480314960629921
		  },
		  {
			"duration": 0.25,
			"durationTicks": 128,
			"midi": 67,
			"name": "G4",
			"ticks": 2816,
			"time": 5.5,
			"velocity": 0.7952755905511811
		  },
		  {
			"duration": 0.25,
			"durationTicks": 128,
			"midi": 67,
			"name": "G4",
			"ticks": 2944,
			"time": 5.75,
			"velocity": 0.7716535433070866
		  },
		  {
			"duration": 0.5,
			"durationTicks": 256,
			"midi": 67,
			"name": "G4",
			"ticks": 3072,
			"time": 6,
			"velocity": 0.7401574803149606
		  },
		  {
			"duration": 2,
			"durationTicks": 1024,
			"midi": 48,
			"name": "C3",
			"ticks": 3072,
			"time": 6,
			"velocity": 0.7559055118110236
		  },
		  {
			"duration": 2,
			"durationTicks": 1024,
			"midi": 52,
			"name": "E3",
			"ticks": 3072,
			"time": 6,
			"velocity": 0.7559055118110236
		  },
		  {
			"duration": 0.5,
			"durationTicks": 256,
			"midi": 60,
			"name": "C4",
			"ticks": 3328,
			"time": 6.5,
			"velocity": 0.5826771653543307
		  },
		  {
			"duration": 0.5,
			"durationTicks": 256,
			"midi": 64,
			"name": "E4",
			"ticks": 3584,
			"time": 7,
			"velocity": 0.8503937007874016
		  },
		  {
			"duration": 0.5,
			"durationTicks": 256,
			"midi": 67,
			"name": "G4",
			"ticks": 3840,
			"time": 7.5,
			"velocity": 0.8267716535433071
		  },
		  {
			"duration": 0.5,
			"durationTicks": 256,
			"midi": 69,
			"name": "A4",
			"ticks": 4096,
			"time": 8,
			"velocity": 0.8346456692913385
		  },
		  {
			"duration": 2,
			"durationTicks": 1024,
			"midi": 50,
			"name": "D3",
			"ticks": 4096,
			"time": 8,
			"velocity": 0.7559055118110236
		  },
		  {
			"duration": 2,
			"durationTicks": 1024,
			"midi": 53,
			"name": "F3",
			"ticks": 4096,
			"time": 8,
			"velocity": 0.7559055118110236
		  },
		  {
			"duration": 0.25,
			"durationTicks": 128,
			"midi": 69,
			"name": "A4",
			"ticks": 4352,
			"time": 8.5,
			"velocity": 0.7716535433070866
		  },
		  {
			"duration": 0.25,
			"durationTicks": 128,
			"midi": 69,
			"name": "A4",
			"ticks": 4480,
			"time": 8.75,
			"velocity": 0.7795275590551181
		  },
		  {
			"duration": 0.5,
			"durationTicks": 256,
			"midi": 69,
			"name": "A4",
			"ticks": 4608,
			"time": 9,
			"velocity": 0.7559055118110236
		  },
		  {
			"duration": 0.25,
			"durationTicks": 128,
			"midi": 69,
			"name": "A4",
			"ticks": 4864,
			"time": 9.5,
			"velocity": 0.7874015748031497
		  },
		  {
			"duration": 0.25,
			"durationTicks": 128,
			"midi": 69,
			"name": "A4",
			"ticks": 4992,
			"time": 9.75,
			"velocity": 0.7559055118110236
		  },
		  {
			"duration": 0.5,
			"durationTicks": 256,
			"midi": 69,
			"name": "A4",
			"ticks": 5120,
			"time": 10,
			"velocity": 0.8031496062992126
		  },
		  {
			"duration": 2,
			"durationTicks": 1024,
			"midi": 50,
			"name": "D3",
			"ticks": 5120,
			"time": 10,
			"velocity": 0.8031496062992126
		  },
		  {
			"duration": 2,
			"durationTicks": 1024,
			"midi": 53,
			"name": "F3",
			"ticks": 5120,
			"time": 10,
			"velocity": 0.8031496062992126
		  },
		  {
			"duration": 0.5,
			"durationTicks": 256,
			"midi": 71,
			"name": "B4",
			"ticks": 5376,
			"time": 10.5,
			"velocity": 0.8031496062992126
		  },
		  {
			"duration": 0.5,
			"durationTicks": 256,
			"midi": 72,
			"name": "C5",
			"ticks": 5632,
			"time": 11,
			"velocity": 0.8188976377952756
		  },
		  {
			"duration": 0.5,
			"durationTicks": 256,
			"midi": 74,
			"name": "D5",
			"ticks": 5888,
			"time": 11.5,
			"velocity": 0.7716535433070866
		  },
		  {
			"duration": 0.5,
			"durationTicks": 256,
			"midi": 72,
			"name": "C5",
			"ticks": 6144,
			"time": 12,
			"velocity": 0.7480314960629921
		  },
		  {
			"duration": 2,
			"durationTicks": 1024,
			"midi": 48,
			"name": "C3",
			"ticks": 6144,
			"time": 12,
			"velocity": 0.7401574803149606
		  },
		  {
			"duration": 2,
			"durationTicks": 1024,
			"midi": 52,
			"name": "E3",
			"ticks": 6144,
			"time": 12,
			"velocity": 0.7401574803149606
		  },
		  {
			"duration": 0.5,
			"durationTicks": 256,
			"midi": 69,
			"name": "A4",
			"ticks": 6400,
			"time": 12.5,
			"velocity": 0.7007874015748031
		  },
		  {
			"duration": 0.5,
			"durationTicks": 256,
			"midi": 67,
			"name": "G4",
			"ticks": 6656,
			"time": 13,
			"velocity": 0.7401574803149606
		  },
		  {
			"duration": 0.5,
			"durationTicks": 256,
			"midi": 64,
			"name": "E4",
			"ticks": 6912,
			"time": 13.5,
			"velocity": 0.6456692913385826
		  },
		  {
			"duration": 1,
			"durationTicks": 512,
			"midi": 62,
			"name": "D4",
			"ticks": 7168,
			"time": 14,
			"velocity": 0.6929133858267716
		  },
		  {
			"duration": 1,
			"durationTicks": 512,
			"midi": 50,
			"name": "D3",
			"ticks": 7168,
			"time": 14,
			"velocity": 0.8110236220472441
		  },
		  {
			"duration": 1,
			"durationTicks": 512,
			"midi": 53,
			"name": "F3",
			"ticks": 7168,
			"time": 14,
			"velocity": 0.8110236220472441
		  },
		  {
			"duration": 1,
			"durationTicks": 512,
			"midi": 62,
			"name": "D4",
			"ticks": 7680,
			"time": 15,
			"velocity": 0.7716535433070866
		  },
		  {
			"duration": 1,
			"durationTicks": 512,
			"midi": 50,
			"name": "D3",
			"ticks": 7680,
			"time": 15,
			"velocity": 0.7480314960629921
		  },
		  {
			"duration": 1,
			"durationTicks": 512,
			"midi": 53,
			"name": "F3",
			"ticks": 7680,
			"time": 15,
			"velocity": 0.7480314960629921
		  },
		  {
			"duration": 1,
			"durationTicks": 512,
			"midi": 69,
			"name": "A4",
			"ticks": 8192,
			"time": 16,
			"velocity": 0.889763779527559
		  },
		  {
			"duration": 2,
			"durationTicks": 1024,
			"midi": 50,
			"name": "D3",
			"ticks": 8192,
			"time": 16,
			"velocity": 0.7874015748031497
		  },
		  {
			"duration": 2,
			"durationTicks": 1024,
			"midi": 53,
			"name": "F3",
			"ticks": 8192,
			"time": 16,
			"velocity": 0.7874015748031497
		  },
		  {
			"duration": 0.75,
			"durationTicks": 384,
			"midi": 69,
			"name": "A4",
			"ticks": 8704,
			"time": 17,
			"velocity": 0.7952755905511811
		  },
		  {
			"duration": 0.25,
			"durationTicks": 128,
			"midi": 69,
			"name": "A4",
			"ticks": 9088,
			"time": 17.75,
			"velocity": 0.7244094488188977
		  },
		  {
			"duration": 0.5,
			"durationTicks": 256,
			"midi": 69,
			"name": "A4",
			"ticks": 9216,
			"time": 18,
			"velocity": 0.7795275590551181
		  },
		  {
			"duration": 2,
			"durationTicks": 1024,
			"midi": 50,
			"name": "D3",
			"ticks": 9216,
			"time": 18,
			"velocity": 0.7874015748031497
		  },
		  {
			"duration": 2,
			"durationTicks": 1024,
			"midi": 53,
			"name": "F3",
			"ticks": 9216,
			"time": 18,
			"velocity": 0.7874015748031497
		  },
		  {
			"duration": 0.5,
			"durationTicks": 256,
			"midi": 62,
			"name": "D4",
			"ticks": 9472,
			"time": 18.5,
			"velocity": 0.6456692913385826
		  },
		  {
			"duration": 0.5,
			"durationTicks": 256,
			"midi": 65,
			"name": "F4",
			"ticks": 9728,
			"time": 19,
			"velocity": 0.8346456692913385
		  },
		  {
			"duration": 0.5,
			"durationTicks": 256,
			"midi": 69,
			"name": "A4",
			"ticks": 9984,
			"time": 19.5,
			"velocity": 0.84251968503937
		  },
		  {
			"duration": 1,
			"durationTicks": 512,
			"midi": 67,
			"name": "G4",
			"ticks": 10240,
			"time": 20,
			"velocity": 0.7559055118110236
		  },
		  {
			"duration": 2,
			"durationTicks": 1024,
			"midi": 48,
			"name": "C3",
			"ticks": 10240,
			"time": 20,
			"velocity": 0.7874015748031497
		  },
		  {
			"duration": 2,
			"durationTicks": 1024,
			"midi": 52,
			"name": "E3",
			"ticks": 10240,
			"time": 20,
			"velocity": 0.7874015748031497
		  },
		  {
			"duration": 0.75,
			"durationTicks": 384,
			"midi": 67,
			"name": "G4",
			"ticks": 10752,
			"time": 21,
			"velocity": 0.7480314960629921
		  },
		  {
			"duration": 0.25,
			"durationTicks": 128,
			"midi": 67,
			"name": "G4",
			"ticks": 11136,
			"time": 21.75,
			"velocity": 0.7559055118110236
		  },
		  {
			"duration": 0.5,
			"durationTicks": 256,
			"midi": 67,
			"name": "G4",
			"ticks": 11264,
			"time": 22,
			"velocity": 0.7401574803149606
		  },
		  {
			"duration": 2,
			"durationTicks": 1024,
			"midi": 48,
			"name": "C3",
			"ticks": 11264,
			"time": 22,
			"velocity": 0.7716535433070866
		  },
		  {
			"duration": 2,
			"durationTicks": 1024,
			"midi": 52,
			"name": "E3",
			"ticks": 11264,
			"time": 22,
			"velocity": 0.7716535433070866
		  },
		  {
			"duration": 0.5,
			"durationTicks": 256,
			"midi": 60,
			"name": "C4",
			"ticks": 11520,
			"time": 22.5,
			"velocity": 0.6141732283464567
		  },
		  {
			"duration": 0.5,
			"durationTicks": 256,
			"midi": 64,
			"name": "E4",
			"ticks": 11776,
			"time": 23,
			"velocity": 0.7874015748031497
		  },
		  {
			"duration": 0.5,
			"durationTicks": 256,
			"midi": 67,
			"name": "G4",
			"ticks": 12032,
			"time": 23.5,
			"velocity": 0.8740157480314961
		  },
		  {
			"duration": 1,
			"durationTicks": 512,
			"midi": 69,
			"name": "A4",
			"ticks": 12288,
			"time": 24,
			"velocity": 0.84251968503937
		  },
		  {
			"duration": 2,
			"durationTicks": 1024,
			"midi": 50,
			"name": "D3",
			"ticks": 12288,
			"time": 24,
			"velocity": 0.7795275590551181
		  },
		  {
			"duration": 2,
			"durationTicks": 1024,
			"midi": 53,
			"name": "F3",
			"ticks": 12288,
			"time": 24,
			"velocity": 0.7795275590551181
		  },
		  {
			"duration": 0.75,
			"durationTicks": 384,
			"midi": 69,
			"name": "A4",
			"ticks": 12800,
			"time": 25,
			"velocity": 0.7795275590551181
		  },
		  {
			"duration": 0.25,
			"durationTicks": 128,
			"midi": 69,
			"name": "A4",
			"ticks": 13184,
			"time": 25.75,
			"velocity": 0.7716535433070866
		  },
		  {
			"duration": 0.5,
			"durationTicks": 256,
			"midi": 69,
			"name": "A4",
			"ticks": 13312,
			"time": 26,
			"velocity": 0.7716535433070866
		  },
		  {
			"duration": 2,
			"durationTicks": 1024,
			"midi": 50,
			"name": "D3",
			"ticks": 13312,
			"time": 26,
			"velocity": 0.7716535433070866
		  },
		  {
			"duration": 2,
			"durationTicks": 1024,
			"midi": 53,
			"name": "F3",
			"ticks": 13312,
			"time": 26,
			"velocity": 0.7716535433070866
		  },
		  {
			"duration": 0.5,
			"durationTicks": 256,
			"midi": 71,
			"name": "B4",
			"ticks": 13568,
			"time": 26.5,
			"velocity": 0.8346456692913385
		  },
		  {
			"duration": 0.5,
			"durationTicks": 256,
			"midi": 72,
			"name": "C5",
			"ticks": 13824,
			"time": 27,
			"velocity": 0.84251968503937
		  },
		  {
			"duration": 0.5,
			"durationTicks": 256,
			"midi": 74,
			"name": "D5",
			"ticks": 14080,
			"time": 27.5,
			"velocity": 0.8346456692913385
		  },
		  {
			"duration": 0.5,
			"durationTicks": 256,
			"midi": 72,
			"name": "C5",
			"ticks": 14336,
			"time": 28,
			"velocity": 0.7165354330708661
		  },
		  {
			"duration": 1,
			"durationTicks": 512,
			"midi": 48,
			"name": "C3",
			"ticks": 14336,
			"time": 28,
			"velocity": 0.7716535433070866
		  },
		  {
			"duration": 1,
			"durationTicks": 512,
			"midi": 52,
			"name": "E3",
			"ticks": 14336,
			"time": 28,
			"velocity": 0.7716535433070866
		  },
		  {
			"duration": 0.5,
			"durationTicks": 256,
			"midi": 69,
			"name": "A4",
			"ticks": 14592,
			"time": 28.5,
			"velocity": 0.7165354330708661
		  },
		  {
			"duration": 0.5,
			"durationTicks": 256,
			"midi": 67,
			"name": "G4",
			"ticks": 14848,
			"time": 29,
			"velocity": 0.7322834645669292
		  },
		  {
			"duration": 1,
			"durationTicks": 512,
			"midi": 48,
			"name": "C3",
			"ticks": 14848,
			"time": 29,
			"velocity": 0.7559055118110236
		  },
		  {
			"duration": 1,
			"durationTicks": 512,
			"midi": 52,
			"name": "E3",
			"ticks": 14848,
			"time": 29,
			"velocity": 0.7559055118110236
		  },
		  {
			"duration": 0.5,
			"durationTicks": 256,
			"midi": 64,
			"name": "E4",
			"ticks": 15104,
			"time": 29.5,
			"velocity": 0.7165354330708661
		  },
		  {
			"duration": 1,
			"durationTicks": 512,
			"midi": 62,
			"name": "D4",
			"ticks": 15360,
			"time": 30,
			"velocity": 0.7165354330708661
		  },
		  {
			"duration": 1,
			"durationTicks": 512,
			"midi": 50,
			"name": "D3",
			"ticks": 15360,
			"time": 30,
			"velocity": 0.8031496062992126
		  },
		  {
			"duration": 1,
			"durationTicks": 512,
			"midi": 53,
			"name": "F3",
			"ticks": 15360,
			"time": 30,
			"velocity": 0.8031496062992126
		  },
		  {
			"duration": 1,
			"durationTicks": 512,
			"midi": 62,
			"name": "D4",
			"ticks": 15872,
			"time": 31,
			"velocity": 0.7165354330708661
		  },
		  {
			"duration": 1,
			"durationTicks": 512,
			"midi": 50,
			"name": "D3",
			"ticks": 15872,
			"time": 31,
			"velocity": 0.8031496062992126
		  },
		  {
			"duration": 1,
			"durationTicks": 512,
			"midi": 53,
			"name": "F3",
			"ticks": 15872,
			"time": 31,
			"velocity": 0.8031496062992126
		  }
		]
	  }
	]
  }