{
	"header": {
	  "keySignatures": [
		{
		  "key": "A",
		  "scale": "major",
		  "ticks": 0
		}
	  ],
	  "meta": [],
	  "name": "",
	  "ppq": 120,
	  "tempos": [
		{
		  "bpm": 86.00005160003096,
		  "ticks": 0
		},
		{
		  "bpm": 116.00008506672904,
		  "ticks": 474
		},
		{
		  "bpm": 101.00006901671382,
		  "ticks": 5520
		},
		{
		  "bpm": 116.00008506672904,
		  "ticks": 5994
		},
		{
		  "bpm": 113.70010460409624,
		  "ticks": 13413
		},
		{
		  "bpm": 111.40013256615775,
		  "ticks": 13416
		},
		{
		  "bpm": 109.10003382101048,
		  "ticks": 13419
		},
		{
		  "bpm": 106.80014311219178,
		  "ticks": 13422
		},
		{
		  "bpm": 104.50012365847967,
		  "ticks": 13425
		},
		{
		  "bpm": 102.20002589067323,
		  "ticks": 13428
		},
		{
		  "bpm": 99.9000999000999,
		  "ticks": 13431
		},
		{
		  "bpm": 97.6000156160025,
		  "ticks": 13434
		},
		{
		  "bpm": 95.3001159484744,
		  "ticks": 13437
		},
		{
		  "bpm": 93.00004185001883,
		  "ticks": 13440
		},
		{
		  "bpm": 90.7000684785517,
		  "ticks": 13443
		},
		{
		  "bpm": 88.40000412533352,
		  "ticks": 13446
		},
		{
		  "bpm": 86.00005160003096,
		  "ticks": 13450
		},
		{
		  "bpm": 87.00002175000543,
		  "ticks": 13765
		},
		{
		  "bpm": 88.00002346667293,
		  "ticks": 13770
		},
		{
		  "bpm": 89.00004005001803,
		  "ticks": 13776
		},
		{
		  "bpm": 90.00009000009,
		  "ticks": 13781
		},
		{
		  "bpm": 91.000091000091,
		  "ticks": 13786
		},
		{
		  "bpm": 92.00012880018032,
		  "ticks": 13792
		},
		{
		  "bpm": 93.00004185001883,
		  "ticks": 13797
		},
		{
		  "bpm": 94.00012846684224,
		  "ticks": 13802
		},
		{
		  "bpm": 95.00014250021376,
		  "ticks": 13808
		},
		{
		  "bpm": 96,
		  "ticks": 13813
		},
		{
		  "bpm": 97.00010993345792,
		  "ticks": 13818
		},
		{
		  "bpm": 98.00014373354415,
		  "ticks": 13824
		},
		{
		  "bpm": 99.000099000099,
		  "ticks": 13829
		},
		{
		  "bpm": 100,
		  "ticks": 13834
		},
		{
		  "bpm": 101.00006901671382,
		  "ticks": 13840
		},
		{
		  "bpm": 102.0000510000255,
		  "ticks": 13845
		},
		{
		  "bpm": 103.0000480666891,
		  "ticks": 13850
		},
		{
		  "bpm": 104.00001386666851,
		  "ticks": 13856
		},
		{
		  "bpm": 105.000105000105,
		  "ticks": 13861
		},
		{
		  "bpm": 106.00013780017915,
		  "ticks": 13866
		},
		{
		  "bpm": 107.0001266168165,
		  "ticks": 13872
		},
		{
		  "bpm": 108.000108000108,
		  "ticks": 13877
		},
		{
		  "bpm": 109.00014170018422,
		  "ticks": 13882
		},
		{
		  "bpm": 110.00011000011,
		  "ticks": 13888
		},
		{
		  "bpm": 111.000111000111,
		  "ticks": 13893
		},
		{
		  "bpm": 112.00005973336519,
		  "ticks": 13898
		},
		{
		  "bpm": 113.00009605008164,
		  "ticks": 13904
		},
		{
		  "bpm": 114.0001710002565,
		  "ticks": 13909
		},
		{
		  "bpm": 115.00002875000719,
		  "ticks": 13914
		},
		{
		  "bpm": 116.00008506672904,
		  "ticks": 13920
		},
		{
		  "bpm": 115.00002875000719,
		  "ticks": 17512
		},
		{
		  "bpm": 114.0001710002565,
		  "ticks": 17544
		},
		{
		  "bpm": 113.00009605008164,
		  "ticks": 17576
		},
		{
		  "bpm": 112.00005973336519,
		  "ticks": 17608
		},
		{
		  "bpm": 111.000111000111,
		  "ticks": 17640
		},
		{
		  "bpm": 110.00011000011,
		  "ticks": 17672
		},
		{
		  "bpm": 109.00014170018422,
		  "ticks": 17704
		},
		{
		  "bpm": 108.000108000108,
		  "ticks": 17736
		},
		{
		  "bpm": 107.0001266168165,
		  "ticks": 17768
		},
		{
		  "bpm": 106.00013780017915,
		  "ticks": 17800
		},
		{
		  "bpm": 105.000105000105,
		  "ticks": 17832
		},
		{
		  "bpm": 104.00001386666851,
		  "ticks": 17864
		},
		{
		  "bpm": 103.0000480666891,
		  "ticks": 17896
		},
		{
		  "bpm": 102.0000510000255,
		  "ticks": 17928
		},
		{
		  "bpm": 101.00006901671382,
		  "ticks": 17960
		},
		{
		  "bpm": 100,
		  "ticks": 17992
		},
		{
		  "bpm": 99.000099000099,
		  "ticks": 18024
		},
		{
		  "bpm": 98.00014373354415,
		  "ticks": 18056
		},
		{
		  "bpm": 97.00010993345792,
		  "ticks": 18088
		},
		{
		  "bpm": 96,
		  "ticks": 18120
		},
		{
		  "bpm": 95.00014250021376,
		  "ticks": 18508
		},
		{
		  "bpm": 94.00012846684224,
		  "ticks": 18576
		},
		{
		  "bpm": 93.00004185001883,
		  "ticks": 18644
		},
		{
		  "bpm": 84.96008292104094,
		  "ticks": 18684
		},
		{
		  "bpm": 83.92007452102618,
		  "ticks": 18689
		},
		{
		  "bpm": 82.8800256375546,
		  "ticks": 18694
		},
		{
		  "bpm": 81.84009264298487,
		  "ticks": 18699
		},
		{
		  "bpm": 80.80002801067637,
		  "ticks": 18704
		},
		{
		  "bpm": 79.76008167432363,
		  "ticks": 18709
		},
		{
		  "bpm": 92.00012880018032,
		  "ticks": 18712
		},
		{
		  "bpm": 78.72001259520202,
		  "ticks": 18714
		},
		{
		  "bpm": 77.68005914041836,
		  "ticks": 18719
		},
		{
		  "bpm": 76.64000020437334,
		  "ticks": 18724
		},
		{
		  "bpm": 75.6000756000756,
		  "ticks": 18729
		},
		{
		  "bpm": 74.56000278357344,
		  "ticks": 18734
		},
		{
		  "bpm": 73.52004156333017,
		  "ticks": 18739
		},
		{
		  "bpm": 72.48004986627431,
		  "ticks": 18744
		},
		{
		  "bpm": 71.44005286563912,
		  "ticks": 18749
		},
		{
		  "bpm": 70.40006007471793,
		  "ticks": 18754
		},
		{
		  "bpm": 69.3600724119156,
		  "ticks": 18759
		},
		{
		  "bpm": 68.32001093120175,
		  "ticks": 18764
		},
		{
		  "bpm": 67.28003633121962,
		  "ticks": 18769
		},
		{
		  "bpm": 66.24000741888084,
		  "ticks": 18774
		},
		{
		  "bpm": 65.20002825334558,
		  "ticks": 18779
		},
		{
		  "bpm": 91.000091000091,
		  "ticks": 18780
		},
		{
		  "bpm": 64.16000650154733,
		  "ticks": 18784
		},
		{
		  "bpm": 63.12002272320818,
		  "ticks": 18789
		},
		{
		  "bpm": 62.08005429935416,
		  "ticks": 18794
		},
		{
		  "bpm": 61.04006160976885,
		  "ticks": 18799
		},
		{
		  "bpm": 60,
		  "ticks": 18804
		},
		{
		  "bpm": 58.96000448096034,
		  "ticks": 18809
		},
		{
		  "bpm": 57.92003367084624,
		  "ticks": 18814
		},
		{
		  "bpm": 56.880017291525256,
		  "ticks": 18819
		},
		{
		  "bpm": 55.84002948353557,
		  "ticks": 18824
		},
		{
		  "bpm": 54.800025573345266,
		  "ticks": 18829
		},
		{
		  "bpm": 53.76002064384793,
		  "ticks": 18834
		},
		{
		  "bpm": 52.72000056234667,
		  "ticks": 18839
		},
		{
		  "bpm": 51.68003169708611,
		  "ticks": 18844
		},
		{
		  "bpm": 90.00009000009,
		  "ticks": 18848
		},
		{
		  "bpm": 50.64000526656055,
		  "ticks": 18849
		},
		{
		  "bpm": 49.600017194672624,
		  "ticks": 18854
		},
		{
		  "bpm": 48.56003315031597,
		  "ticks": 18859
		},
		{
		  "bpm": 47.52000988416206,
		  "ticks": 18864
		},
		{
		  "bpm": 46.480028693671045,
		  "ticks": 18869
		},
		{
		  "bpm": 45.440018418354136,
		  "ticks": 18874
		},
		{
		  "bpm": 44.400011544003,
		  "ticks": 18879
		},
		{
		  "bpm": 43.360026247269225,
		  "ticks": 18884
		},
		{
		  "bpm": 42.32001122890965,
		  "ticks": 18889
		},
		{
		  "bpm": 41.28001056768271,
		  "ticks": 18894
		},
		{
		  "bpm": 40.24001829579498,
		  "ticks": 18899
		},
		{
		  "bpm": 39.200006272001005,
		  "ticks": 18904
		},
		{
		  "bpm": 38.16000106848003,
		  "ticks": 18909
		},
		{
		  "bpm": 37.12000712704137,
		  "ticks": 18914
		},
		{
		  "bpm": 89.00004005001803,
		  "ticks": 18916
		},
		{
		  "bpm": 36.00001440000576,
		  "ticks": 18920
		},
		{
		  "bpm": 88.00002346667293,
		  "ticks": 18984
		},
		{
		  "bpm": 87.00002175000543,
		  "ticks": 19052
		},
		{
		  "bpm": 86.00005160003096,
		  "ticks": 19120
		}
	  ],
	  "timeSignatures": [
		{
		  "ticks": 0,
		  "timeSignature": [
			4,
			4
		  ],
		  "measures": 0
		}
	  ]
	},
	"tracks": [
	  {
		"channel": 0,
		"controlChanges": {
		  "64": [
			{
			  "number": 64,
			  "ticks": 0,
			  "time": 0,
			  "value": 0.007874015748031496
			}
		  ]
		},
		"pitchBends": [],
		"instrument": {
		  "family": "piano",
		  "name": "acoustic grand piano",
		  "number": 0
		},
		"name": "tr1",
		"notes": [
		  {
			"duration": 0.6976739999999999,
			"durationTicks": 120,
			"midi": 66,
			"name": "F#4",
			"ticks": 240,
			"time": 1.395348,
			"velocity": 0.7716535433070866
		  },
		  {
			"duration": 0.6886523500000004,
			"durationTicks": 120,
			"midi": 73,
			"name": "C#5",
			"ticks": 360,
			"time": 2.093022,
			"velocity": 0.7716535433070866
		  },
		  {
			"duration": 1.551723,
			"durationTicks": 360,
			"midi": 68,
			"name": "G#4",
			"ticks": 480,
			"time": 2.7816743500000003,
			"velocity": 0.7716535433070866
		  },
		  {
			"duration": 0.5172410000000003,
			"durationTicks": 120,
			"midi": 69,
			"name": "A4",
			"ticks": 840,
			"time": 4.33339735,
			"velocity": 0.7716535433070866
		  },
		  {
			"duration": 1.0344819999999997,
			"durationTicks": 240,
			"midi": 69,
			"name": "A4",
			"ticks": 960,
			"time": 4.8506383500000005,
			"velocity": 0.7716535433070866
		  },
		  {
			"duration": 0.5172410000000003,
			"durationTicks": 120,
			"midi": 66,
			"name": "F#4",
			"ticks": 1200,
			"time": 5.88512035,
			"velocity": 0.7716535433070866
		  },
		  {
			"duration": 0.5172410000000012,
			"durationTicks": 120,
			"midi": 73,
			"name": "C#5",
			"ticks": 1320,
			"time": 6.4023613500000005,
			"velocity": 0.7716535433070866
		  },
		  {
			"duration": 1.551722999999999,
			"durationTicks": 360,
			"midi": 68,
			"name": "G#4",
			"ticks": 1440,
			"time": 6.919602350000002,
			"velocity": 0.7716535433070866
		  },
		  {
			"duration": 0.5172410000000003,
			"durationTicks": 120,
			"midi": 69,
			"name": "A4",
			"ticks": 1800,
			"time": 8.47132535,
			"velocity": 0.7716535433070866
		  },
		  {
			"duration": 0.5172410000000003,
			"durationTicks": 120,
			"midi": 71,
			"name": "B4",
			"ticks": 1920,
			"time": 8.988566350000001,
			"velocity": 0.7716535433070866
		  },
		  {
			"duration": 0.5172410000000003,
			"durationTicks": 120,
			"midi": 69,
			"name": "A4",
			"ticks": 2040,
			"time": 9.505807350000001,
			"velocity": 0.7716535433070866
		  },
		  {
			"duration": 2.5862049999999996,
			"durationTicks": 600,
			"midi": 66,
			"name": "F#4",
			"ticks": 2160,
			"time": 10.023048350000002,
			"velocity": 0.7716535433070866
		  },
		  {
			"duration": 0.5172410000000003,
			"durationTicks": 120,
			"midi": 68,
			"name": "G#4",
			"ticks": 2760,
			"time": 12.609253350000001,
			"velocity": 0.7716535433070866
		  },
		  {
			"duration": 0.5172410000000003,
			"durationTicks": 120,
			"midi": 64,
			"name": "E4",
			"ticks": 2880,
			"time": 13.126494350000002,
			"velocity": 0.7716535433070866
		  },
		  {
			"duration": 0.5172410000000003,
			"durationTicks": 120,
			"midi": 62,
			"name": "D4",
			"ticks": 3000,
			"time": 13.643735350000002,
			"velocity": 0.7716535433070866
		  },
		  {
			"duration": 2.5862049999999996,
			"durationTicks": 600,
			"midi": 64,
			"name": "E4",
			"ticks": 3120,
			"time": 14.160976350000002,
			"velocity": 0.7716535433070866
		  },
		  {
			"duration": 0.5172409999999985,
			"durationTicks": 120,
			"midi": 66,
			"name": "F#4",
			"ticks": 3720,
			"time": 16.74718135,
			"velocity": 0.7716535433070866
		  },
		  {
			"duration": 0.5172410000000021,
			"durationTicks": 120,
			"midi": 62,
			"name": "D4",
			"ticks": 3840,
			"time": 17.26442235,
			"velocity": 0.7716535433070866
		  },
		  {
			"duration": 0.5172409999999985,
			"durationTicks": 120,
			"midi": 61,
			"name": "C#4",
			"ticks": 3960,
			"time": 17.781663350000002,
			"velocity": 0.7716535433070866
		  },
		  {
			"duration": 0.5172409999999985,
			"durationTicks": 120,
			"midi": 62,
			"name": "D4",
			"ticks": 4080,
			"time": 18.29890435,
			"velocity": 0.7716535433070866
		  },
		  {
			"duration": 0.5172409999999985,
			"durationTicks": 120,
			"midi": 64,
			"name": "E4",
			"ticks": 4200,
			"time": 18.81614535,
			"velocity": 0.7716535433070866
		  },
		  {
			"duration": 1.5517230000000026,
			"durationTicks": 360,
			"midi": 66,
			"name": "F#4",
			"ticks": 4320,
			"time": 19.333386349999998,
			"velocity": 0.7716535433070866
		  },
		  {
			"duration": 0.5172409999999985,
			"durationTicks": 120,
			"midi": 68,
			"name": "G#4",
			"ticks": 4680,
			"time": 20.88510935,
			"velocity": 0.7716535433070866
		  },
		  {
			"duration": 0.5172410000000021,
			"durationTicks": 120,
			"midi": 69,
			"name": "A4",
			"ticks": 4800,
			"time": 21.40235035,
			"velocity": 0.7716535433070866
		  },
		  {
			"duration": 0.5172409999999985,
			"durationTicks": 120,
			"midi": 71,
			"name": "B4",
			"ticks": 4920,
			"time": 21.91959135,
			"velocity": 0.7716535433070866
		  },
		  {
			"duration": 2.068964000000001,
			"durationTicks": 480,
			"midi": 69,
			"name": "A4",
			"ticks": 5040,
			"time": 22.43683235,
			"velocity": 0.7716535433070866
		  },
		  {
			"duration": 1.1881179999999993,
			"durationTicks": 240,
			"midi": 68,
			"name": "G#4",
			"ticks": 5520,
			"time": 24.50579635,
			"velocity": 0.7716535433070866
		  },
		  {
			"duration": 0.5940590000000014,
			"durationTicks": 120,
			"midi": 66,
			"name": "F#4",
			"ticks": 5760,
			"time": 25.69391435,
			"velocity": 0.7716535433070866
		  },
		  {
			"duration": 0.5902181000000013,
			"durationTicks": 120,
			"midi": 73,
			"name": "C#5",
			"ticks": 5880,
			"time": 26.28797335,
			"velocity": 0.7716535433070866
		  },
		  {
			"duration": 1.551722999999999,
			"durationTicks": 360,
			"midi": 68,
			"name": "G#4",
			"ticks": 6000,
			"time": 26.878191450000003,
			"velocity": 0.7716535433070866
		  },
		  {
			"duration": 0.5172410000000021,
			"durationTicks": 120,
			"midi": 69,
			"name": "A4",
			"ticks": 6360,
			"time": 28.429914450000002,
			"velocity": 0.7716535433070866
		  },
		  {
			"duration": 1.034481999999997,
			"durationTicks": 240,
			"midi": 69,
			"name": "A4",
			"ticks": 6480,
			"time": 28.947155450000004,
			"velocity": 0.7716535433070866
		  },
		  {
			"duration": 0.5172410000000021,
			"durationTicks": 120,
			"midi": 66,
			"name": "F#4",
			"ticks": 6720,
			"time": 29.98163745,
			"velocity": 0.7716535433070866
		  },
		  {
			"duration": 0.5172410000000021,
			"durationTicks": 120,
			"midi": 73,
			"name": "C#5",
			"ticks": 6840,
			"time": 30.498878450000003,
			"velocity": 0.7716535433070866
		  },
		  {
			"duration": 1.5517229999999955,
			"durationTicks": 360,
			"midi": 68,
			"name": "G#4",
			"ticks": 6960,
			"time": 31.016119450000005,
			"velocity": 0.7716535433070866
		  },
		  {
			"duration": 0.5172410000000056,
			"durationTicks": 120,
			"midi": 69,
			"name": "A4",
			"ticks": 7320,
			"time": 32.56784245,
			"velocity": 0.7716535433070866
		  },
		  {
			"duration": 0.5172409999999985,
			"durationTicks": 120,
			"midi": 71,
			"name": "B4",
			"ticks": 7440,
			"time": 33.085083450000006,
			"velocity": 0.7716535433070866
		  },
		  {
			"duration": 0.5172409999999985,
			"durationTicks": 120,
			"midi": 69,
			"name": "A4",
			"ticks": 7560,
			"time": 33.602324450000005,
			"velocity": 0.7716535433070866
		  },
		  {
			"duration": 2.5862049999999996,
			"durationTicks": 600,
			"midi": 66,
			"name": "F#4",
			"ticks": 7680,
			"time": 34.11956545,
			"velocity": 0.7716535433070866
		  },
		  {
			"duration": 0.5172409999999985,
			"durationTicks": 120,
			"midi": 68,
			"name": "G#4",
			"ticks": 8280,
			"time": 36.70577045,
			"velocity": 0.7716535433070866
		  },
		  {
			"duration": 0.5172409999999985,
			"durationTicks": 120,
			"midi": 64,
			"name": "E4",
			"ticks": 8400,
			"time": 37.22301145,
			"velocity": 0.7716535433070866
		  },
		  {
			"duration": 0.5172410000000056,
			"durationTicks": 120,
			"midi": 62,
			"name": "D4",
			"ticks": 8520,
			"time": 37.74025245,
			"velocity": 0.7716535433070866
		  },
		  {
			"duration": 2.5862049999999996,
			"durationTicks": 600,
			"midi": 64,
			"name": "E4",
			"ticks": 8640,
			"time": 38.257493450000005,
			"velocity": 0.7716535433070866
		  },
		  {
			"duration": 0.5172409999999985,
			"durationTicks": 120,
			"midi": 66,
			"name": "F#4",
			"ticks": 9240,
			"time": 40.843698450000005,
			"velocity": 0.7716535433070866
		  },
		  {
			"duration": 0.5172409999999985,
			"durationTicks": 120,
			"midi": 62,
			"name": "D4",
			"ticks": 9360,
			"time": 41.360939450000004,
			"velocity": 0.7716535433070866
		  },
		  {
			"duration": 0.5172409999999985,
			"durationTicks": 120,
			"midi": 61,
			"name": "C#4",
			"ticks": 9480,
			"time": 41.87818045,
			"velocity": 0.7716535433070866
		  },
		  {
			"duration": 0.5172409999999985,
			"durationTicks": 120,
			"midi": 62,
			"name": "D4",
			"ticks": 9600,
			"time": 42.39542145,
			"velocity": 0.7716535433070866
		  },
		  {
			"duration": 0.5172409999999985,
			"durationTicks": 120,
			"midi": 71,
			"name": "B4",
			"ticks": 9720,
			"time": 42.91266245,
			"velocity": 0.7716535433070866
		  },
		  {
			"duration": 0.5172410000000056,
			"durationTicks": 120,
			"midi": 69,
			"name": "A4",
			"ticks": 9840,
			"time": 43.42990345,
			"velocity": 0.7716535433070866
		  },
		  {
			"duration": 0.5172409999999985,
			"durationTicks": 120,
			"midi": 68,
			"name": "G#4",
			"ticks": 9960,
			"time": 43.94714445,
			"velocity": 0.7716535433070866
		  },
		  {
			"duration": 0.5172410000000056,
			"durationTicks": 120,
			"midi": 66,
			"name": "F#4",
			"ticks": 10080,
			"time": 44.46438545,
			"velocity": 0.7874015748031497
		  },
		  {
			"duration": 0.5172409999999985,
			"durationTicks": 120,
			"midi": 65,
			"name": "F4",
			"ticks": 10200,
			"time": 44.98162645000001,
			"velocity": 0.8031496062992126
		  },
		  {
			"duration": 0.5172409999999985,
			"durationTicks": 120,
			"midi": 63,
			"name": "D#4",
			"ticks": 10320,
			"time": 45.498867450000006,
			"velocity": 0.8188976377952756
		  },
		  {
			"duration": 0.5172409999999985,
			"durationTicks": 120,
			"midi": 65,
			"name": "F4",
			"ticks": 10440,
			"time": 46.016108450000004,
			"velocity": 0.8346456692913385
		  },
		  {
			"duration": 0.5172409999999985,
			"durationTicks": 120,
			"midi": 66,
			"name": "F#4",
			"ticks": 10560,
			"time": 46.53334945,
			"velocity": 0.8582677165354331
		  },
		  {
			"duration": 0.5172409999999985,
			"durationTicks": 120,
			"midi": 70,
			"name": "A#4",
			"ticks": 10680,
			"time": 47.05059045,
			"velocity": 0.8740157480314961
		  },
		  {
			"duration": 0.5172409999999985,
			"durationTicks": 120,
			"midi": 71,
			"name": "B4",
			"ticks": 10800,
			"time": 47.56783145,
			"velocity": 0.889763779527559
		  },
		  {
			"duration": 0.5172410000000056,
			"durationTicks": 120,
			"midi": 73,
			"name": "C#5",
			"ticks": 10920,
			"time": 48.08507245,
			"velocity": 0.905511811023622
		  },
		  {
			"duration": 0.5172409999999985,
			"durationTicks": 120,
			"midi": 62,
			"name": "D4",
			"ticks": 11040,
			"time": 48.602313450000004,
			"velocity": 0.9291338582677166
		  },
		  {
			"duration": 0.5172409999999985,
			"durationTicks": 120,
			"midi": 66,
			"name": "F#4",
			"ticks": 11040,
			"time": 48.602313450000004,
			"velocity": 0.9291338582677166
		  },
		  {
			"duration": 0.5172409999999985,
			"durationTicks": 120,
			"midi": 74,
			"name": "D5",
			"ticks": 11040,
			"time": 48.602313450000004,
			"velocity": 0.9291338582677166
		  },
		  {
			"duration": 0.5172410000000056,
			"durationTicks": 120,
			"midi": 69,
			"name": "A4",
			"ticks": 11160,
			"time": 49.11955445,
			"velocity": 0.9291338582677166
		  },
		  {
			"duration": 0.5172409999999985,
			"durationTicks": 120,
			"midi": 64,
			"name": "E4",
			"ticks": 11280,
			"time": 49.63679545000001,
			"velocity": 0.9291338582677166
		  },
		  {
			"duration": 0.5172409999999985,
			"durationTicks": 120,
			"midi": 68,
			"name": "G#4",
			"ticks": 11280,
			"time": 49.63679545000001,
			"velocity": 0.9291338582677166
		  },
		  {
			"duration": 0.5172409999999985,
			"durationTicks": 120,
			"midi": 74,
			"name": "D5",
			"ticks": 11400,
			"time": 50.15403645000001,
			"velocity": 0.9291338582677166
		  },
		  {
			"duration": 0.5172409999999985,
			"durationTicks": 120,
			"midi": 64,
			"name": "E4",
			"ticks": 11520,
			"time": 50.671277450000005,
			"velocity": 0.9291338582677166
		  },
		  {
			"duration": 0.5172409999999985,
			"durationTicks": 120,
			"midi": 69,
			"name": "A4",
			"ticks": 11520,
			"time": 50.671277450000005,
			"velocity": 0.9291338582677166
		  },
		  {
			"duration": 0.5172409999999985,
			"durationTicks": 120,
			"midi": 73,
			"name": "C#5",
			"ticks": 11520,
			"time": 50.671277450000005,
			"velocity": 0.9291338582677166
		  },
		  {
			"duration": 0.5172409999999985,
			"durationTicks": 120,
			"midi": 76,
			"name": "E5",
			"ticks": 11640,
			"time": 51.188518450000004,
			"velocity": 0.9291338582677166
		  },
		  {
			"duration": 0.5172409999999985,
			"durationTicks": 120,
			"midi": 61,
			"name": "C#4",
			"ticks": 11760,
			"time": 51.70575945,
			"velocity": 0.9291338582677166
		  },
		  {
			"duration": 0.5172409999999985,
			"durationTicks": 120,
			"midi": 66,
			"name": "F#4",
			"ticks": 11760,
			"time": 51.70575945,
			"velocity": 0.9291338582677166
		  },
		  {
			"duration": 0.5172409999999985,
			"durationTicks": 120,
			"midi": 69,
			"name": "A4",
			"ticks": 11760,
			"time": 51.70575945,
			"velocity": 0.9291338582677166
		  },
		  {
			"duration": 0.5172409999999985,
			"durationTicks": 120,
			"midi": 73,
			"name": "C#5",
			"ticks": 11880,
			"time": 52.22300045,
			"velocity": 0.9291338582677166
		  },
		  {
			"duration": 0.5172410000000056,
			"durationTicks": 120,
			"midi": 63,
			"name": "D#4",
			"ticks": 12000,
			"time": 52.74024145,
			"velocity": 0.9291338582677166
		  },
		  {
			"duration": 0.5172410000000056,
			"durationTicks": 120,
			"midi": 66,
			"name": "F#4",
			"ticks": 12000,
			"time": 52.74024145,
			"velocity": 0.9291338582677166
		  },
		  {
			"duration": 0.5172410000000056,
			"durationTicks": 120,
			"midi": 72,
			"name": "C5",
			"ticks": 12000,
			"time": 52.74024145,
			"velocity": 0.9291338582677166
		  },
		  {
			"duration": 0.5172409999999985,
			"durationTicks": 120,
			"midi": 69,
			"name": "A4",
			"ticks": 12120,
			"time": 53.257482450000005,
			"velocity": 0.9291338582677166
		  },
		  {
			"duration": 0.5172410000000056,
			"durationTicks": 120,
			"midi": 68,
			"name": "G#4",
			"ticks": 12240,
			"time": 53.77472345,
			"velocity": 0.9291338582677166
		  },
		  {
			"duration": 0.5172409999999985,
			"durationTicks": 120,
			"midi": 66,
			"name": "F#4",
			"ticks": 12360,
			"time": 54.29196445000001,
			"velocity": 0.9291338582677166
		  },
		  {
			"duration": 1.5517229999999955,
			"durationTicks": 360,
			"midi": 61,
			"name": "C#4",
			"ticks": 12480,
			"time": 54.80920545000001,
			"velocity": 0.8976377952755905
		  },
		  {
			"duration": 1.5517229999999955,
			"durationTicks": 360,
			"midi": 66,
			"name": "F#4",
			"ticks": 12480,
			"time": 54.80920545000001,
			"velocity": 0.8976377952755905
		  },
		  {
			"duration": 1.5517229999999955,
			"durationTicks": 360,
			"midi": 69,
			"name": "A4",
			"ticks": 12480,
			"time": 54.80920545000001,
			"velocity": 0.8976377952755905
		  },
		  {
			"duration": 0.5172409999999985,
			"durationTicks": 120,
			"midi": 71,
			"name": "B4",
			"ticks": 12840,
			"time": 56.36092845,
			"velocity": 0.8031496062992126
		  },
		  {
			"duration": 3.4746908583333322,
			"durationTicks": 720,
			"midi": 61,
			"name": "C#4",
			"ticks": 12960,
			"time": 56.87816945,
			"velocity": 0.7874015748031497
		  },
		  {
			"duration": 3.4746908583333322,
			"durationTicks": 720,
			"midi": 65,
			"name": "F4",
			"ticks": 12960,
			"time": 56.87816945,
			"velocity": 0.7874015748031497
		  },
		  {
			"duration": 3.4746908583333322,
			"durationTicks": 720,
			"midi": 68,
			"name": "G#4",
			"ticks": 12960,
			"time": 56.87816945,
			"velocity": 0.7874015748031497
		  },
		  {
			"duration": 0.6891498000000027,
			"durationTicks": 120,
			"midi": 66,
			"name": "F#4",
			"ticks": 13680,
			"time": 60.352860308333334,
			"velocity": 0.889763779527559
		  },
		  {
			"duration": 0.5774652250000187,
			"durationTicks": 120,
			"midi": 73,
			"name": "C#5",
			"ticks": 13800,
			"time": 61.042010108333336,
			"velocity": 0.905511811023622
		  },
		  {
			"duration": 1.5517230000000026,
			"durationTicks": 360,
			"midi": 68,
			"name": "G#4",
			"ticks": 13920,
			"time": 61.619475333333355,
			"velocity": 0.9291338582677166
		  },
		  {
			"duration": 0.5172409999999985,
			"durationTicks": 120,
			"midi": 69,
			"name": "A4",
			"ticks": 14280,
			"time": 63.17119833333336,
			"velocity": 0.9291338582677166
		  },
		  {
			"duration": 1.0344820000000041,
			"durationTicks": 240,
			"midi": 69,
			"name": "A4",
			"ticks": 14400,
			"time": 63.688439333333356,
			"velocity": 0.9291338582677166
		  },
		  {
			"duration": 0.5172409999999985,
			"durationTicks": 120,
			"midi": 66,
			"name": "F#4",
			"ticks": 14640,
			"time": 64.72292133333336,
			"velocity": 0.9291338582677166
		  },
		  {
			"duration": 0.5172409999999985,
			"durationTicks": 120,
			"midi": 73,
			"name": "C#5",
			"ticks": 14760,
			"time": 65.24016233333336,
			"velocity": 0.9291338582677166
		  },
		  {
			"duration": 1.5517229999999955,
			"durationTicks": 360,
			"midi": 68,
			"name": "G#4",
			"ticks": 14880,
			"time": 65.75740333333336,
			"velocity": 0.9291338582677166
		  },
		  {
			"duration": 0.5172409999999985,
			"durationTicks": 120,
			"midi": 69,
			"name": "A4",
			"ticks": 15240,
			"time": 67.30912633333335,
			"velocity": 0.9291338582677166
		  },
		  {
			"duration": 0.5172409999999985,
			"durationTicks": 120,
			"midi": 71,
			"name": "B4",
			"ticks": 15360,
			"time": 67.82636733333335,
			"velocity": 0.9291338582677166
		  },
		  {
			"duration": 0.5172410000000127,
			"durationTicks": 120,
			"midi": 69,
			"name": "A4",
			"ticks": 15480,
			"time": 68.34360833333335,
			"velocity": 0.9291338582677166
		  },
		  {
			"duration": 2.5862049999999925,
			"durationTicks": 600,
			"midi": 66,
			"name": "F#4",
			"ticks": 15600,
			"time": 68.86084933333336,
			"velocity": 0.9291338582677166
		  },
		  {
			"duration": 0.5172409999999985,
			"durationTicks": 120,
			"midi": 68,
			"name": "G#4",
			"ticks": 16200,
			"time": 71.44705433333336,
			"velocity": 0.9291338582677166
		  },
		  {
			"duration": 0.5172409999999985,
			"durationTicks": 120,
			"midi": 64,
			"name": "E4",
			"ticks": 16320,
			"time": 71.96429533333335,
			"velocity": 0.9291338582677166
		  },
		  {
			"duration": 0.5172409999999985,
			"durationTicks": 120,
			"midi": 62,
			"name": "D4",
			"ticks": 16440,
			"time": 72.48153633333335,
			"velocity": 0.9291338582677166
		  },
		  {
			"duration": 2.5862050000000067,
			"durationTicks": 600,
			"midi": 64,
			"name": "E4",
			"ticks": 16560,
			"time": 72.99877733333335,
			"velocity": 0.9291338582677166
		  },
		  {
			"duration": 0.5172409999999985,
			"durationTicks": 120,
			"midi": 66,
			"name": "F#4",
			"ticks": 17160,
			"time": 75.58498233333336,
			"velocity": 0.9291338582677166
		  },
		  {
			"duration": 0.5172409999999985,
			"durationTicks": 120,
			"midi": 62,
			"name": "D4",
			"ticks": 17280,
			"time": 76.10222333333336,
			"velocity": 0.9291338582677166
		  },
		  {
			"duration": 0.5175408666666783,
			"durationTicks": 120,
			"midi": 61,
			"name": "C#4",
			"ticks": 17400,
			"time": 76.61946433333335,
			"velocity": 0.9291338582677166
		  },
		  {
			"duration": 0.5291483333333531,
			"durationTicks": 120,
			"midi": 62,
			"name": "D4",
			"ticks": 17520,
			"time": 77.13700520000003,
			"velocity": 0.9291338582677166
		  },
		  {
			"duration": 0.5474982000000068,
			"durationTicks": 120,
			"midi": 71,
			"name": "B4",
			"ticks": 17640,
			"time": 77.66615353333339,
			"velocity": 0.9291338582677166
		  },
		  {
			"duration": 0.5668165999999957,
			"durationTicks": 120,
			"midi": 69,
			"name": "A4",
			"ticks": 17760,
			"time": 78.21365173333339,
			"velocity": 0.9291338582677166
		  },
		  {
			"duration": 0.587541200000004,
			"durationTicks": 120,
			"midi": 68,
			"name": "G#4",
			"ticks": 17880,
			"time": 78.78046833333339,
			"velocity": 0.9291338582677166
		  },
		  {
			"duration": 0.6098293333333231,
			"durationTicks": 120,
			"midi": 66,
			"name": "F#4",
			"ticks": 18000,
			"time": 79.36800953333339,
			"velocity": 0.9291338582677166
		  },
		  {
			"duration": 0.625,
			"durationTicks": 120,
			"midi": 65,
			"name": "F4",
			"ticks": 18120,
			"time": 79.97783886666672,
			"velocity": 0.9291338582677166
		  },
		  {
			"duration": 0.625,
			"durationTicks": 120,
			"midi": 63,
			"name": "D#4",
			"ticks": 18240,
			"time": 80.60283886666672,
			"velocity": 0.9291338582677166
		  },
		  {
			"duration": 0.625,
			"durationTicks": 120,
			"midi": 65,
			"name": "F4",
			"ticks": 18360,
			"time": 81.22783886666672,
			"velocity": 0.9291338582677166
		  },
		  {
			"duration": 8.008887158333394,
			"durationTicks": 1200,
			"midi": 66,
			"name": "F#4",
			"ticks": 18480,
			"time": 81.85283886666672,
			"velocity": 0.9291338582677166
		  }
		]
	  },
	  {
		"channel": 1,
		"controlChanges": {
		  "64": [
			{
			  "number": 64,
			  "ticks": 0,
			  "time": 0,
			  "value": 0.007874015748031496
			}
		  ]
		},
		"pitchBends": [],
		"instrument": {
		  "family": "piano",
		  "name": "acoustic grand piano",
		  "number": 0
		},
		"name": "tr2",
		"notes": [
		  {
			"duration": 0.03488369999999996,
			"durationTicks": 6,
			"midi": 41,
			"name": "F2",
			"ticks": 468,
			"time": 2.7209286,
			"velocity": 0.6929133858267716
		  },
		  {
			"duration": 0.025862050000000192,
			"durationTicks": 6,
			"midi": 49,
			"name": "C#3",
			"ticks": 474,
			"time": 2.7558123,
			"velocity": 0.6929133858267716
		  },
		  {
			"duration": 0.5172409999999998,
			"durationTicks": 120,
			"midi": 56,
			"name": "G#3",
			"ticks": 480,
			"time": 2.7816743500000003,
			"velocity": 0.6929133858267716
		  },
		  {
			"duration": 0.5172409999999998,
			"durationTicks": 120,
			"midi": 53,
			"name": "F3",
			"ticks": 600,
			"time": 3.29891535,
			"velocity": 0.6929133858267716
		  },
		  {
			"duration": 0.5172410000000003,
			"durationTicks": 120,
			"midi": 56,
			"name": "G#3",
			"ticks": 720,
			"time": 3.81615635,
			"velocity": 0.6929133858267716
		  },
		  {
			"duration": 0.5172410000000003,
			"durationTicks": 120,
			"midi": 61,
			"name": "C#4",
			"ticks": 720,
			"time": 3.81615635,
			"velocity": 0.6929133858267716
		  },
		  {
			"duration": 0.5172410000000003,
			"durationTicks": 120,
			"midi": 65,
			"name": "F4",
			"ticks": 720,
			"time": 3.81615635,
			"velocity": 0.6929133858267716
		  },
		  {
			"duration": 0.43965485000000015,
			"durationTicks": 102,
			"midi": 49,
			"name": "C#3",
			"ticks": 840,
			"time": 4.33339735,
			"velocity": 0.6929133858267716
		  },
		  {
			"duration": 0.025862050000000636,
			"durationTicks": 6,
			"midi": 42,
			"name": "F#2",
			"ticks": 942,
			"time": 4.7730522,
			"velocity": 0.6929133858267716
		  },
		  {
			"duration": 0.02586204999999886,
			"durationTicks": 6,
			"midi": 49,
			"name": "C#3",
			"ticks": 948,
			"time": 4.798914250000001,
			"velocity": 0.6929133858267716
		  },
		  {
			"duration": 0.025862050000000636,
			"durationTicks": 6,
			"midi": 54,
			"name": "F#3",
			"ticks": 954,
			"time": 4.8247763,
			"velocity": 0.6929133858267716
		  },
		  {
			"duration": 0.5172410000000003,
			"durationTicks": 120,
			"midi": 57,
			"name": "A3",
			"ticks": 960,
			"time": 4.8506383500000005,
			"velocity": 0.6929133858267716
		  },
		  {
			"duration": 0.5172409999999994,
			"durationTicks": 120,
			"midi": 49,
			"name": "C#3",
			"ticks": 1080,
			"time": 5.367879350000001,
			"velocity": 0.6929133858267716
		  },
		  {
			"duration": 0.5172410000000003,
			"durationTicks": 120,
			"midi": 54,
			"name": "F#3",
			"ticks": 1200,
			"time": 5.88512035,
			"velocity": 0.6929133858267716
		  },
		  {
			"duration": 0.5172410000000003,
			"durationTicks": 120,
			"midi": 57,
			"name": "A3",
			"ticks": 1200,
			"time": 5.88512035,
			"velocity": 0.6929133858267716
		  },
		  {
			"duration": 0.5172410000000003,
			"durationTicks": 120,
			"midi": 61,
			"name": "C#4",
			"ticks": 1200,
			"time": 5.88512035,
			"velocity": 0.6929133858267716
		  },
		  {
			"duration": 0.4655168999999999,
			"durationTicks": 108,
			"midi": 49,
			"name": "C#3",
			"ticks": 1320,
			"time": 6.4023613500000005,
			"velocity": 0.6929133858267716
		  },
		  {
			"duration": 0.025862050000000636,
			"durationTicks": 6,
			"midi": 41,
			"name": "F2",
			"ticks": 1428,
			"time": 6.86787825,
			"velocity": 0.6929133858267716
		  },
		  {
			"duration": 0.025862050000000636,
			"durationTicks": 6,
			"midi": 49,
			"name": "C#3",
			"ticks": 1434,
			"time": 6.893740300000001,
			"velocity": 0.6929133858267716
		  },
		  {
			"duration": 0.5172409999999985,
			"durationTicks": 120,
			"midi": 56,
			"name": "G#3",
			"ticks": 1440,
			"time": 6.919602350000002,
			"velocity": 0.6929133858267716
		  },
		  {
			"duration": 0.5172410000000003,
			"durationTicks": 120,
			"midi": 53,
			"name": "F3",
			"ticks": 1560,
			"time": 7.43684335,
			"velocity": 0.6929133858267716
		  },
		  {
			"duration": 0.5172410000000003,
			"durationTicks": 120,
			"midi": 56,
			"name": "G#3",
			"ticks": 1680,
			"time": 7.9540843500000005,
			"velocity": 0.6929133858267716
		  },
		  {
			"duration": 0.5172410000000003,
			"durationTicks": 120,
			"midi": 61,
			"name": "C#4",
			"ticks": 1680,
			"time": 7.9540843500000005,
			"velocity": 0.6929133858267716
		  },
		  {
			"duration": 0.5172410000000003,
			"durationTicks": 120,
			"midi": 65,
			"name": "F4",
			"ticks": 1680,
			"time": 7.9540843500000005,
			"velocity": 0.6929133858267716
		  },
		  {
			"duration": 0.43965485000000015,
			"durationTicks": 102,
			"midi": 49,
			"name": "C#3",
			"ticks": 1800,
			"time": 8.47132535,
			"velocity": 0.6929133858267716
		  },
		  {
			"duration": 0.02586204999999886,
			"durationTicks": 6,
			"midi": 42,
			"name": "F#2",
			"ticks": 1902,
			"time": 8.910980200000001,
			"velocity": 0.6929133858267716
		  },
		  {
			"duration": 0.025862050000000636,
			"durationTicks": 6,
			"midi": 49,
			"name": "C#3",
			"ticks": 1908,
			"time": 8.93684225,
			"velocity": 0.6929133858267716
		  },
		  {
			"duration": 0.025862050000000636,
			"durationTicks": 6,
			"midi": 54,
			"name": "F#3",
			"ticks": 1914,
			"time": 8.9627043,
			"velocity": 0.6929133858267716
		  },
		  {
			"duration": 0.5172410000000003,
			"durationTicks": 120,
			"midi": 57,
			"name": "A3",
			"ticks": 1920,
			"time": 8.988566350000001,
			"velocity": 0.6929133858267716
		  },
		  {
			"duration": 0.5172410000000003,
			"durationTicks": 120,
			"midi": 49,
			"name": "C#3",
			"ticks": 2040,
			"time": 9.505807350000001,
			"velocity": 0.6929133858267716
		  },
		  {
			"duration": 0.5172410000000003,
			"durationTicks": 120,
			"midi": 54,
			"name": "F#3",
			"ticks": 2160,
			"time": 10.023048350000002,
			"velocity": 0.6929133858267716
		  },
		  {
			"duration": 0.5172410000000003,
			"durationTicks": 120,
			"midi": 57,
			"name": "A3",
			"ticks": 2160,
			"time": 10.023048350000002,
			"velocity": 0.6929133858267716
		  },
		  {
			"duration": 0.5172410000000003,
			"durationTicks": 120,
			"midi": 61,
			"name": "C#4",
			"ticks": 2160,
			"time": 10.023048350000002,
			"velocity": 0.6929133858267716
		  },
		  {
			"duration": 0.465516899999999,
			"durationTicks": 108,
			"midi": 45,
			"name": "A2",
			"ticks": 2280,
			"time": 10.540289350000002,
			"velocity": 0.6929133858267716
		  },
		  {
			"duration": 0.025862050000000636,
			"durationTicks": 6,
			"midi": 38,
			"name": "D2",
			"ticks": 2388,
			"time": 11.005806250000001,
			"velocity": 0.6929133858267716
		  },
		  {
			"duration": 0.025862050000000636,
			"durationTicks": 6,
			"midi": 45,
			"name": "A2",
			"ticks": 2394,
			"time": 11.031668300000002,
			"velocity": 0.6929133858267716
		  },
		  {
			"duration": 0.5172410000000003,
			"durationTicks": 120,
			"midi": 50,
			"name": "D3",
			"ticks": 2400,
			"time": 11.057530350000002,
			"velocity": 0.6929133858267716
		  },
		  {
			"duration": 0.5172410000000003,
			"durationTicks": 120,
			"midi": 47,
			"name": "B2",
			"ticks": 2520,
			"time": 11.574771350000002,
			"velocity": 0.6929133858267716
		  },
		  {
			"duration": 0.5172409999999985,
			"durationTicks": 120,
			"midi": 50,
			"name": "D3",
			"ticks": 2640,
			"time": 12.092012350000003,
			"velocity": 0.6929133858267716
		  },
		  {
			"duration": 0.5172409999999985,
			"durationTicks": 120,
			"midi": 54,
			"name": "F#3",
			"ticks": 2640,
			"time": 12.092012350000003,
			"velocity": 0.6929133858267716
		  },
		  {
			"duration": 0.5172409999999985,
			"durationTicks": 120,
			"midi": 57,
			"name": "A3",
			"ticks": 2640,
			"time": 12.092012350000003,
			"velocity": 0.6929133858267716
		  },
		  {
			"duration": 0.43965485000000015,
			"durationTicks": 102,
			"midi": 47,
			"name": "B2",
			"ticks": 2760,
			"time": 12.609253350000001,
			"velocity": 0.6929133858267716
		  },
		  {
			"duration": 0.025862050000000636,
			"durationTicks": 6,
			"midi": 50,
			"name": "D3",
			"ticks": 2862,
			"time": 13.048908200000001,
			"velocity": 0.6929133858267716
		  },
		  {
			"duration": 0.025862050000000636,
			"durationTicks": 6,
			"midi": 54,
			"name": "F#3",
			"ticks": 2868,
			"time": 13.074770250000002,
			"velocity": 0.6929133858267716
		  },
		  {
			"duration": 0.02586204999999886,
			"durationTicks": 6,
			"midi": 57,
			"name": "A3",
			"ticks": 2874,
			"time": 13.100632300000003,
			"velocity": 0.6929133858267716
		  },
		  {
			"duration": 0.9827578999999993,
			"durationTicks": 228,
			"midi": 54,
			"name": "F#3",
			"ticks": 2880,
			"time": 13.126494350000002,
			"velocity": 0.6929133858267716
		  },
		  {
			"duration": 0.025862050000000636,
			"durationTicks": 6,
			"midi": 37,
			"name": "C#2",
			"ticks": 3108,
			"time": 14.10925225,
			"velocity": 0.6929133858267716
		  },
		  {
			"duration": 0.025862050000000636,
			"durationTicks": 6,
			"midi": 44,
			"name": "G#2",
			"ticks": 3114,
			"time": 14.135114300000001,
			"velocity": 0.6929133858267716
		  },
		  {
			"duration": 0.5172410000000003,
			"durationTicks": 120,
			"midi": 52,
			"name": "E3",
			"ticks": 3120,
			"time": 14.160976350000002,
			"velocity": 0.6929133858267716
		  },
		  {
			"duration": 0.5172410000000003,
			"durationTicks": 120,
			"midi": 49,
			"name": "C#3",
			"ticks": 3240,
			"time": 14.678217350000002,
			"velocity": 0.6929133858267716
		  },
		  {
			"duration": 0.5172410000000003,
			"durationTicks": 120,
			"midi": 52,
			"name": "E3",
			"ticks": 3360,
			"time": 15.195458350000003,
			"velocity": 0.6929133858267716
		  },
		  {
			"duration": 0.5172410000000003,
			"durationTicks": 120,
			"midi": 56,
			"name": "G#3",
			"ticks": 3360,
			"time": 15.195458350000003,
			"velocity": 0.6929133858267716
		  },
		  {
			"duration": 0.5172410000000003,
			"durationTicks": 120,
			"midi": 61,
			"name": "C#4",
			"ticks": 3360,
			"time": 15.195458350000003,
			"velocity": 0.6929133858267716
		  },
		  {
			"duration": 0.4396548499999984,
			"durationTicks": 102,
			"midi": 49,
			"name": "C#3",
			"ticks": 3480,
			"time": 15.712699350000003,
			"velocity": 0.6929133858267716
		  },
		  {
			"duration": 0.025862050000000636,
			"durationTicks": 6,
			"midi": 42,
			"name": "F#2",
			"ticks": 3582,
			"time": 16.1523542,
			"velocity": 0.6929133858267716
		  },
		  {
			"duration": 0.025862050000000636,
			"durationTicks": 6,
			"midi": 49,
			"name": "C#3",
			"ticks": 3588,
			"time": 16.178216250000002,
			"velocity": 0.6929133858267716
		  },
		  {
			"duration": 0.025862050000000636,
			"durationTicks": 6,
			"midi": 54,
			"name": "F#3",
			"ticks": 3594,
			"time": 16.204078300000003,
			"velocity": 0.6929133858267716
		  },
		  {
			"duration": 0.5172409999999985,
			"durationTicks": 120,
			"midi": 58,
			"name": "A#3",
			"ticks": 3600,
			"time": 16.229940350000003,
			"velocity": 0.6929133858267716
		  },
		  {
			"duration": 0.5172409999999985,
			"durationTicks": 120,
			"midi": 49,
			"name": "C#3",
			"ticks": 3720,
			"time": 16.74718135,
			"velocity": 0.6929133858267716
		  },
		  {
			"duration": 0.5172410000000021,
			"durationTicks": 120,
			"midi": 54,
			"name": "F#3",
			"ticks": 3840,
			"time": 17.26442235,
			"velocity": 0.6929133858267716
		  },
		  {
			"duration": 0.43965485000000015,
			"durationTicks": 102,
			"midi": 49,
			"name": "C#3",
			"ticks": 3960,
			"time": 17.781663350000002,
			"velocity": 0.6929133858267716
		  },
		  {
			"duration": 0.025862049999997083,
			"durationTicks": 6,
			"midi": 47,
			"name": "B2",
			"ticks": 4062,
			"time": 18.221318200000002,
			"velocity": 0.6929133858267716
		  },
		  {
			"duration": 0.025862050000000636,
			"durationTicks": 6,
			"midi": 50,
			"name": "D3",
			"ticks": 4068,
			"time": 18.24718025,
			"velocity": 0.6929133858267716
		  },
		  {
			"duration": 0.025862050000000636,
			"durationTicks": 6,
			"midi": 54,
			"name": "F#3",
			"ticks": 4074,
			"time": 18.2730423,
			"velocity": 0.6929133858267716
		  },
		  {
			"duration": 0.5172409999999985,
			"durationTicks": 120,
			"midi": 59,
			"name": "B3",
			"ticks": 4080,
			"time": 18.29890435,
			"velocity": 0.6929133858267716
		  },
		  {
			"duration": 0.4655169000000008,
			"durationTicks": 108,
			"midi": 50,
			"name": "D3",
			"ticks": 4200,
			"time": 18.81614535,
			"velocity": 0.6929133858267716
		  },
		  {
			"duration": 0.025862050000000636,
			"durationTicks": 6,
			"midi": 45,
			"name": "A2",
			"ticks": 4308,
			"time": 19.28166225,
			"velocity": 0.6929133858267716
		  },
		  {
			"duration": 0.025862049999997083,
			"durationTicks": 6,
			"midi": 54,
			"name": "F#3",
			"ticks": 4314,
			"time": 19.3075243,
			"velocity": 0.6929133858267716
		  },
		  {
			"duration": 0.5172410000000021,
			"durationTicks": 120,
			"midi": 57,
			"name": "A3",
			"ticks": 4320,
			"time": 19.333386349999998,
			"velocity": 0.6929133858267716
		  },
		  {
			"duration": 0.43965485000000015,
			"durationTicks": 102,
			"midi": 50,
			"name": "D3",
			"ticks": 4440,
			"time": 19.85062735,
			"velocity": 0.6929133858267716
		  },
		  {
			"duration": 0.025862050000000636,
			"durationTicks": 6,
			"midi": 44,
			"name": "G#2",
			"ticks": 4542,
			"time": 20.2902822,
			"velocity": 0.6929133858267716
		  },
		  {
			"duration": 0.025862050000000636,
			"durationTicks": 6,
			"midi": 51,
			"name": "D#3",
			"ticks": 4548,
			"time": 20.31614425,
			"velocity": 0.6929133858267716
		  },
		  {
			"duration": 0.025862049999997083,
			"durationTicks": 6,
			"midi": 54,
			"name": "F#3",
			"ticks": 4554,
			"time": 20.3420063,
			"velocity": 0.6929133858267716
		  },
		  {
			"duration": 0.5172410000000021,
			"durationTicks": 120,
			"midi": 60,
			"name": "C4",
			"ticks": 4560,
			"time": 20.36786835,
			"velocity": 0.6929133858267716
		  },
		  {
			"duration": 0.5172409999999985,
			"durationTicks": 120,
			"midi": 54,
			"name": "F#3",
			"ticks": 4680,
			"time": 20.88510935,
			"velocity": 0.6929133858267716
		  },
		  {
			"duration": 0.5172410000000021,
			"durationTicks": 120,
			"midi": 60,
			"name": "C4",
			"ticks": 4800,
			"time": 21.40235035,
			"velocity": 0.6929133858267716
		  },
		  {
			"duration": 0.5172410000000021,
			"durationTicks": 120,
			"midi": 63,
			"name": "D#4",
			"ticks": 4800,
			"time": 21.40235035,
			"velocity": 0.6929133858267716
		  },
		  {
			"duration": 0.43965485000000015,
			"durationTicks": 102,
			"midi": 54,
			"name": "F#3",
			"ticks": 4920,
			"time": 21.91959135,
			"velocity": 0.6929133858267716
		  },
		  {
			"duration": 0.025862050000000636,
			"durationTicks": 6,
			"midi": 37,
			"name": "C#2",
			"ticks": 5022,
			"time": 22.3592462,
			"velocity": 0.6929133858267716
		  },
		  {
			"duration": 0.025862050000000636,
			"durationTicks": 6,
			"midi": 44,
			"name": "G#2",
			"ticks": 5028,
			"time": 22.385108250000002,
			"velocity": 0.6929133858267716
		  },
		  {
			"duration": 0.025862049999997083,
			"durationTicks": 6,
			"midi": 49,
			"name": "C#3",
			"ticks": 5034,
			"time": 22.410970300000002,
			"velocity": 0.6929133858267716
		  },
		  {
			"duration": 0.5172409999999985,
			"durationTicks": 120,
			"midi": 54,
			"name": "F#3",
			"ticks": 5040,
			"time": 22.43683235,
			"velocity": 0.6929133858267716
		  },
		  {
			"duration": 0.5172410000000021,
			"durationTicks": 120,
			"midi": 49,
			"name": "C#3",
			"ticks": 5160,
			"time": 22.954073349999998,
			"velocity": 0.6929133858267716
		  },
		  {
			"duration": 0.5172409999999985,
			"durationTicks": 120,
			"midi": 54,
			"name": "F#3",
			"ticks": 5280,
			"time": 23.47131435,
			"velocity": 0.6929133858267716
		  },
		  {
			"duration": 0.5172409999999985,
			"durationTicks": 120,
			"midi": 61,
			"name": "C#4",
			"ticks": 5280,
			"time": 23.47131435,
			"velocity": 0.6929133858267716
		  },
		  {
			"duration": 0.4396548500000037,
			"durationTicks": 102,
			"midi": 49,
			"name": "C#3",
			"ticks": 5400,
			"time": 23.98855535,
			"velocity": 0.6929133858267716
		  },
		  {
			"duration": 0.025862050000000636,
			"durationTicks": 6,
			"midi": 37,
			"name": "C#2",
			"ticks": 5502,
			"time": 24.428210200000002,
			"velocity": 0.6929133858267716
		  },
		  {
			"duration": 0.025862049999997083,
			"durationTicks": 6,
			"midi": 44,
			"name": "G#2",
			"ticks": 5508,
			"time": 24.454072250000003,
			"velocity": 0.6929133858267716
		  },
		  {
			"duration": 0.025862050000000636,
			"durationTicks": 6,
			"midi": 49,
			"name": "C#3",
			"ticks": 5514,
			"time": 24.4799343,
			"velocity": 0.6929133858267716
		  },
		  {
			"duration": 1.1881179999999993,
			"durationTicks": 240,
			"midi": 53,
			"name": "F3",
			"ticks": 5520,
			"time": 24.50579635,
			"velocity": 0.6929133858267716
		  },
		  {
			"duration": 1.1287121000000013,
			"durationTicks": 228,
			"midi": 25,
			"name": "C#1",
			"ticks": 5760,
			"time": 25.69391435,
			"velocity": 0.6929133858267716
		  },
		  {
			"duration": 0.029702950000000783,
			"durationTicks": 6,
			"midi": 41,
			"name": "F2",
			"ticks": 5988,
			"time": 26.82262645,
			"velocity": 0.6929133858267716
		  },
		  {
			"duration": 0.025862050000000636,
			"durationTicks": 6,
			"midi": 49,
			"name": "C#3",
			"ticks": 5994,
			"time": 26.852329400000002,
			"velocity": 0.6929133858267716
		  },
		  {
			"duration": 0.5172409999999985,
			"durationTicks": 120,
			"midi": 56,
			"name": "G#3",
			"ticks": 6000,
			"time": 26.878191450000003,
			"velocity": 0.6929133858267716
		  },
		  {
			"duration": 0.5172410000000021,
			"durationTicks": 120,
			"midi": 53,
			"name": "F3",
			"ticks": 6120,
			"time": 27.39543245,
			"velocity": 0.6929133858267716
		  },
		  {
			"duration": 0.5172409999999985,
			"durationTicks": 120,
			"midi": 56,
			"name": "G#3",
			"ticks": 6240,
			"time": 27.912673450000003,
			"velocity": 0.6929133858267716
		  },
		  {
			"duration": 0.5172409999999985,
			"durationTicks": 120,
			"midi": 61,
			"name": "C#4",
			"ticks": 6240,
			"time": 27.912673450000003,
			"velocity": 0.6929133858267716
		  },
		  {
			"duration": 0.5172409999999985,
			"durationTicks": 120,
			"midi": 65,
			"name": "F4",
			"ticks": 6240,
			"time": 27.912673450000003,
			"velocity": 0.6929133858267716
		  },
		  {
			"duration": 0.43965485000000015,
			"durationTicks": 102,
			"midi": 49,
			"name": "C#3",
			"ticks": 6360,
			"time": 28.429914450000002,
			"velocity": 0.6929133858267716
		  },
		  {
			"duration": 0.025862050000000636,
			"durationTicks": 6,
			"midi": 42,
			"name": "F#2",
			"ticks": 6462,
			"time": 28.869569300000002,
			"velocity": 0.6929133858267716
		  },
		  {
			"duration": 0.025862050000000636,
			"durationTicks": 6,
			"midi": 49,
			"name": "C#3",
			"ticks": 6468,
			"time": 28.895431350000003,
			"velocity": 0.6929133858267716
		  },
		  {
			"duration": 0.025862050000000636,
			"durationTicks": 6,
			"midi": 54,
			"name": "F#3",
			"ticks": 6474,
			"time": 28.921293400000003,
			"velocity": 0.6929133858267716
		  },
		  {
			"duration": 0.5172409999999985,
			"durationTicks": 120,
			"midi": 57,
			"name": "A3",
			"ticks": 6480,
			"time": 28.947155450000004,
			"velocity": 0.6929133858267716
		  },
		  {
			"duration": 0.5172409999999985,
			"durationTicks": 120,
			"midi": 49,
			"name": "C#3",
			"ticks": 6600,
			"time": 29.464396450000002,
			"velocity": 0.6929133858267716
		  },
		  {
			"duration": 0.5172410000000021,
			"durationTicks": 120,
			"midi": 54,
			"name": "F#3",
			"ticks": 6720,
			"time": 29.98163745,
			"velocity": 0.6929133858267716
		  },
		  {
			"duration": 0.5172410000000021,
			"durationTicks": 120,
			"midi": 57,
			"name": "A3",
			"ticks": 6720,
			"time": 29.98163745,
			"velocity": 0.6929133858267716
		  },
		  {
			"duration": 0.5172410000000021,
			"durationTicks": 120,
			"midi": 61,
			"name": "C#4",
			"ticks": 6720,
			"time": 29.98163745,
			"velocity": 0.6929133858267716
		  },
		  {
			"duration": 0.4655169000000008,
			"durationTicks": 108,
			"midi": 49,
			"name": "C#3",
			"ticks": 6840,
			"time": 30.498878450000003,
			"velocity": 0.6929133858267716
		  },
		  {
			"duration": 0.025862050000000636,
			"durationTicks": 6,
			"midi": 41,
			"name": "F2",
			"ticks": 6948,
			"time": 30.964395350000004,
			"velocity": 0.6929133858267716
		  },
		  {
			"duration": 0.025862050000000636,
			"durationTicks": 6,
			"midi": 49,
			"name": "C#3",
			"ticks": 6954,
			"time": 30.990257400000004,
			"velocity": 0.6929133858267716
		  },
		  {
			"duration": 0.5172409999999985,
			"durationTicks": 120,
			"midi": 56,
			"name": "G#3",
			"ticks": 6960,
			"time": 31.016119450000005,
			"velocity": 0.6929133858267716
		  },
		  {
			"duration": 0.5172409999999985,
			"durationTicks": 120,
			"midi": 53,
			"name": "F3",
			"ticks": 7080,
			"time": 31.533360450000004,
			"velocity": 0.6929133858267716
		  },
		  {
			"duration": 0.5172409999999985,
			"durationTicks": 120,
			"midi": 56,
			"name": "G#3",
			"ticks": 7200,
			"time": 32.05060145,
			"velocity": 0.6929133858267716
		  },
		  {
			"duration": 0.5172409999999985,
			"durationTicks": 120,
			"midi": 61,
			"name": "C#4",
			"ticks": 7200,
			"time": 32.05060145,
			"velocity": 0.6929133858267716
		  },
		  {
			"duration": 0.5172409999999985,
			"durationTicks": 120,
			"midi": 65,
			"name": "F4",
			"ticks": 7200,
			"time": 32.05060145,
			"velocity": 0.6929133858267716
		  },
		  {
			"duration": 0.4396548500000037,
			"durationTicks": 102,
			"midi": 49,
			"name": "C#3",
			"ticks": 7320,
			"time": 32.56784245,
			"velocity": 0.6929133858267716
		  },
		  {
			"duration": 0.025862050000000636,
			"durationTicks": 6,
			"midi": 42,
			"name": "F#2",
			"ticks": 7422,
			"time": 33.007497300000004,
			"velocity": 0.6929133858267716
		  },
		  {
			"duration": 0.025862050000000636,
			"durationTicks": 6,
			"midi": 49,
			"name": "C#3",
			"ticks": 7428,
			"time": 33.033359350000005,
			"velocity": 0.6929133858267716
		  },
		  {
			"duration": 0.025862050000000636,
			"durationTicks": 6,
			"midi": 54,
			"name": "F#3",
			"ticks": 7434,
			"time": 33.059221400000006,
			"velocity": 0.6929133858267716
		  },
		  {
			"duration": 0.5172409999999985,
			"durationTicks": 120,
			"midi": 57,
			"name": "A3",
			"ticks": 7440,
			"time": 33.085083450000006,
			"velocity": 0.6929133858267716
		  },
		  {
			"duration": 0.5172409999999985,
			"durationTicks": 120,
			"midi": 49,
			"name": "C#3",
			"ticks": 7560,
			"time": 33.602324450000005,
			"velocity": 0.6929133858267716
		  },
		  {
			"duration": 0.5172409999999985,
			"durationTicks": 120,
			"midi": 54,
			"name": "F#3",
			"ticks": 7680,
			"time": 34.11956545,
			"velocity": 0.6929133858267716
		  },
		  {
			"duration": 0.5172409999999985,
			"durationTicks": 120,
			"midi": 57,
			"name": "A3",
			"ticks": 7680,
			"time": 34.11956545,
			"velocity": 0.6929133858267716
		  },
		  {
			"duration": 0.5172409999999985,
			"durationTicks": 120,
			"midi": 61,
			"name": "C#4",
			"ticks": 7680,
			"time": 34.11956545,
			"velocity": 0.6929133858267716
		  },
		  {
			"duration": 0.46551690000000434,
			"durationTicks": 108,
			"midi": 45,
			"name": "A2",
			"ticks": 7800,
			"time": 34.63680645,
			"velocity": 0.6929133858267716
		  },
		  {
			"duration": 0.025862050000000636,
			"durationTicks": 6,
			"midi": 38,
			"name": "D2",
			"ticks": 7908,
			"time": 35.102323350000006,
			"velocity": 0.6929133858267716
		  },
		  {
			"duration": 0.025862050000000636,
			"durationTicks": 6,
			"midi": 45,
			"name": "A2",
			"ticks": 7914,
			"time": 35.12818540000001,
			"velocity": 0.6929133858267716
		  },
		  {
			"duration": 0.5172409999999985,
			"durationTicks": 120,
			"midi": 50,
			"name": "D3",
			"ticks": 7920,
			"time": 35.15404745000001,
			"velocity": 0.6929133858267716
		  },
		  {
			"duration": 0.5172409999999985,
			"durationTicks": 120,
			"midi": 47,
			"name": "B2",
			"ticks": 8040,
			"time": 35.671288450000006,
			"velocity": 0.6929133858267716
		  },
		  {
			"duration": 0.5172409999999985,
			"durationTicks": 120,
			"midi": 50,
			"name": "D3",
			"ticks": 8160,
			"time": 36.188529450000004,
			"velocity": 0.6929133858267716
		  },
		  {
			"duration": 0.5172409999999985,
			"durationTicks": 120,
			"midi": 54,
			"name": "F#3",
			"ticks": 8160,
			"time": 36.188529450000004,
			"velocity": 0.6929133858267716
		  },
		  {
			"duration": 0.5172409999999985,
			"durationTicks": 120,
			"midi": 57,
			"name": "A3",
			"ticks": 8160,
			"time": 36.188529450000004,
			"velocity": 0.6929133858267716
		  },
		  {
			"duration": 0.4396548499999966,
			"durationTicks": 102,
			"midi": 47,
			"name": "B2",
			"ticks": 8280,
			"time": 36.70577045,
			"velocity": 0.6929133858267716
		  },
		  {
			"duration": 0.025862050000000636,
			"durationTicks": 6,
			"midi": 50,
			"name": "D3",
			"ticks": 8382,
			"time": 37.1454253,
			"velocity": 0.6929133858267716
		  },
		  {
			"duration": 0.025862050000000636,
			"durationTicks": 6,
			"midi": 54,
			"name": "F#3",
			"ticks": 8388,
			"time": 37.17128735,
			"velocity": 0.6929133858267716
		  },
		  {
			"duration": 0.025862050000000636,
			"durationTicks": 6,
			"midi": 57,
			"name": "A3",
			"ticks": 8394,
			"time": 37.1971494,
			"velocity": 0.6929133858267716
		  },
		  {
			"duration": 0.9827579000000028,
			"durationTicks": 228,
			"midi": 54,
			"name": "F#3",
			"ticks": 8400,
			"time": 37.22301145,
			"velocity": 0.6929133858267716
		  },
		  {
			"duration": 0.025862050000000636,
			"durationTicks": 6,
			"midi": 37,
			"name": "C#2",
			"ticks": 8628,
			"time": 38.205769350000004,
			"velocity": 0.6929133858267716
		  },
		  {
			"duration": 0.025862050000000636,
			"durationTicks": 6,
			"midi": 44,
			"name": "G#2",
			"ticks": 8634,
			"time": 38.231631400000005,
			"velocity": 0.6929133858267716
		  },
		  {
			"duration": 0.5172409999999985,
			"durationTicks": 120,
			"midi": 52,
			"name": "E3",
			"ticks": 8640,
			"time": 38.257493450000005,
			"velocity": 0.6929133858267716
		  },
		  {
			"duration": 0.5172409999999985,
			"durationTicks": 120,
			"midi": 49,
			"name": "C#3",
			"ticks": 8760,
			"time": 38.774734450000004,
			"velocity": 0.6929133858267716
		  },
		  {
			"duration": 0.5172410000000056,
			"durationTicks": 120,
			"midi": 52,
			"name": "E3",
			"ticks": 8880,
			"time": 39.29197545,
			"velocity": 0.6929133858267716
		  },
		  {
			"duration": 0.5172410000000056,
			"durationTicks": 120,
			"midi": 56,
			"name": "G#3",
			"ticks": 8880,
			"time": 39.29197545,
			"velocity": 0.6929133858267716
		  },
		  {
			"duration": 0.5172410000000056,
			"durationTicks": 120,
			"midi": 61,
			"name": "C#4",
			"ticks": 8880,
			"time": 39.29197545,
			"velocity": 0.6929133858267716
		  },
		  {
			"duration": 0.4396548499999966,
			"durationTicks": 102,
			"midi": 49,
			"name": "C#3",
			"ticks": 9000,
			"time": 39.80921645000001,
			"velocity": 0.6929133858267716
		  },
		  {
			"duration": 0.025862050000000636,
			"durationTicks": 6,
			"midi": 42,
			"name": "F#2",
			"ticks": 9102,
			"time": 40.248871300000005,
			"velocity": 0.6929133858267716
		  },
		  {
			"duration": 0.025862050000000636,
			"durationTicks": 6,
			"midi": 49,
			"name": "C#3",
			"ticks": 9108,
			"time": 40.274733350000005,
			"velocity": 0.6929133858267716
		  },
		  {
			"duration": 0.025862050000000636,
			"durationTicks": 6,
			"midi": 54,
			"name": "F#3",
			"ticks": 9114,
			"time": 40.300595400000006,
			"velocity": 0.6929133858267716
		  },
		  {
			"duration": 0.5172409999999985,
			"durationTicks": 120,
			"midi": 58,
			"name": "A#3",
			"ticks": 9120,
			"time": 40.32645745000001,
			"velocity": 0.6929133858267716
		  },
		  {
			"duration": 0.5172409999999985,
			"durationTicks": 120,
			"midi": 49,
			"name": "C#3",
			"ticks": 9240,
			"time": 40.843698450000005,
			"velocity": 0.6929133858267716
		  },
		  {
			"duration": 0.5172409999999985,
			"durationTicks": 120,
			"midi": 54,
			"name": "F#3",
			"ticks": 9360,
			"time": 41.360939450000004,
			"velocity": 0.6929133858267716
		  },
		  {
			"duration": 0.4396548500000037,
			"durationTicks": 102,
			"midi": 49,
			"name": "C#3",
			"ticks": 9480,
			"time": 41.87818045,
			"velocity": 0.6929133858267716
		  },
		  {
			"duration": 0.02586204999999353,
			"durationTicks": 6,
			"midi": 47,
			"name": "B2",
			"ticks": 9582,
			"time": 42.317835300000006,
			"velocity": 0.6929133858267716
		  },
		  {
			"duration": 0.025862050000000636,
			"durationTicks": 6,
			"midi": 50,
			"name": "D3",
			"ticks": 9588,
			"time": 42.34369735,
			"velocity": 0.6929133858267716
		  },
		  {
			"duration": 0.025862050000000636,
			"durationTicks": 6,
			"midi": 54,
			"name": "F#3",
			"ticks": 9594,
			"time": 42.3695594,
			"velocity": 0.6929133858267716
		  },
		  {
			"duration": 0.5172409999999985,
			"durationTicks": 120,
			"midi": 59,
			"name": "B3",
			"ticks": 9600,
			"time": 42.39542145,
			"velocity": 0.6929133858267716
		  },
		  {
			"duration": 0.46551690000000434,
			"durationTicks": 108,
			"midi": 50,
			"name": "D3",
			"ticks": 9720,
			"time": 42.91266245,
			"velocity": 0.6929133858267716
		  },
		  {
			"duration": 0.025862050000000636,
			"durationTicks": 6,
			"midi": 45,
			"name": "A2",
			"ticks": 9828,
			"time": 43.37817935,
			"velocity": 0.6929133858267716
		  },
		  {
			"duration": 0.02586204999999353,
			"durationTicks": 6,
			"midi": 54,
			"name": "F#3",
			"ticks": 9834,
			"time": 43.404041400000004,
			"velocity": 0.6929133858267716
		  },
		  {
			"duration": 0.5172410000000056,
			"durationTicks": 120,
			"midi": 57,
			"name": "A3",
			"ticks": 9840,
			"time": 43.42990345,
			"velocity": 0.6929133858267716
		  },
		  {
			"duration": 0.4396548500000037,
			"durationTicks": 102,
			"midi": 50,
			"name": "D3",
			"ticks": 9960,
			"time": 43.94714445,
			"velocity": 0.6929133858267716
		  },
		  {
			"duration": 0.025862050000000636,
			"durationTicks": 6,
			"midi": 44,
			"name": "G#2",
			"ticks": 10062,
			"time": 44.38679930000001,
			"velocity": 0.6929133858267716
		  },
		  {
			"duration": 0.025862050000000636,
			"durationTicks": 6,
			"midi": 51,
			"name": "D#3",
			"ticks": 10068,
			"time": 44.41266135000001,
			"velocity": 0.6929133858267716
		  },
		  {
			"duration": 0.02586204999999353,
			"durationTicks": 6,
			"midi": 54,
			"name": "F#3",
			"ticks": 10074,
			"time": 44.43852340000001,
			"velocity": 0.6929133858267716
		  },
		  {
			"duration": 0.5172410000000056,
			"durationTicks": 120,
			"midi": 60,
			"name": "C4",
			"ticks": 10080,
			"time": 44.46438545,
			"velocity": 0.6929133858267716
		  },
		  {
			"duration": 0.4396548499999966,
			"durationTicks": 102,
			"midi": 56,
			"name": "G#3",
			"ticks": 10200,
			"time": 44.98162645000001,
			"velocity": 0.6929133858267716
		  },
		  {
			"duration": 0.025862050000000636,
			"durationTicks": 6,
			"midi": 49,
			"name": "C#3",
			"ticks": 10302,
			"time": 45.421281300000004,
			"velocity": 0.6929133858267716
		  },
		  {
			"duration": 0.025862050000000636,
			"durationTicks": 6,
			"midi": 53,
			"name": "F3",
			"ticks": 10308,
			"time": 45.447143350000005,
			"velocity": 0.6929133858267716
		  },
		  {
			"duration": 0.025862050000000636,
			"durationTicks": 6,
			"midi": 56,
			"name": "G#3",
			"ticks": 10314,
			"time": 45.473005400000005,
			"velocity": 0.6929133858267716
		  },
		  {
			"duration": 0.5172409999999985,
			"durationTicks": 120,
			"midi": 59,
			"name": "B3",
			"ticks": 10320,
			"time": 45.498867450000006,
			"velocity": 0.6929133858267716
		  },
		  {
			"duration": 0.4396548499999966,
			"durationTicks": 102,
			"midi": 56,
			"name": "G#3",
			"ticks": 10440,
			"time": 46.016108450000004,
			"velocity": 0.7165354330708661
		  },
		  {
			"duration": 0.025862050000000636,
			"durationTicks": 6,
			"midi": 42,
			"name": "F#2",
			"ticks": 10542,
			"time": 46.4557633,
			"velocity": 0.7401574803149606
		  },
		  {
			"duration": 0.025862050000000636,
			"durationTicks": 6,
			"midi": 49,
			"name": "C#3",
			"ticks": 10548,
			"time": 46.48162535,
			"velocity": 0.7401574803149606
		  },
		  {
			"duration": 0.025862050000000636,
			"durationTicks": 6,
			"midi": 54,
			"name": "F#3",
			"ticks": 10554,
			"time": 46.5074874,
			"velocity": 0.7401574803149606
		  },
		  {
			"duration": 0.5172409999999985,
			"durationTicks": 120,
			"midi": 58,
			"name": "A#3",
			"ticks": 10560,
			"time": 46.53334945,
			"velocity": 0.7401574803149606
		  },
		  {
			"duration": 0.5172409999999985,
			"durationTicks": 120,
			"midi": 42,
			"name": "F#2",
			"ticks": 10680,
			"time": 47.05059045,
			"velocity": 0.7716535433070866
		  },
		  {
			"duration": 0.5172409999999985,
			"durationTicks": 120,
			"midi": 30,
			"name": "F#1",
			"ticks": 10680,
			"time": 47.05059045,
			"velocity": 0.7716535433070866
		  },
		  {
			"duration": 0.5172409999999985,
			"durationTicks": 120,
			"midi": 44,
			"name": "G#2",
			"ticks": 10800,
			"time": 47.56783145,
			"velocity": 0.7952755905511811
		  },
		  {
			"duration": 0.5172409999999985,
			"durationTicks": 120,
			"midi": 20,
			"name": "G#0",
			"ticks": 10800,
			"time": 47.56783145,
			"velocity": 0.7952755905511811
		  },
		  {
			"duration": 0.5172410000000056,
			"durationTicks": 120,
			"midi": 46,
			"name": "A#2",
			"ticks": 10920,
			"time": 48.08507245,
			"velocity": 0.8188976377952756
		  },
		  {
			"duration": 0.5172410000000056,
			"durationTicks": 120,
			"midi": 34,
			"name": "A#1",
			"ticks": 10920,
			"time": 48.08507245,
			"velocity": 0.8188976377952756
		  },
		  {
			"duration": 0.1724136666666638,
			"durationTicks": 40,
			"midi": 59,
			"name": "B3",
			"ticks": 11040,
			"time": 48.602313450000004,
			"velocity": 0.8503937007874016
		  },
		  {
			"duration": 0.1724136666666638,
			"durationTicks": 40,
			"midi": 47,
			"name": "B2",
			"ticks": 11040,
			"time": 48.602313450000004,
			"velocity": 0.8503937007874016
		  },
		  {
			"duration": 0.1724136666666709,
			"durationTicks": 40,
			"midi": 50,
			"name": "D3",
			"ticks": 11080,
			"time": 48.77472711666667,
			"velocity": 0.8503937007874016
		  },
		  {
			"duration": 0.1724136666666638,
			"durationTicks": 40,
			"midi": 54,
			"name": "F#3",
			"ticks": 11120,
			"time": 48.94714078333334,
			"velocity": 0.8503937007874016
		  },
		  {
			"duration": 0.1724136666666638,
			"durationTicks": 40,
			"midi": 59,
			"name": "B3",
			"ticks": 11160,
			"time": 49.11955445,
			"velocity": 0.8503937007874016
		  },
		  {
			"duration": 0.1724136666666709,
			"durationTicks": 40,
			"midi": 54,
			"name": "F#3",
			"ticks": 11200,
			"time": 49.291968116666666,
			"velocity": 0.8503937007874016
		  },
		  {
			"duration": 0.1724136666666709,
			"durationTicks": 40,
			"midi": 50,
			"name": "D3",
			"ticks": 11240,
			"time": 49.46438178333334,
			"velocity": 0.8503937007874016
		  },
		  {
			"duration": 0.1724136666666638,
			"durationTicks": 40,
			"midi": 40,
			"name": "E2",
			"ticks": 11280,
			"time": 49.63679545000001,
			"velocity": 0.8503937007874016
		  },
		  {
			"duration": 0.1724136666666638,
			"durationTicks": 40,
			"midi": 47,
			"name": "B2",
			"ticks": 11320,
			"time": 49.80920911666667,
			"velocity": 0.8503937007874016
		  },
		  {
			"duration": 0.1724136666666709,
			"durationTicks": 40,
			"midi": 52,
			"name": "E3",
			"ticks": 11360,
			"time": 49.981622783333336,
			"velocity": 0.8503937007874016
		  },
		  {
			"duration": 0.1724136666666638,
			"durationTicks": 40,
			"midi": 56,
			"name": "G#3",
			"ticks": 11400,
			"time": 50.15403645000001,
			"velocity": 0.8503937007874016
		  },
		  {
			"duration": 0.1724136666666638,
			"durationTicks": 40,
			"midi": 52,
			"name": "E3",
			"ticks": 11440,
			"time": 50.32645011666667,
			"velocity": 0.8503937007874016
		  },
		  {
			"duration": 0.1724136666666709,
			"durationTicks": 40,
			"midi": 47,
			"name": "B2",
			"ticks": 11480,
			"time": 50.498863783333334,
			"velocity": 0.8503937007874016
		  },
		  {
			"duration": 0.1724136666666709,
			"durationTicks": 40,
			"midi": 45,
			"name": "A2",
			"ticks": 11520,
			"time": 50.671277450000005,
			"velocity": 0.8503937007874016
		  },
		  {
			"duration": 0.1724136666666638,
			"durationTicks": 40,
			"midi": 49,
			"name": "C#3",
			"ticks": 11560,
			"time": 50.843691116666676,
			"velocity": 0.8503937007874016
		  },
		  {
			"duration": 0.1724136666666638,
			"durationTicks": 40,
			"midi": 52,
			"name": "E3",
			"ticks": 11600,
			"time": 51.01610478333334,
			"velocity": 0.8503937007874016
		  },
		  {
			"duration": 0.1724136666666709,
			"durationTicks": 40,
			"midi": 57,
			"name": "A3",
			"ticks": 11640,
			"time": 51.188518450000004,
			"velocity": 0.8503937007874016
		  },
		  {
			"duration": 0.1724136666666638,
			"durationTicks": 40,
			"midi": 52,
			"name": "E3",
			"ticks": 11680,
			"time": 51.360932116666675,
			"velocity": 0.8503937007874016
		  },
		  {
			"duration": 0.1724136666666638,
			"durationTicks": 40,
			"midi": 49,
			"name": "C#3",
			"ticks": 11720,
			"time": 51.53334578333334,
			"velocity": 0.8503937007874016
		  },
		  {
			"duration": 0.1724136666666709,
			"durationTicks": 40,
			"midi": 42,
			"name": "F#2",
			"ticks": 11760,
			"time": 51.70575945,
			"velocity": 0.8503937007874016
		  },
		  {
			"duration": 0.1724136666666709,
			"durationTicks": 40,
			"midi": 49,
			"name": "C#3",
			"ticks": 11800,
			"time": 51.87817311666667,
			"velocity": 0.8503937007874016
		  },
		  {
			"duration": 0.1724136666666567,
			"durationTicks": 40,
			"midi": 54,
			"name": "F#3",
			"ticks": 11840,
			"time": 52.050586783333344,
			"velocity": 0.8503937007874016
		  },
		  {
			"duration": 0.1724136666666709,
			"durationTicks": 40,
			"midi": 57,
			"name": "A3",
			"ticks": 11880,
			"time": 52.22300045,
			"velocity": 0.8503937007874016
		  },
		  {
			"duration": 0.1724136666666709,
			"durationTicks": 40,
			"midi": 54,
			"name": "F#3",
			"ticks": 11920,
			"time": 52.39541411666667,
			"velocity": 0.8503937007874016
		  },
		  {
			"duration": 0.1724136666666567,
			"durationTicks": 40,
			"midi": 49,
			"name": "C#3",
			"ticks": 11960,
			"time": 52.56782778333334,
			"velocity": 0.8503937007874016
		  },
		  {
			"duration": 0.12931025000000318,
			"durationTicks": 30,
			"midi": 44,
			"name": "G#2",
			"ticks": 12000,
			"time": 52.74024145,
			"velocity": 0.8503937007874016
		  },
		  {
			"duration": 0.12931025000000318,
			"durationTicks": 30,
			"midi": 51,
			"name": "D#3",
			"ticks": 12030,
			"time": 52.8695517,
			"velocity": 0.8503937007874016
		  },
		  {
			"duration": 0.12931025000000318,
			"durationTicks": 30,
			"midi": 54,
			"name": "F#3",
			"ticks": 12060,
			"time": 52.998861950000006,
			"velocity": 0.8503937007874016
		  },
		  {
			"duration": 0.12931024999999607,
			"durationTicks": 30,
			"midi": 57,
			"name": "A3",
			"ticks": 12090,
			"time": 53.12817220000001,
			"velocity": 0.8503937007874016
		  },
		  {
			"duration": 0.12931024999999607,
			"durationTicks": 30,
			"midi": 60,
			"name": "C4",
			"ticks": 12120,
			"time": 53.257482450000005,
			"velocity": 0.8503937007874016
		  },
		  {
			"duration": 0.12931025000000318,
			"durationTicks": 30,
			"midi": 57,
			"name": "A3",
			"ticks": 12150,
			"time": 53.3867927,
			"velocity": 0.8503937007874016
		  },
		  {
			"duration": 0.12931025000000318,
			"durationTicks": 30,
			"midi": 54,
			"name": "F#3",
			"ticks": 12180,
			"time": 53.516102950000004,
			"velocity": 0.8503937007874016
		  },
		  {
			"duration": 0.12931024999999607,
			"durationTicks": 30,
			"midi": 51,
			"name": "D#3",
			"ticks": 12210,
			"time": 53.64541320000001,
			"velocity": 0.8503937007874016
		  },
		  {
			"duration": 0.12931024999999607,
			"durationTicks": 30,
			"midi": 57,
			"name": "A3",
			"ticks": 12240,
			"time": 53.77472345,
			"velocity": 0.8503937007874016
		  },
		  {
			"duration": 0.12931025000000318,
			"durationTicks": 30,
			"midi": 54,
			"name": "F#3",
			"ticks": 12270,
			"time": 53.9040337,
			"velocity": 0.8503937007874016
		  },
		  {
			"duration": 0.12931025000000318,
			"durationTicks": 30,
			"midi": 51,
			"name": "D#3",
			"ticks": 12300,
			"time": 54.03334395,
			"velocity": 0.8503937007874016
		  },
		  {
			"duration": 0.12931025000000318,
			"durationTicks": 30,
			"midi": 48,
			"name": "C3",
			"ticks": 12330,
			"time": 54.162654200000006,
			"velocity": 0.8503937007874016
		  },
		  {
			"duration": 0.12931024999999607,
			"durationTicks": 30,
			"midi": 54,
			"name": "F#3",
			"ticks": 12360,
			"time": 54.29196445000001,
			"velocity": 0.8503937007874016
		  },
		  {
			"duration": 0.12931024999999607,
			"durationTicks": 30,
			"midi": 51,
			"name": "D#3",
			"ticks": 12390,
			"time": 54.421274700000005,
			"velocity": 0.8503937007874016
		  },
		  {
			"duration": 0.12931025000000318,
			"durationTicks": 30,
			"midi": 48,
			"name": "C3",
			"ticks": 12420,
			"time": 54.55058495,
			"velocity": 0.8503937007874016
		  },
		  {
			"duration": 0.12931025000000318,
			"durationTicks": 30,
			"midi": 44,
			"name": "G#2",
			"ticks": 12450,
			"time": 54.679895200000004,
			"velocity": 0.8503937007874016
		  },
		  {
			"duration": 0.12931024999999607,
			"durationTicks": 30,
			"midi": 37,
			"name": "C#2",
			"ticks": 12480,
			"time": 54.80920545000001,
			"velocity": 0.84251968503937
		  },
		  {
			"duration": 0.12931024999999607,
			"durationTicks": 30,
			"midi": 44,
			"name": "G#2",
			"ticks": 12510,
			"time": 54.9385157,
			"velocity": 0.8346456692913385
		  },
		  {
			"duration": 0.12931025000000318,
			"durationTicks": 30,
			"midi": 49,
			"name": "C#3",
			"ticks": 12540,
			"time": 55.06782595,
			"velocity": 0.8267716535433071
		  },
		  {
			"duration": 0.12931025000000318,
			"durationTicks": 30,
			"midi": 56,
			"name": "G#3",
			"ticks": 12570,
			"time": 55.1971362,
			"velocity": 0.8188976377952756
		  },
		  {
			"duration": 0.12931025000000318,
			"durationTicks": 30,
			"midi": 61,
			"name": "C#4",
			"ticks": 12600,
			"time": 55.326446450000006,
			"velocity": 0.8031496062992126
		  },
		  {
			"duration": 0.12931024999999607,
			"durationTicks": 30,
			"midi": 56,
			"name": "G#3",
			"ticks": 12630,
			"time": 55.45575670000001,
			"velocity": 0.7952755905511811
		  },
		  {
			"duration": 0.12931024999999607,
			"durationTicks": 30,
			"midi": 54,
			"name": "F#3",
			"ticks": 12660,
			"time": 55.585066950000005,
			"velocity": 0.7874015748031497
		  },
		  {
			"duration": 0.12931025000000318,
			"durationTicks": 30,
			"midi": 49,
			"name": "C#3",
			"ticks": 12690,
			"time": 55.7143772,
			"velocity": 0.7795275590551181
		  },
		  {
			"duration": 0.12931025000000318,
			"durationTicks": 30,
			"midi": 56,
			"name": "G#3",
			"ticks": 12720,
			"time": 55.843687450000004,
			"velocity": 0.7716535433070866
		  },
		  {
			"duration": 0.12931024999999607,
			"durationTicks": 30,
			"midi": 54,
			"name": "F#3",
			"ticks": 12750,
			"time": 55.97299770000001,
			"velocity": 0.7559055118110236
		  },
		  {
			"duration": 0.12931024999999607,
			"durationTicks": 30,
			"midi": 49,
			"name": "C#3",
			"ticks": 12780,
			"time": 56.102307950000004,
			"velocity": 0.7480314960629921
		  },
		  {
			"duration": 0.12931025000000318,
			"durationTicks": 30,
			"midi": 44,
			"name": "G#2",
			"ticks": 12810,
			"time": 56.2316182,
			"velocity": 0.7401574803149606
		  },
		  {
			"duration": 0.12931025000000318,
			"durationTicks": 30,
			"midi": 54,
			"name": "F#3",
			"ticks": 12840,
			"time": 56.36092845,
			"velocity": 0.7322834645669292
		  },
		  {
			"duration": 0.12931025000000318,
			"durationTicks": 30,
			"midi": 49,
			"name": "C#3",
			"ticks": 12870,
			"time": 56.490238700000006,
			"velocity": 0.7244094488188977
		  },
		  {
			"duration": 0.12931024999999607,
			"durationTicks": 30,
			"midi": 44,
			"name": "G#2",
			"ticks": 12900,
			"time": 56.61954895000001,
			"velocity": 0.7086614173228346
		  },
		  {
			"duration": 0.12931024999999607,
			"durationTicks": 30,
			"midi": 42,
			"name": "F#2",
			"ticks": 12930,
			"time": 56.748859200000005,
			"velocity": 0.7007874015748031
		  },
		  {
			"duration": 0.12931025000000318,
			"durationTicks": 30,
			"midi": 37,
			"name": "C#2",
			"ticks": 12960,
			"time": 56.87816945,
			"velocity": 0.6929133858267716
		  },
		  {
			"duration": 0.12931025000000318,
			"durationTicks": 30,
			"midi": 44,
			"name": "G#2",
			"ticks": 12990,
			"time": 57.007479700000005,
			"velocity": 0.6850393700787402
		  },
		  {
			"duration": 0.12931024999999607,
			"durationTicks": 30,
			"midi": 49,
			"name": "C#3",
			"ticks": 13020,
			"time": 57.13678995000001,
			"velocity": 0.6692913385826772
		  },
		  {
			"duration": 0.12931024999999607,
			"durationTicks": 30,
			"midi": 53,
			"name": "F3",
			"ticks": 13050,
			"time": 57.266100200000004,
			"velocity": 0.6614173228346457
		  },
		  {
			"duration": 0.12931025000000318,
			"durationTicks": 30,
			"midi": 56,
			"name": "G#3",
			"ticks": 13080,
			"time": 57.39541045,
			"velocity": 0.6535433070866141
		  },
		  {
			"duration": 0.12931025000000318,
			"durationTicks": 30,
			"midi": 53,
			"name": "F3",
			"ticks": 13110,
			"time": 57.5247207,
			"velocity": 0.6456692913385826
		  },
		  {
			"duration": 0.12931025000000318,
			"durationTicks": 30,
			"midi": 49,
			"name": "C#3",
			"ticks": 13140,
			"time": 57.654030950000006,
			"velocity": 0.6377952755905512
		  },
		  {
			"duration": 0.12931024999999607,
			"durationTicks": 30,
			"midi": 44,
			"name": "G#2",
			"ticks": 13170,
			"time": 57.78334120000001,
			"velocity": 0.6220472440944882
		  },
		  {
			"duration": 0.12931024999999607,
			"durationTicks": 30,
			"midi": 53,
			"name": "F3",
			"ticks": 13200,
			"time": 57.912651450000006,
			"velocity": 0.6141732283464567
		  },
		  {
			"duration": 0.12931025000000318,
			"durationTicks": 30,
			"midi": 49,
			"name": "C#3",
			"ticks": 13230,
			"time": 58.0419617,
			"velocity": 0.6062992125984252
		  },
		  {
			"duration": 0.12931025000000318,
			"durationTicks": 30,
			"midi": 44,
			"name": "G#2",
			"ticks": 13260,
			"time": 58.171271950000005,
			"velocity": 0.5984251968503937
		  },
		  {
			"duration": 0.12931024999999607,
			"durationTicks": 30,
			"midi": 37,
			"name": "C#2",
			"ticks": 13290,
			"time": 58.30058220000001,
			"velocity": 0.5905511811023622
		  },
		  {
			"duration": 0.12931024999999607,
			"durationTicks": 30,
			"midi": 49,
			"name": "C#3",
			"ticks": 13320,
			"time": 58.429892450000004,
			"velocity": 0.5748031496062992
		  },
		  {
			"duration": 0.12931025000000318,
			"durationTicks": 30,
			"midi": 44,
			"name": "G#2",
			"ticks": 13350,
			"time": 58.5592027,
			"velocity": 0.5669291338582677
		  },
		  {
			"duration": 0.12931025000000318,
			"durationTicks": 30,
			"midi": 37,
			"name": "C#2",
			"ticks": 13380,
			"time": 58.68851295,
			"velocity": 0.5590551181102362
		  },
		  {
			"duration": 0.14253712499998983,
			"durationTicks": 30,
			"midi": 32,
			"name": "G#1",
			"ticks": 13410,
			"time": 58.81782320000001,
			"velocity": 0.5511811023622047
		  },
		  {
			"duration": 1.857615983333332,
			"durationTicks": 320,
			"midi": 25,
			"name": "C#1",
			"ticks": 13440,
			"time": 58.960360324999996,
			"velocity": 0.8503937007874016
		  },
		  {
			"duration": 0.1724136666666638,
			"durationTicks": 40,
			"midi": 41,
			"name": "F2",
			"ticks": 13920,
			"time": 61.619475333333355,
			"velocity": 0.8503937007874016
		  },
		  {
			"duration": 0.1724136666666709,
			"durationTicks": 40,
			"midi": 49,
			"name": "C#3",
			"ticks": 13960,
			"time": 61.79188900000002,
			"velocity": 0.8503937007874016
		  },
		  {
			"duration": 0.1724136666666638,
			"durationTicks": 40,
			"midi": 53,
			"name": "F3",
			"ticks": 14000,
			"time": 61.96430266666669,
			"velocity": 0.8503937007874016
		  },
		  {
			"duration": 0.1724136666666709,
			"durationTicks": 40,
			"midi": 56,
			"name": "G#3",
			"ticks": 14040,
			"time": 62.136716333333354,
			"velocity": 0.8503937007874016
		  },
		  {
			"duration": 0.1724136666666638,
			"durationTicks": 40,
			"midi": 53,
			"name": "F3",
			"ticks": 14080,
			"time": 62.309130000000025,
			"velocity": 0.8503937007874016
		  },
		  {
			"duration": 0.1724136666666638,
			"durationTicks": 40,
			"midi": 49,
			"name": "C#3",
			"ticks": 14120,
			"time": 62.48154366666669,
			"velocity": 0.8503937007874016
		  },
		  {
			"duration": 0.1724136666666709,
			"durationTicks": 40,
			"midi": 61,
			"name": "C#4",
			"ticks": 14160,
			"time": 62.65395733333335,
			"velocity": 0.8503937007874016
		  },
		  {
			"duration": 0.1724136666666638,
			"durationTicks": 40,
			"midi": 53,
			"name": "F3",
			"ticks": 14200,
			"time": 62.82637100000002,
			"velocity": 0.8503937007874016
		  },
		  {
			"duration": 0.1724136666666709,
			"durationTicks": 40,
			"midi": 49,
			"name": "C#3",
			"ticks": 14240,
			"time": 62.99878466666669,
			"velocity": 0.8503937007874016
		  },
		  {
			"duration": 0.1724136666666638,
			"durationTicks": 40,
			"midi": 56,
			"name": "G#3",
			"ticks": 14280,
			"time": 63.17119833333336,
			"velocity": 0.8503937007874016
		  },
		  {
			"duration": 0.1724136666666638,
			"durationTicks": 40,
			"midi": 53,
			"name": "F3",
			"ticks": 14320,
			"time": 63.34361200000002,
			"velocity": 0.8503937007874016
		  },
		  {
			"duration": 0.1724136666666709,
			"durationTicks": 40,
			"midi": 49,
			"name": "C#3",
			"ticks": 14360,
			"time": 63.516025666666685,
			"velocity": 0.8503937007874016
		  },
		  {
			"duration": 0.1724136666666638,
			"durationTicks": 40,
			"midi": 42,
			"name": "F#2",
			"ticks": 14400,
			"time": 63.688439333333356,
			"velocity": 0.8503937007874016
		  },
		  {
			"duration": 0.1724136666666709,
			"durationTicks": 40,
			"midi": 49,
			"name": "C#3",
			"ticks": 14440,
			"time": 63.86085300000002,
			"velocity": 0.8503937007874016
		  },
		  {
			"duration": 0.1724136666666709,
			"durationTicks": 40,
			"midi": 54,
			"name": "F#3",
			"ticks": 14480,
			"time": 64.03326666666669,
			"velocity": 0.8503937007874016
		  },
		  {
			"duration": 0.1724136666666567,
			"durationTicks": 40,
			"midi": 57,
			"name": "A3",
			"ticks": 14520,
			"time": 64.20568033333336,
			"velocity": 0.8503937007874016
		  },
		  {
			"duration": 0.1724136666666709,
			"durationTicks": 40,
			"midi": 54,
			"name": "F#3",
			"ticks": 14560,
			"time": 64.37809400000002,
			"velocity": 0.8503937007874016
		  },
		  {
			"duration": 0.1724136666666709,
			"durationTicks": 40,
			"midi": 49,
			"name": "C#3",
			"ticks": 14600,
			"time": 64.55050766666669,
			"velocity": 0.8503937007874016
		  },
		  {
			"duration": 0.1724136666666567,
			"durationTicks": 40,
			"midi": 61,
			"name": "C#4",
			"ticks": 14640,
			"time": 64.72292133333336,
			"velocity": 0.8503937007874016
		  },
		  {
			"duration": 0.1724136666666709,
			"durationTicks": 40,
			"midi": 54,
			"name": "F#3",
			"ticks": 14680,
			"time": 64.89533500000002,
			"velocity": 0.8503937007874016
		  },
		  {
			"duration": 0.1724136666666709,
			"durationTicks": 40,
			"midi": 49,
			"name": "C#3",
			"ticks": 14720,
			"time": 65.06774866666669,
			"velocity": 0.8503937007874016
		  },
		  {
			"duration": 0.1724136666666567,
			"durationTicks": 40,
			"midi": 57,
			"name": "A3",
			"ticks": 14760,
			"time": 65.24016233333336,
			"velocity": 0.8503937007874016
		  },
		  {
			"duration": 0.1724136666666709,
			"durationTicks": 40,
			"midi": 54,
			"name": "F#3",
			"ticks": 14800,
			"time": 65.41257600000002,
			"velocity": 0.8503937007874016
		  },
		  {
			"duration": 0.1724136666666709,
			"durationTicks": 40,
			"midi": 49,
			"name": "C#3",
			"ticks": 14840,
			"time": 65.58498966666669,
			"velocity": 0.8503937007874016
		  },
		  {
			"duration": 0.1724136666666709,
			"durationTicks": 40,
			"midi": 41,
			"name": "F2",
			"ticks": 14880,
			"time": 65.75740333333336,
			"velocity": 0.8503937007874016
		  },
		  {
			"duration": 0.1724136666666567,
			"durationTicks": 40,
			"midi": 49,
			"name": "C#3",
			"ticks": 14920,
			"time": 65.92981700000003,
			"velocity": 0.8503937007874016
		  },
		  {
			"duration": 0.1724136666666709,
			"durationTicks": 40,
			"midi": 53,
			"name": "F3",
			"ticks": 14960,
			"time": 66.10223066666669,
			"velocity": 0.8503937007874016
		  },
		  {
			"duration": 0.1724136666666709,
			"durationTicks": 40,
			"midi": 56,
			"name": "G#3",
			"ticks": 15000,
			"time": 66.27464433333336,
			"velocity": 0.8503937007874016
		  },
		  {
			"duration": 0.1724136666666567,
			"durationTicks": 40,
			"midi": 53,
			"name": "F3",
			"ticks": 15040,
			"time": 66.44705800000003,
			"velocity": 0.8503937007874016
		  },
		  {
			"duration": 0.1724136666666709,
			"durationTicks": 40,
			"midi": 49,
			"name": "C#3",
			"ticks": 15080,
			"time": 66.61947166666668,
			"velocity": 0.8503937007874016
		  },
		  {
			"duration": 0.1724136666666709,
			"durationTicks": 40,
			"midi": 61,
			"name": "C#4",
			"ticks": 15120,
			"time": 66.79188533333335,
			"velocity": 0.8503937007874016
		  },
		  {
			"duration": 0.1724136666666567,
			"durationTicks": 40,
			"midi": 53,
			"name": "F3",
			"ticks": 15160,
			"time": 66.96429900000003,
			"velocity": 0.8503937007874016
		  },
		  {
			"duration": 0.1724136666666709,
			"durationTicks": 40,
			"midi": 49,
			"name": "C#3",
			"ticks": 15200,
			"time": 67.13671266666668,
			"velocity": 0.8503937007874016
		  },
		  {
			"duration": 0.1724136666666709,
			"durationTicks": 40,
			"midi": 56,
			"name": "G#3",
			"ticks": 15240,
			"time": 67.30912633333335,
			"velocity": 0.8503937007874016
		  },
		  {
			"duration": 0.1724136666666709,
			"durationTicks": 40,
			"midi": 53,
			"name": "F3",
			"ticks": 15280,
			"time": 67.48154000000002,
			"velocity": 0.8503937007874016
		  },
		  {
			"duration": 0.1724136666666567,
			"durationTicks": 40,
			"midi": 49,
			"name": "C#3",
			"ticks": 15320,
			"time": 67.6539536666667,
			"velocity": 0.8503937007874016
		  },
		  {
			"duration": 0.1724136666666709,
			"durationTicks": 40,
			"midi": 42,
			"name": "F#2",
			"ticks": 15360,
			"time": 67.82636733333335,
			"velocity": 0.8503937007874016
		  },
		  {
			"duration": 0.1724136666666709,
			"durationTicks": 40,
			"midi": 49,
			"name": "C#3",
			"ticks": 15400,
			"time": 67.99878100000002,
			"velocity": 0.8503937007874016
		  },
		  {
			"duration": 0.1724136666666567,
			"durationTicks": 40,
			"midi": 54,
			"name": "F#3",
			"ticks": 15440,
			"time": 68.1711946666667,
			"velocity": 0.8503937007874016
		  },
		  {
			"duration": 0.1724136666666709,
			"durationTicks": 40,
			"midi": 57,
			"name": "A3",
			"ticks": 15480,
			"time": 68.34360833333335,
			"velocity": 0.8503937007874016
		  },
		  {
			"duration": 0.1724136666666709,
			"durationTicks": 40,
			"midi": 54,
			"name": "F#3",
			"ticks": 15520,
			"time": 68.51602200000002,
			"velocity": 0.8503937007874016
		  },
		  {
			"duration": 0.1724136666666709,
			"durationTicks": 40,
			"midi": 49,
			"name": "C#3",
			"ticks": 15560,
			"time": 68.68843566666669,
			"velocity": 0.8503937007874016
		  },
		  {
			"duration": 0.1724136666666567,
			"durationTicks": 40,
			"midi": 61,
			"name": "C#4",
			"ticks": 15600,
			"time": 68.86084933333336,
			"velocity": 0.8503937007874016
		  },
		  {
			"duration": 0.1724136666666709,
			"durationTicks": 40,
			"midi": 54,
			"name": "F#3",
			"ticks": 15640,
			"time": 69.03326300000002,
			"velocity": 0.8503937007874016
		  },
		  {
			"duration": 0.1724136666666709,
			"durationTicks": 40,
			"midi": 49,
			"name": "C#3",
			"ticks": 15680,
			"time": 69.20567666666669,
			"velocity": 0.8503937007874016
		  },
		  {
			"duration": 0.1724136666666567,
			"durationTicks": 40,
			"midi": 57,
			"name": "A3",
			"ticks": 15720,
			"time": 69.37809033333336,
			"velocity": 0.8503937007874016
		  },
		  {
			"duration": 0.1724136666666709,
			"durationTicks": 40,
			"midi": 54,
			"name": "F#3",
			"ticks": 15760,
			"time": 69.55050400000002,
			"velocity": 0.8503937007874016
		  },
		  {
			"duration": 0.1724136666666709,
			"durationTicks": 40,
			"midi": 49,
			"name": "C#3",
			"ticks": 15800,
			"time": 69.72291766666669,
			"velocity": 0.8503937007874016
		  },
		  {
			"duration": 0.1724136666666567,
			"durationTicks": 40,
			"midi": 38,
			"name": "D2",
			"ticks": 15840,
			"time": 69.89533133333336,
			"velocity": 0.8503937007874016
		  },
		  {
			"duration": 0.1724136666666709,
			"durationTicks": 40,
			"midi": 45,
			"name": "A2",
			"ticks": 15880,
			"time": 70.06774500000002,
			"velocity": 0.8503937007874016
		  },
		  {
			"duration": 0.1724136666666709,
			"durationTicks": 40,
			"midi": 50,
			"name": "D3",
			"ticks": 15920,
			"time": 70.24015866666669,
			"velocity": 0.8503937007874016
		  },
		  {
			"duration": 0.1724136666666567,
			"durationTicks": 40,
			"midi": 45,
			"name": "A2",
			"ticks": 15960,
			"time": 70.41257233333336,
			"velocity": 0.8503937007874016
		  },
		  {
			"duration": 0.1724136666666709,
			"durationTicks": 40,
			"midi": 50,
			"name": "D3",
			"ticks": 16000,
			"time": 70.58498600000001,
			"velocity": 0.8503937007874016
		  },
		  {
			"duration": 0.1724136666666709,
			"durationTicks": 40,
			"midi": 54,
			"name": "F#3",
			"ticks": 16040,
			"time": 70.75739966666669,
			"velocity": 0.8503937007874016
		  },
		  {
			"duration": 0.1724136666666709,
			"durationTicks": 40,
			"midi": 47,
			"name": "B2",
			"ticks": 16080,
			"time": 70.92981333333336,
			"velocity": 0.8503937007874016
		  },
		  {
			"duration": 0.1724136666666567,
			"durationTicks": 40,
			"midi": 50,
			"name": "D3",
			"ticks": 16120,
			"time": 71.10222700000003,
			"velocity": 0.8503937007874016
		  },
		  {
			"duration": 0.1724136666666709,
			"durationTicks": 40,
			"midi": 54,
			"name": "F#3",
			"ticks": 16160,
			"time": 71.27464066666668,
			"velocity": 0.8503937007874016
		  },
		  {
			"duration": 0.1724136666666709,
			"durationTicks": 40,
			"midi": 57,
			"name": "A3",
			"ticks": 16200,
			"time": 71.44705433333336,
			"velocity": 0.8503937007874016
		  },
		  {
			"duration": 0.1724136666666567,
			"durationTicks": 40,
			"midi": 54,
			"name": "F#3",
			"ticks": 16240,
			"time": 71.61946800000003,
			"velocity": 0.8503937007874016
		  },
		  {
			"duration": 0.1724136666666709,
			"durationTicks": 40,
			"midi": 50,
			"name": "D3",
			"ticks": 16280,
			"time": 71.79188166666668,
			"velocity": 0.8503937007874016
		  },
		  {
			"duration": 0.1724136666666709,
			"durationTicks": 40,
			"midi": 59,
			"name": "B3",
			"ticks": 16320,
			"time": 71.96429533333335,
			"velocity": 0.8503937007874016
		  },
		  {
			"duration": 0.1724136666666709,
			"durationTicks": 40,
			"midi": 54,
			"name": "F#3",
			"ticks": 16360,
			"time": 72.13670900000002,
			"velocity": 0.8503937007874016
		  },
		  {
			"duration": 0.1724136666666567,
			"durationTicks": 40,
			"midi": 50,
			"name": "D3",
			"ticks": 16400,
			"time": 72.3091226666667,
			"velocity": 0.8503937007874016
		  },
		  {
			"duration": 0.1724136666666709,
			"durationTicks": 40,
			"midi": 57,
			"name": "A3",
			"ticks": 16440,
			"time": 72.48153633333335,
			"velocity": 0.8503937007874016
		  },
		  {
			"duration": 0.1724136666666709,
			"durationTicks": 40,
			"midi": 54,
			"name": "F#3",
			"ticks": 16480,
			"time": 72.65395000000002,
			"velocity": 0.8503937007874016
		  },
		  {
			"duration": 0.1724136666666567,
			"durationTicks": 40,
			"midi": 50,
			"name": "D3",
			"ticks": 16520,
			"time": 72.8263636666667,
			"velocity": 0.8503937007874016
		  },
		  {
			"duration": 0.1724136666666709,
			"durationTicks": 40,
			"midi": 37,
			"name": "C#2",
			"ticks": 16560,
			"time": 72.99877733333335,
			"velocity": 0.8503937007874016
		  },
		  {
			"duration": 0.1724136666666709,
			"durationTicks": 40,
			"midi": 44,
			"name": "G#2",
			"ticks": 16600,
			"time": 73.17119100000002,
			"velocity": 0.8503937007874016
		  },
		  {
			"duration": 0.1724136666666709,
			"durationTicks": 40,
			"midi": 49,
			"name": "C#3",
			"ticks": 16640,
			"time": 73.34360466666669,
			"velocity": 0.8503937007874016
		  },
		  {
			"duration": 0.1724136666666567,
			"durationTicks": 40,
			"midi": 52,
			"name": "E3",
			"ticks": 16680,
			"time": 73.51601833333336,
			"velocity": 0.8503937007874016
		  },
		  {
			"duration": 0.1724136666666709,
			"durationTicks": 40,
			"midi": 49,
			"name": "C#3",
			"ticks": 16720,
			"time": 73.68843200000002,
			"velocity": 0.8503937007874016
		  },
		  {
			"duration": 0.1724136666666709,
			"durationTicks": 40,
			"midi": 44,
			"name": "G#2",
			"ticks": 16760,
			"time": 73.86084566666669,
			"velocity": 0.8503937007874016
		  },
		  {
			"duration": 0.1724136666666567,
			"durationTicks": 40,
			"midi": 56,
			"name": "G#3",
			"ticks": 16800,
			"time": 74.03325933333336,
			"velocity": 0.8503937007874016
		  },
		  {
			"duration": 0.1724136666666709,
			"durationTicks": 40,
			"midi": 37,
			"name": "C#2",
			"ticks": 16840,
			"time": 74.20567300000002,
			"velocity": 0.8503937007874016
		  },
		  {
			"duration": 0.1724136666666709,
			"durationTicks": 40,
			"midi": 44,
			"name": "G#2",
			"ticks": 16880,
			"time": 74.37808666666669,
			"velocity": 0.8503937007874016
		  },
		  {
			"duration": 0.1724136666666567,
			"durationTicks": 40,
			"midi": 52,
			"name": "E3",
			"ticks": 16920,
			"time": 74.55050033333336,
			"velocity": 0.8503937007874016
		  },
		  {
			"duration": 0.1724136666666709,
			"durationTicks": 40,
			"midi": 37,
			"name": "C#2",
			"ticks": 16960,
			"time": 74.72291400000002,
			"velocity": 0.8503937007874016
		  },
		  {
			"duration": 0.1724136666666709,
			"durationTicks": 40,
			"midi": 44,
			"name": "G#2",
			"ticks": 17000,
			"time": 74.89532766666669,
			"velocity": 0.8503937007874016
		  },
		  {
			"duration": 0.1724136666666567,
			"durationTicks": 40,
			"midi": 42,
			"name": "F#2",
			"ticks": 17040,
			"time": 75.06774133333336,
			"velocity": 0.8503937007874016
		  },
		  {
			"duration": 0.1724136666666709,
			"durationTicks": 40,
			"midi": 49,
			"name": "C#3",
			"ticks": 17080,
			"time": 75.24015500000002,
			"velocity": 0.8503937007874016
		  },
		  {
			"duration": 0.1724136666666709,
			"durationTicks": 40,
			"midi": 54,
			"name": "F#3",
			"ticks": 17120,
			"time": 75.41256866666669,
			"velocity": 0.8503937007874016
		  },
		  {
			"duration": 0.1724136666666709,
			"durationTicks": 40,
			"midi": 58,
			"name": "A#3",
			"ticks": 17160,
			"time": 75.58498233333336,
			"velocity": 0.8503937007874016
		  },
		  {
			"duration": 0.1724136666666567,
			"durationTicks": 40,
			"midi": 54,
			"name": "F#3",
			"ticks": 17200,
			"time": 75.75739600000003,
			"velocity": 0.8503937007874016
		  },
		  {
			"duration": 0.1724136666666709,
			"durationTicks": 40,
			"midi": 49,
			"name": "C#3",
			"ticks": 17240,
			"time": 75.92980966666669,
			"velocity": 0.8503937007874016
		  },
		  {
			"duration": 0.1724136666666709,
			"durationTicks": 40,
			"midi": 54,
			"name": "F#3",
			"ticks": 17280,
			"time": 76.10222333333336,
			"velocity": 0.8503937007874016
		  },
		  {
			"duration": 0.1724136666666567,
			"durationTicks": 40,
			"midi": 49,
			"name": "C#3",
			"ticks": 17320,
			"time": 76.27463700000003,
			"velocity": 0.8503937007874016
		  },
		  {
			"duration": 0.1724136666666709,
			"durationTicks": 40,
			"midi": 42,
			"name": "F#2",
			"ticks": 17360,
			"time": 76.44705066666668,
			"velocity": 0.8503937007874016
		  },
		  {
			"duration": 0.1724136666666709,
			"durationTicks": 40,
			"midi": 58,
			"name": "A#3",
			"ticks": 17400,
			"time": 76.61946433333335,
			"velocity": 0.8503937007874016
		  },
		  {
			"duration": 0.1724136666666709,
			"durationTicks": 40,
			"midi": 54,
			"name": "F#3",
			"ticks": 17440,
			"time": 76.79187800000003,
			"velocity": 0.8503937007874016
		  },
		  {
			"duration": 0.1727135333333365,
			"durationTicks": 40,
			"midi": 49,
			"name": "C#3",
			"ticks": 17480,
			"time": 76.9642916666667,
			"velocity": 0.8503937007874016
		  },
		  {
			"duration": 0.1745231333333379,
			"durationTicks": 40,
			"midi": 47,
			"name": "B2",
			"ticks": 17520,
			"time": 77.13700520000003,
			"velocity": 0.8503937007874016
		  },
		  {
			"duration": 0.1763699333333335,
			"durationTicks": 40,
			"midi": 54,
			"name": "F#3",
			"ticks": 17560,
			"time": 77.31152833333337,
			"velocity": 0.8503937007874016
		  },
		  {
			"duration": 0.17825526666668168,
			"durationTicks": 40,
			"midi": 59,
			"name": "B3",
			"ticks": 17600,
			"time": 77.4878982666667,
			"velocity": 0.8503937007874016
		  },
		  {
			"duration": 0.18050760000001276,
			"durationTicks": 40,
			"midi": 62,
			"name": "D4",
			"ticks": 17640,
			"time": 77.66615353333339,
			"velocity": 0.8503937007874016
		  },
		  {
			"duration": 0.1824851999999879,
			"durationTicks": 40,
			"midi": 59,
			"name": "B3",
			"ticks": 17680,
			"time": 77.8466611333334,
			"velocity": 0.8503937007874016
		  },
		  {
			"duration": 0.18450540000000615,
			"durationTicks": 40,
			"midi": 54,
			"name": "F#3",
			"ticks": 17720,
			"time": 78.02914633333339,
			"velocity": 0.8503937007874016
		  },
		  {
			"duration": 0.1865695333333406,
			"durationTicks": 40,
			"midi": 45,
			"name": "A2",
			"ticks": 17760,
			"time": 78.21365173333339,
			"velocity": 0.8503937007874016
		  },
		  {
			"duration": 0.18903839999998695,
			"durationTicks": 40,
			"midi": 54,
			"name": "F#3",
			"ticks": 17800,
			"time": 78.40022126666673,
			"velocity": 0.8503937007874016
		  },
		  {
			"duration": 0.19120866666666814,
			"durationTicks": 40,
			"midi": 59,
			"name": "B3",
			"ticks": 17840,
			"time": 78.58925966666672,
			"velocity": 0.8503937007874016
		  },
		  {
			"duration": 0.19342786666666711,
			"durationTicks": 40,
			"midi": 62,
			"name": "D4",
			"ticks": 17880,
			"time": 78.78046833333339,
			"velocity": 0.8503937007874016
		  },
		  {
			"duration": 0.19569759999998837,
			"durationTicks": 40,
			"midi": 59,
			"name": "B3",
			"ticks": 17920,
			"time": 78.97389620000006,
			"velocity": 0.8503937007874016
		  },
		  {
			"duration": 0.1984157333333485,
			"durationTicks": 40,
			"midi": 54,
			"name": "F#3",
			"ticks": 17960,
			"time": 79.16959380000004,
			"velocity": 0.8503937007874016
		  },
		  {
			"duration": 0.200807999999995,
			"durationTicks": 40,
			"midi": 44,
			"name": "G#2",
			"ticks": 18000,
			"time": 79.36800953333339,
			"velocity": 0.8503937007874016
		  },
		  {
			"duration": 0.20325680000000546,
			"durationTicks": 40,
			"midi": 51,
			"name": "D#3",
			"ticks": 18040,
			"time": 79.56881753333339,
			"velocity": 0.8503937007874016
		  },
		  {
			"duration": 0.20576453333332267,
			"durationTicks": 40,
			"midi": 54,
			"name": "F#3",
			"ticks": 18080,
			"time": 79.77207433333339,
			"velocity": 0.8503937007874016
		  },
		  {
			"duration": 0.2083333333333286,
			"durationTicks": 40,
			"midi": 56,
			"name": "G#3",
			"ticks": 18120,
			"time": 79.97783886666672,
			"velocity": 0.8503937007874016
		  },
		  {
			"duration": 0.2083333333333428,
			"durationTicks": 40,
			"midi": 54,
			"name": "F#3",
			"ticks": 18160,
			"time": 80.18617220000004,
			"velocity": 0.8503937007874016
		  },
		  {
			"duration": 0.2083333333333286,
			"durationTicks": 40,
			"midi": 51,
			"name": "D#3",
			"ticks": 18200,
			"time": 80.39450553333339,
			"velocity": 0.8503937007874016
		  },
		  {
			"duration": 0.2083333333333286,
			"durationTicks": 40,
			"midi": 37,
			"name": "C#2",
			"ticks": 18240,
			"time": 80.60283886666672,
			"velocity": 0.8503937007874016
		  },
		  {
			"duration": 0.2083333333333428,
			"durationTicks": 40,
			"midi": 44,
			"name": "G#2",
			"ticks": 18280,
			"time": 80.81117220000004,
			"velocity": 0.8503937007874016
		  },
		  {
			"duration": 0.2083333333333286,
			"durationTicks": 40,
			"midi": 49,
			"name": "C#3",
			"ticks": 18320,
			"time": 81.01950553333339,
			"velocity": 0.8503937007874016
		  },
		  {
			"duration": 0.2083333333333286,
			"durationTicks": 40,
			"midi": 53,
			"name": "F3",
			"ticks": 18360,
			"time": 81.22783886666672,
			"velocity": 0.8503937007874016
		  },
		  {
			"duration": 0.2083333333333428,
			"durationTicks": 40,
			"midi": 49,
			"name": "C#3",
			"ticks": 18400,
			"time": 81.43617220000004,
			"velocity": 0.8503937007874016
		  },
		  {
			"duration": 0.2083333333333286,
			"durationTicks": 40,
			"midi": 44,
			"name": "G#2",
			"ticks": 18440,
			"time": 81.64450553333339,
			"velocity": 0.8503937007874016
		  },
		  {
			"duration": 0.20899113333332764,
			"durationTicks": 40,
			"midi": 42,
			"name": "F#2",
			"ticks": 18480,
			"time": 81.85283886666672,
			"velocity": 0.8267716535433071
		  },
		  {
			"duration": 0.21052600000000155,
			"durationTicks": 40,
			"midi": 49,
			"name": "C#3",
			"ticks": 18520,
			"time": 82.06183000000004,
			"velocity": 0.8031496062992126
		  },
		  {
			"duration": 0.21186980000001654,
			"durationTicks": 40,
			"midi": 54,
			"name": "F#3",
			"ticks": 18560,
			"time": 82.27235600000004,
			"velocity": 0.7795275590551181
		  },
		  {
			"duration": 0.21276566666666952,
			"durationTicks": 40,
			"midi": 49,
			"name": "C#3",
			"ticks": 18600,
			"time": 82.48422580000006,
			"velocity": 0.7559055118110236
		  },
		  {
			"duration": 0.21482486666666034,
			"durationTicks": 40,
			"midi": 54,
			"name": "F#3",
			"ticks": 18640,
			"time": 82.69699146666673,
			"velocity": 0.7322834645669292
		  },
		  {
			"duration": 0.2402439749999985,
			"durationTicks": 40,
			"midi": 57,
			"name": "A3",
			"ticks": 18680,
			"time": 82.91181633333339,
			"velocity": 0.7086614173228346
		  },
		  {
			"duration": 0.27117651666667086,
			"durationTicks": 40,
			"midi": 54,
			"name": "F#3",
			"ticks": 18720,
			"time": 83.15206030833339,
			"velocity": 0.6850393700787402
		  },
		  {
			"duration": 0.2970080000000337,
			"durationTicks": 40,
			"midi": 57,
			"name": "A3",
			"ticks": 18760,
			"time": 83.42323682500006,
			"velocity": 0.6614173228346457
		  },
		  {
			"duration": 0.35032697500000154,
			"durationTicks": 40,
			"midi": 61,
			"name": "C#4",
			"ticks": 18800,
			"time": 83.7202448250001,
			"velocity": 0.6377952755905512
		  },
		  {
			"duration": 0.40612024166664185,
			"durationTicks": 40,
			"midi": 57,
			"name": "A3",
			"ticks": 18840,
			"time": 84.0705718000001,
			"velocity": 0.6141732283464567
		  },
		  {
			"duration": 0.4631654166666834,
			"durationTicks": 40,
			"midi": 61,
			"name": "C#4",
			"ticks": 18880,
			"time": 84.47669204166674,
			"velocity": 0.5905511811023622
		  },
		  {
			"duration": 0.5555553333333307,
			"durationTicks": 40,
			"midi": 66,
			"name": "F#4",
			"ticks": 18920,
			"time": 84.93985745833342,
			"velocity": 0.5669291338582677
		  },
		  {
			"duration": 0.08333330000000672,
			"durationTicks": 6,
			"midi": 42,
			"name": "F#2",
			"ticks": 18960,
			"time": 85.49541279166675,
			"velocity": 0.5354330708661418
		  },
		  {
			"duration": 0.0833332999999925,
			"durationTicks": 6,
			"midi": 49,
			"name": "C#3",
			"ticks": 18966,
			"time": 85.57874609166676,
			"velocity": 0.5354330708661418
		  },
		  {
			"duration": 0.08333330000000672,
			"durationTicks": 6,
			"midi": 54,
			"name": "F#3",
			"ticks": 18972,
			"time": 85.66207939166675,
			"velocity": 0.5354330708661418
		  },
		  {
			"duration": 0.0833332999999925,
			"durationTicks": 6,
			"midi": 57,
			"name": "A3",
			"ticks": 18978,
			"time": 85.74541269166676,
			"velocity": 0.5354330708661418
		  },
		  {
			"duration": 4.032980033333359,
			"durationTicks": 696,
			"midi": 49,
			"name": "C#3",
			"ticks": 18984,
			"time": 85.82874599166675,
			"velocity": 0.5354330708661418
		  }
		]
	  }
	]
  }