{
	"header": {
	  "keySignatures": [
		{
		  "key": "C",
		  "scale": "major",
		  "ticks": 0
		}
	  ],
	  "meta": [
		{
		  "text": "Vivaldi",
		  "ticks": 0,
		  "type": "text"
		}
	  ],
	  "name": "'Spring' from the Four Seasons",
	  "ppq": 960,
	  "tempos": [
		{
		  "bpm": 120,
		  "ticks": 0
		},
		{
		  "bpm": 120,
		  "ticks": 2880
		}
	  ],
	  "timeSignatures": [
		{
		  "ticks": 0,
		  "timeSignature": [
			4,
			4
		  ],
		  "measures": 0
		}
	  ]
	},
	"tracks": [
	  {
		"channel": 1,
		"controlChanges": {},
		"pitchBends": [],
		"instrument": {
		  "family": "piano",
		  "name": "acoustic grand piano",
		  "number": 0
		},
		"name": "",
		"notes": [
		  {
			"duration": 0.5,
			"durationTicks": 960,
			"midi": 60,
			"name": "C4",
			"ticks": 2880,
			"time": 1.5,
			"velocity": 0.6456692913385826
		  },
		  {
			"duration": 0.4744791666666668,
			"durationTicks": 911,
			"midi": 60,
			"name": "C4",
			"ticks": 6720,
			"time": 3.5,
			"velocity": 0.7086614173228346
		  },
		  {
			"duration": 0.5,
			"durationTicks": 960,
			"midi": 60,
			"name": "C4",
			"ticks": 14400,
			"time": 7.5,
			"velocity": 0.6614173228346457
		  },
		  {
			"duration": 2,
			"durationTicks": 3840,
			"midi": 60,
			"name": "C4",
			"ticks": 19200,
			"time": 10,
			"velocity": 0.7480314960629921
		  },
		  {
			"duration": 1.5,
			"durationTicks": 2880,
			"midi": 55,
			"name": "G3",
			"ticks": 23040,
			"time": 12,
			"velocity": 0.7165354330708661
		  },
		  {
			"duration": 0.5,
			"durationTicks": 960,
			"midi": 60,
			"name": "C4",
			"ticks": 25920,
			"time": 13.5,
			"velocity": 0.4330708661417323
		  },
		  {
			"duration": 0.5,
			"durationTicks": 960,
			"midi": 60,
			"name": "C4",
			"ticks": 29760,
			"time": 15.5,
			"velocity": 0.33858267716535434
		  },
		  {
			"duration": 0.5,
			"durationTicks": 960,
			"midi": 60,
			"name": "C4",
			"ticks": 37440,
			"time": 19.5,
			"velocity": 0.33858267716535434
		  },
		  {
			"duration": 2,
			"durationTicks": 3840,
			"midi": 60,
			"name": "C4",
			"ticks": 42240,
			"time": 22,
			"velocity": 0.3543307086614173
		  },
		  {
			"duration": 1.5,
			"durationTicks": 2880,
			"midi": 55,
			"name": "G3",
			"ticks": 46080,
			"time": 24,
			"velocity": 0.36220472440944884
		  },
		  {
			"duration": 0.5,
			"durationTicks": 960,
			"midi": 60,
			"name": "C4",
			"ticks": 48960,
			"time": 25.5,
			"velocity": 0.8661417322834646
		  },
		  {
			"duration": 0.5,
			"durationTicks": 960,
			"midi": 60,
			"name": "C4",
			"ticks": 56640,
			"time": 29.5,
			"velocity": 0.6929133858267716
		  },
		  {
			"duration": 0.47447916666666856,
			"durationTicks": 911,
			"midi": 60,
			"name": "C4",
			"ticks": 64320,
			"time": 33.5,
			"velocity": 0.7086614173228346
		  },
		  {
			"duration": 0.5,
			"durationTicks": 960,
			"midi": 60,
			"name": "C4",
			"ticks": 83520,
			"time": 43.5,
			"velocity": 0.3700787401574803
		  },
		  {
			"duration": 0.47447916666666856,
			"durationTicks": 911,
			"midi": 60,
			"name": "C4",
			"ticks": 91200,
			"time": 47.5,
			"velocity": 0.30708661417322836
		  }
		]
	  },
	  {
		"channel": 0,
		"controlChanges": {
		  "7": [
			{
			  "number": 7,
			  "ticks": 2880,
			  "time": 1.5,
			  "value": 0.7874015748031497
			},
			{
			  "number": 7,
			  "ticks": 2880,
			  "time": 1.5,
			  "value": 0.7874015748031497
			}
		  ],
		  "10": [
			{
			  "number": 10,
			  "ticks": 2880,
			  "time": 1.5,
			  "value": 0.5590551181102362
			},
			{
			  "number": 10,
			  "ticks": 2880,
			  "time": 1.5,
			  "value": 0.5590551181102362
			}
		  ],
		  "64": [
			{
			  "number": 64,
			  "ticks": 2880,
			  "time": 1.5,
			  "value": 0
			},
			{
			  "number": 64,
			  "ticks": 2880,
			  "time": 1.5,
			  "value": 0
			}
		  ],
		  "91": [
			{
			  "number": 91,
			  "ticks": 2880,
			  "time": 1.5,
			  "value": 0.41732283464566927
			},
			{
			  "number": 91,
			  "ticks": 2880,
			  "time": 1.5,
			  "value": 0.41732283464566927
			}
		  ],
		  "121": [
			{
			  "number": 121,
			  "ticks": 2880,
			  "time": 1.5,
			  "value": 0
			},
			{
			  "number": 121,
			  "ticks": 2880,
			  "time": 1.5,
			  "value": 0
			}
		  ]
		},
		"pitchBends": [],
		"instrument": {
		  "family": "piano",
		  "name": "acoustic grand piano",
		  "number": 0
		},
		"name": "",
		"notes": [
		  {
			"duration": 0.5,
			"durationTicks": 960,
			"midi": 64,
			"name": "E4",
			"ticks": 3840,
			"time": 2,
			"velocity": 0.6850393700787402
		  },
		  {
			"duration": 0.5,
			"durationTicks": 960,
			"midi": 64,
			"name": "E4",
			"ticks": 4800,
			"time": 2.5,
			"velocity": 0.7559055118110236
		  },
		  {
			"duration": 0.5,
			"durationTicks": 960,
			"midi": 64,
			"name": "E4",
			"ticks": 5760,
			"time": 3,
			"velocity": 0.7952755905511811
		  },
		  {
			"duration": 1.5,
			"durationTicks": 2880,
			"midi": 67,
			"name": "G4",
			"ticks": 7680,
			"time": 4,
			"velocity": 0.6850393700787402
		  },
		  {
			"duration": 0.25416666666666643,
			"durationTicks": 488,
			"midi": 67,
			"name": "G4",
			"ticks": 10560,
			"time": 5.5,
			"velocity": 0.7244094488188977
		  },
		  {
			"duration": 0.25416666666666643,
			"durationTicks": 488,
			"midi": 65,
			"name": "F4",
			"ticks": 11040,
			"time": 5.75,
			"velocity": 0.6692913385826772
		  },
		  {
			"duration": 0.5,
			"durationTicks": 960,
			"midi": 64,
			"name": "E4",
			"ticks": 11520,
			"time": 6,
			"velocity": 0.7559055118110236
		  },
		  {
			"duration": 0.5,
			"durationTicks": 960,
			"midi": 64,
			"name": "E4",
			"ticks": 12480,
			"time": 6.5,
			"velocity": 0.7480314960629921
		  },
		  {
			"duration": 0.5098958333333332,
			"durationTicks": 979,
			"midi": 64,
			"name": "E4",
			"ticks": 13440,
			"time": 7,
			"velocity": 0.7795275590551181
		  },
		  {
			"duration": 1.4239583333333332,
			"durationTicks": 2734,
			"midi": 67,
			"name": "G4",
			"ticks": 15360,
			"time": 8,
			"velocity": 0.6692913385826772
		  },
		  {
			"duration": 0.25416666666666643,
			"durationTicks": 488,
			"midi": 67,
			"name": "G4",
			"ticks": 18240,
			"time": 9.5,
			"velocity": 0.7322834645669292
		  },
		  {
			"duration": 0.25416666666666643,
			"durationTicks": 488,
			"midi": 65,
			"name": "F4",
			"ticks": 18720,
			"time": 9.75,
			"velocity": 0.7244094488188977
		  },
		  {
			"duration": 0.5098958333333332,
			"durationTicks": 979,
			"midi": 64,
			"name": "E4",
			"ticks": 19200,
			"time": 10,
			"velocity": 0.7165354330708661
		  },
		  {
			"duration": 0.25416666666666643,
			"durationTicks": 488,
			"midi": 65,
			"name": "F4",
			"ticks": 20160,
			"time": 10.5,
			"velocity": 0.7637795275590551
		  },
		  {
			"duration": 0.25416666666666643,
			"durationTicks": 488,
			"midi": 67,
			"name": "G4",
			"ticks": 20640,
			"time": 10.75,
			"velocity": 0.8110236220472441
		  },
		  {
			"duration": 0.5098958333333332,
			"durationTicks": 979,
			"midi": 65,
			"name": "F4",
			"ticks": 21120,
			"time": 11,
			"velocity": 0.8110236220472441
		  },
		  {
			"duration": 0.5098958333333332,
			"durationTicks": 979,
			"midi": 64,
			"name": "E4",
			"ticks": 22080,
			"time": 11.5,
			"velocity": 0.7637795275590551
		  },
		  {
			"duration": 0.9494791666666664,
			"durationTicks": 1823,
			"midi": 62,
			"name": "D4",
			"ticks": 23040,
			"time": 12,
			"velocity": 0.7795275590551181
		  },
		  {
			"duration": 0.5,
			"durationTicks": 960,
			"midi": 64,
			"name": "E4",
			"ticks": 26880,
			"time": 14,
			"velocity": 0.3543307086614173
		  },
		  {
			"duration": 0.5,
			"durationTicks": 960,
			"midi": 64,
			"name": "E4",
			"ticks": 27840,
			"time": 14.5,
			"velocity": 0.3464566929133858
		  },
		  {
			"duration": 0.5098958333333332,
			"durationTicks": 979,
			"midi": 64,
			"name": "E4",
			"ticks": 28800,
			"time": 15,
			"velocity": 0.3779527559055118
		  },
		  {
			"duration": 1.4239583333333314,
			"durationTicks": 2734,
			"midi": 67,
			"name": "G4",
			"ticks": 30720,
			"time": 16,
			"velocity": 0.3464566929133858
		  },
		  {
			"duration": 0.25416666666666643,
			"durationTicks": 488,
			"midi": 67,
			"name": "G4",
			"ticks": 33600,
			"time": 17.5,
			"velocity": 0.3858267716535433
		  },
		  {
			"duration": 0.25416666666666643,
			"durationTicks": 488,
			"midi": 65,
			"name": "F4",
			"ticks": 34080,
			"time": 17.75,
			"velocity": 0.3543307086614173
		  },
		  {
			"duration": 0.5,
			"durationTicks": 960,
			"midi": 64,
			"name": "E4",
			"ticks": 34560,
			"time": 18,
			"velocity": 0.33070866141732286
		  },
		  {
			"duration": 0.5,
			"durationTicks": 960,
			"midi": 64,
			"name": "E4",
			"ticks": 35520,
			"time": 18.5,
			"velocity": 0.3543307086614173
		  },
		  {
			"duration": 0.509895833333335,
			"durationTicks": 979,
			"midi": 64,
			"name": "E4",
			"ticks": 36480,
			"time": 19,
			"velocity": 0.3858267716535433
		  },
		  {
			"duration": 1.423958333333335,
			"durationTicks": 2734,
			"midi": 67,
			"name": "G4",
			"ticks": 38400,
			"time": 20,
			"velocity": 0.3228346456692913
		  },
		  {
			"duration": 0.25416666666666643,
			"durationTicks": 488,
			"midi": 67,
			"name": "G4",
			"ticks": 41280,
			"time": 21.5,
			"velocity": 0.3543307086614173
		  },
		  {
			"duration": 0.25416666666666643,
			"durationTicks": 488,
			"midi": 65,
			"name": "F4",
			"ticks": 41760,
			"time": 21.75,
			"velocity": 0.33070866141732286
		  },
		  {
			"duration": 0.509895833333335,
			"durationTicks": 979,
			"midi": 64,
			"name": "E4",
			"ticks": 42240,
			"time": 22,
			"velocity": 0.3543307086614173
		  },
		  {
			"duration": 0.25416666666666643,
			"durationTicks": 488,
			"midi": 65,
			"name": "F4",
			"ticks": 43200,
			"time": 22.5,
			"velocity": 0.3543307086614173
		  },
		  {
			"duration": 0.25416666666666643,
			"durationTicks": 488,
			"midi": 67,
			"name": "G4",
			"ticks": 43680,
			"time": 22.75,
			"velocity": 0.4094488188976378
		  },
		  {
			"duration": 0.509895833333335,
			"durationTicks": 979,
			"midi": 65,
			"name": "F4",
			"ticks": 44160,
			"time": 23,
			"velocity": 0.3779527559055118
		  },
		  {
			"duration": 0.509895833333335,
			"durationTicks": 979,
			"midi": 64,
			"name": "E4",
			"ticks": 45120,
			"time": 23.5,
			"velocity": 0.3543307086614173
		  },
		  {
			"duration": 1.423958333333335,
			"durationTicks": 2734,
			"midi": 62,
			"name": "D4",
			"ticks": 46080,
			"time": 24,
			"velocity": 0.33858267716535434
		  },
		  {
			"duration": 0.509895833333335,
			"durationTicks": 979,
			"midi": 67,
			"name": "G4",
			"ticks": 49920,
			"time": 26,
			"velocity": 0.6771653543307087
		  },
		  {
			"duration": 0.25416666666666643,
			"durationTicks": 488,
			"midi": 65,
			"name": "F4",
			"ticks": 50880,
			"time": 26.5,
			"velocity": 0.6377952755905512
		  },
		  {
			"duration": 0.25416666666666643,
			"durationTicks": 488,
			"midi": 64,
			"name": "E4",
			"ticks": 51360,
			"time": 26.75,
			"velocity": 0.7086614173228346
		  },
		  {
			"duration": 0.509895833333335,
			"durationTicks": 979,
			"midi": 65,
			"name": "F4",
			"ticks": 51840,
			"time": 27,
			"velocity": 0.7480314960629921
		  },
		  {
			"duration": 0.509895833333335,
			"durationTicks": 979,
			"midi": 67,
			"name": "G4",
			"ticks": 52800,
			"time": 27.5,
			"velocity": 0.8188976377952756
		  },
		  {
			"duration": 0.509895833333335,
			"durationTicks": 979,
			"midi": 69,
			"name": "A4",
			"ticks": 53760,
			"time": 28,
			"velocity": 0.8818897637795275
		  },
		  {
			"duration": 0.9494791666666664,
			"durationTicks": 1823,
			"midi": 67,
			"name": "G4",
			"ticks": 54720,
			"time": 28.5,
			"velocity": 0.6929133858267716
		  },
		  {
			"duration": 0.509895833333335,
			"durationTicks": 979,
			"midi": 67,
			"name": "G4",
			"ticks": 57600,
			"time": 30,
			"velocity": 0.6929133858267716
		  },
		  {
			"duration": 0.25416666666666643,
			"durationTicks": 488,
			"midi": 65,
			"name": "F4",
			"ticks": 58560,
			"time": 30.5,
			"velocity": 0.6456692913385826
		  },
		  {
			"duration": 0.25416666666666643,
			"durationTicks": 488,
			"midi": 64,
			"name": "E4",
			"ticks": 59040,
			"time": 30.75,
			"velocity": 0.7401574803149606
		  },
		  {
			"duration": 0.509895833333335,
			"durationTicks": 979,
			"midi": 65,
			"name": "F4",
			"ticks": 59520,
			"time": 31,
			"velocity": 0.7874015748031497
		  },
		  {
			"duration": 0.5098958333333314,
			"durationTicks": 979,
			"midi": 67,
			"name": "G4",
			"ticks": 60480,
			"time": 31.5,
			"velocity": 0.8031496062992126
		  },
		  {
			"duration": 0.5098958333333314,
			"durationTicks": 979,
			"midi": 69,
			"name": "A4",
			"ticks": 61440,
			"time": 32,
			"velocity": 0.8503937007874016
		  },
		  {
			"duration": 0.9494791666666629,
			"durationTicks": 1823,
			"midi": 67,
			"name": "G4",
			"ticks": 62400,
			"time": 32.5,
			"velocity": 0.7401574803149606
		  },
		  {
			"duration": 0.5,
			"durationTicks": 960,
			"midi": 69,
			"name": "A4",
			"ticks": 65280,
			"time": 34,
			"velocity": 0.6771653543307087
		  },
		  {
			"duration": 1,
			"durationTicks": 1920,
			"midi": 67,
			"name": "G4",
			"ticks": 66240,
			"time": 34.5,
			"velocity": 0.7007874015748031
		  },
		  {
			"duration": 0.5,
			"durationTicks": 960,
			"midi": 65,
			"name": "F4",
			"ticks": 68160,
			"time": 35.5,
			"velocity": 0.6850393700787402
		  },
		  {
			"duration": 0.5098958333333314,
			"durationTicks": 979,
			"midi": 64,
			"name": "E4",
			"ticks": 69120,
			"time": 36,
			"velocity": 0.7559055118110236
		  },
		  {
			"duration": 0.5,
			"durationTicks": 960,
			"midi": 62,
			"name": "D4",
			"ticks": 70080,
			"time": 36.5,
			"velocity": 0.7165354330708661
		  },
		  {
			"duration": 0.94947916666667,
			"durationTicks": 1823,
			"midi": 62,
			"name": "D4",
			"ticks": 71040,
			"time": 37,
			"velocity": 0.7480314960629921
		  },
		  {
			"duration": 1.5,
			"durationTicks": 2880,
			"midi": 60,
			"name": "C4",
			"ticks": 72960,
			"time": 38,
			"velocity": 0.7559055118110236
		  },
		  {
			"duration": 0.47447916666666856,
			"durationTicks": 911,
			"midi": 60,
			"name": "C4",
			"ticks": 75840,
			"time": 39.5,
			"velocity": 0.3700787401574803
		  },
		  {
			"duration": 0.5,
			"durationTicks": 960,
			"midi": 67,
			"name": "G4",
			"ticks": 76800,
			"time": 40,
			"velocity": 0.4330708661417323
		  },
		  {
			"duration": 0.25,
			"durationTicks": 480,
			"midi": 65,
			"name": "F4",
			"ticks": 77760,
			"time": 40.5,
			"velocity": 0.3543307086614173
		  },
		  {
			"duration": 0.25,
			"durationTicks": 480,
			"midi": 64,
			"name": "E4",
			"ticks": 78240,
			"time": 40.75,
			"velocity": 0.3937007874015748
		  },
		  {
			"duration": 0.5,
			"durationTicks": 960,
			"midi": 65,
			"name": "F4",
			"ticks": 78720,
			"time": 41,
			"velocity": 0.41732283464566927
		  },
		  {
			"duration": 0.5,
			"durationTicks": 960,
			"midi": 67,
			"name": "G4",
			"ticks": 79680,
			"time": 41.5,
			"velocity": 0.4015748031496063
		  },
		  {
			"duration": 0.5,
			"durationTicks": 960,
			"midi": 69,
			"name": "A4",
			"ticks": 80640,
			"time": 42,
			"velocity": 0.3937007874015748
		  },
		  {
			"duration": 1,
			"durationTicks": 1920,
			"midi": 67,
			"name": "G4",
			"ticks": 81600,
			"time": 42.5,
			"velocity": 0.4015748031496063
		  },
		  {
			"duration": 0.5098958333333314,
			"durationTicks": 979,
			"midi": 67,
			"name": "G4",
			"ticks": 84480,
			"time": 44,
			"velocity": 0.3543307086614173
		  },
		  {
			"duration": 0.25416666666667,
			"durationTicks": 488,
			"midi": 65,
			"name": "F4",
			"ticks": 85440,
			"time": 44.5,
			"velocity": 0.33858267716535434
		  },
		  {
			"duration": 0.25416666666667,
			"durationTicks": 488,
			"midi": 64,
			"name": "E4",
			"ticks": 85920,
			"time": 44.75,
			"velocity": 0.36220472440944884
		  },
		  {
			"duration": 0.5098958333333314,
			"durationTicks": 979,
			"midi": 65,
			"name": "F4",
			"ticks": 86400,
			"time": 45,
			"velocity": 0.3779527559055118
		  },
		  {
			"duration": 0.5098958333333314,
			"durationTicks": 979,
			"midi": 67,
			"name": "G4",
			"ticks": 87360,
			"time": 45.5,
			"velocity": 0.4566929133858268
		  },
		  {
			"duration": 0.5098958333333314,
			"durationTicks": 979,
			"midi": 69,
			"name": "A4",
			"ticks": 88320,
			"time": 46,
			"velocity": 0.5118110236220472
		  },
		  {
			"duration": 0.94947916666667,
			"durationTicks": 1823,
			"midi": 67,
			"name": "G4",
			"ticks": 89280,
			"time": 46.5,
			"velocity": 0.3700787401574803
		  },
		  {
			"duration": 0.5,
			"durationTicks": 960,
			"midi": 69,
			"name": "A4",
			"ticks": 92160,
			"time": 48,
			"velocity": 0.33070866141732286
		  },
		  {
			"duration": 1,
			"durationTicks": 1920,
			"midi": 67,
			"name": "G4",
			"ticks": 93120,
			"time": 48.5,
			"velocity": 0.4409448818897638
		  },
		  {
			"duration": 0.5098958333333314,
			"durationTicks": 979,
			"midi": 65,
			"name": "F4",
			"ticks": 95040,
			"time": 49.5,
			"velocity": 0.5039370078740157
		  },
		  {
			"duration": 0.5098958333333314,
			"durationTicks": 979,
			"midi": 64,
			"name": "E4",
			"ticks": 96000,
			"time": 50,
			"velocity": 0.5433070866141733
		  },
		  {
			"duration": 0.5,
			"durationTicks": 960,
			"midi": 62,
			"name": "D4",
			"ticks": 96960,
			"time": 50.5,
			"velocity": 0.5826771653543307
		  },
		  {
			"duration": 0.94947916666667,
			"durationTicks": 1823,
			"midi": 62,
			"name": "D4",
			"ticks": 97920,
			"time": 51,
			"velocity": 0.6535433070866141
		  },
		  {
			"duration": 1.5,
			"durationTicks": 2880,
			"midi": 60,
			"name": "C4",
			"ticks": 99840,
			"time": 52,
			"velocity": 0.7165354330708661
		  }
		]
	  }
	]
  }