{
	"header": {
	  "keySignatures": [
		{
		  "key": "F",
		  "scale": "major",
		  "ticks": 0
		}
	  ],
	  "meta": [],
	  "name": "",
	  "ppq": 120,
	  "tempos": [
		{
		  "bpm": 70.00007000007,
		  "ticks": 0
		},
		{
		  "bpm": 69.00001725000432,
		  "ticks": 10176
		},
		{
		  "bpm": 68.0000725334107,
		  "ticks": 10272
		},
		{
		  "bpm": 67.00002903334591,
		  "ticks": 10368
		},
		{
		  "bpm": 66.000066000066,
		  "ticks": 10464
		},
		{
		  "bpm": 65.000065000065,
		  "ticks": 10560
		},
		{
		  "bpm": 70.00007000007,
		  "ticks": 11520
		},
		{
		  "bpm": 71.00003550001774,
		  "ticks": 18731
		},
		{
		  "bpm": 72.00002880001152,
		  "ticks": 18743
		},
		{
		  "bpm": 73.00007178340392,
		  "ticks": 18755
		},
		{
		  "bpm": 74.000074000074,
		  "ticks": 18766
		},
		{
		  "bpm": 75,
		  "ticks": 18778
		},
		{
		  "bpm": 76.00006586672374,
		  "ticks": 18790
		},
		{
		  "bpm": 77.000077000077,
		  "ticks": 18802
		},
		{
		  "bpm": 78.000078000078,
		  "ticks": 18813
		},
		{
		  "bpm": 79.00006978339498,
		  "ticks": 18825
		},
		{
		  "bpm": 80,
		  "ticks": 18837
		},
		{
		  "bpm": 81.000081000081,
		  "ticks": 18848
		},
		{
		  "bpm": 82.00003553334874,
		  "ticks": 18860
		},
		{
		  "bpm": 83.0000650167176,
		  "ticks": 18872
		},
		{
		  "bpm": 84.000084000084,
		  "ticks": 18884
		},
		{
		  "bpm": 85.00004250002125,
		  "ticks": 18895
		},
		{
		  "bpm": 86.00005160003096,
		  "ticks": 18907
		},
		{
		  "bpm": 87.00002175000543,
		  "ticks": 18919
		},
		{
		  "bpm": 88.00002346667293,
		  "ticks": 18930
		},
		{
		  "bpm": 89.00004005001803,
		  "ticks": 18942
		},
		{
		  "bpm": 90.00009000009,
		  "ticks": 18954
		},
		{
		  "bpm": 91.000091000091,
		  "ticks": 18966
		},
		{
		  "bpm": 92.00012880018032,
		  "ticks": 18977
		},
		{
		  "bpm": 93.00004185001883,
		  "ticks": 18989
		},
		{
		  "bpm": 94.00012846684224,
		  "ticks": 19001
		},
		{
		  "bpm": 95.00014250021376,
		  "ticks": 19012
		},
		{
		  "bpm": 96,
		  "ticks": 19024
		},
		{
		  "bpm": 97.00010993345792,
		  "ticks": 19036
		},
		{
		  "bpm": 98.00014373354415,
		  "ticks": 19048
		},
		{
		  "bpm": 99.000099000099,
		  "ticks": 19059
		},
		{
		  "bpm": 100,
		  "ticks": 19071
		},
		{
		  "bpm": 101.00006901671382,
		  "ticks": 19083
		},
		{
		  "bpm": 102.0000510000255,
		  "ticks": 19095
		},
		{
		  "bpm": 101.00006901671382,
		  "ticks": 19281
		},
		{
		  "bpm": 100,
		  "ticks": 19287
		},
		{
		  "bpm": 99.000099000099,
		  "ticks": 19293
		},
		{
		  "bpm": 98.00014373354415,
		  "ticks": 19299
		},
		{
		  "bpm": 97.00010993345792,
		  "ticks": 19305
		},
		{
		  "bpm": 96,
		  "ticks": 19311
		},
		{
		  "bpm": 95.00014250021376,
		  "ticks": 19317
		},
		{
		  "bpm": 94.00012846684224,
		  "ticks": 19323
		},
		{
		  "bpm": 93.00004185001883,
		  "ticks": 19329
		},
		{
		  "bpm": 92.00012880018032,
		  "ticks": 19335
		},
		{
		  "bpm": 91.000091000091,
		  "ticks": 19341
		},
		{
		  "bpm": 90.00009000009,
		  "ticks": 19347
		},
		{
		  "bpm": 89.00004005001803,
		  "ticks": 19353
		},
		{
		  "bpm": 88.00002346667293,
		  "ticks": 19359
		},
		{
		  "bpm": 87.00002175000543,
		  "ticks": 19365
		},
		{
		  "bpm": 86.00005160003096,
		  "ticks": 19371
		},
		{
		  "bpm": 85.00004250002125,
		  "ticks": 19377
		},
		{
		  "bpm": 84.000084000084,
		  "ticks": 19383
		},
		{
		  "bpm": 83.0000650167176,
		  "ticks": 19389
		},
		{
		  "bpm": 82.00003553334874,
		  "ticks": 19395
		},
		{
		  "bpm": 81.000081000081,
		  "ticks": 19401
		},
		{
		  "bpm": 80,
		  "ticks": 19407
		},
		{
		  "bpm": 79.00006978339498,
		  "ticks": 19413
		},
		{
		  "bpm": 78.000078000078,
		  "ticks": 19419
		},
		{
		  "bpm": 77.000077000077,
		  "ticks": 19425
		},
		{
		  "bpm": 76.00006586672374,
		  "ticks": 19431
		},
		{
		  "bpm": 75,
		  "ticks": 19437
		},
		{
		  "bpm": 74.000074000074,
		  "ticks": 19443
		},
		{
		  "bpm": 73.00007178340392,
		  "ticks": 19449
		},
		{
		  "bpm": 72.00002880001152,
		  "ticks": 19455
		},
		{
		  "bpm": 80,
		  "ticks": 19470
		},
		{
		  "bpm": 70.00007000007,
		  "ticks": 19680
		}
	  ],
	  "timeSignatures": [
		{
		  "ticks": 0,
		  "timeSignature": [
			4,
			4
		  ],
		  "measures": 0
		}
	  ]
	},
	"tracks": [
	  {
		"channel": 0,
		"controlChanges": {
		  "64": [
			{
			  "number": 64,
			  "ticks": 0,
			  "time": 0,
			  "value": 0.007874015748031496
			},
			{
			  "number": 64,
			  "ticks": 29280,
			  "time": 208.47120024166668,
			  "value": 0
			},
			{
			  "number": 64,
			  "ticks": 29280,
			  "time": 208.47120024166668,
			  "value": 0.007874015748031496
			}
		  ]
		},
		"pitchBends": [],
		"instrument": {
		  "family": "piano",
		  "name": "acoustic grand piano",
		  "number": 0
		},
		"name": "tr1",
		"notes": [
		  {
			"duration": 0.8571420000000001,
			"durationTicks": 120,
			"midi": 101,
			"name": "F7",
			"ticks": 0,
			"time": 0,
			"velocity": 0.5905511811023622
		  },
		  {
			"duration": 0.8571420000000001,
			"durationTicks": 120,
			"midi": 93,
			"name": "A6",
			"ticks": 120,
			"time": 0.8571420000000001,
			"velocity": 0.5905511811023622
		  },
		  {
			"duration": 0.8571420000000001,
			"durationTicks": 120,
			"midi": 100,
			"name": "E7",
			"ticks": 240,
			"time": 1.7142840000000001,
			"velocity": 0.5905511811023622
		  },
		  {
			"duration": 0.8571420000000001,
			"durationTicks": 120,
			"midi": 93,
			"name": "A6",
			"ticks": 360,
			"time": 2.571426,
			"velocity": 0.5905511811023622
		  },
		  {
			"duration": 0.8571419999999996,
			"durationTicks": 120,
			"midi": 98,
			"name": "D7",
			"ticks": 480,
			"time": 3.4285680000000003,
			"velocity": 0.5905511811023622
		  },
		  {
			"duration": 0.8571420000000005,
			"durationTicks": 120,
			"midi": 91,
			"name": "G6",
			"ticks": 600,
			"time": 4.28571,
			"velocity": 0.5905511811023622
		  },
		  {
			"duration": 0.8571420000000005,
			"durationTicks": 120,
			"midi": 96,
			"name": "C7",
			"ticks": 720,
			"time": 5.142852,
			"velocity": 0.5905511811023622
		  },
		  {
			"duration": 0.8571419999999996,
			"durationTicks": 120,
			"midi": 89,
			"name": "F6",
			"ticks": 840,
			"time": 5.999994000000001,
			"velocity": 0.5905511811023622
		  },
		  {
			"duration": 0.8571419999999996,
			"durationTicks": 120,
			"midi": 94,
			"name": "A#6",
			"ticks": 960,
			"time": 6.857136000000001,
			"velocity": 0.5905511811023622
		  },
		  {
			"duration": 0.8571419999999996,
			"durationTicks": 120,
			"midi": 86,
			"name": "D6",
			"ticks": 1080,
			"time": 7.714278,
			"velocity": 0.5905511811023622
		  },
		  {
			"duration": 0.8571420000000014,
			"durationTicks": 120,
			"midi": 86,
			"name": "D6",
			"ticks": 1200,
			"time": 8.57142,
			"velocity": 0.5905511811023622
		  },
		  {
			"duration": 0.8571420000000014,
			"durationTicks": 120,
			"midi": 93,
			"name": "A6",
			"ticks": 1200,
			"time": 8.57142,
			"velocity": 0.5905511811023622
		  },
		  {
			"duration": 0.8571419999999996,
			"durationTicks": 120,
			"midi": 86,
			"name": "D6",
			"ticks": 1320,
			"time": 9.428562000000001,
			"velocity": 0.5905511811023622
		  },
		  {
			"duration": 0.8571419999999996,
			"durationTicks": 120,
			"midi": 77,
			"name": "F5",
			"ticks": 1320,
			"time": 9.428562000000001,
			"velocity": 0.5905511811023622
		  },
		  {
			"duration": 0.8571419999999996,
			"durationTicks": 120,
			"midi": 91,
			"name": "G6",
			"ticks": 1440,
			"time": 10.285704,
			"velocity": 0.5905511811023622
		  },
		  {
			"duration": 0.8571419999999996,
			"durationTicks": 120,
			"midi": 82,
			"name": "A#5",
			"ticks": 1440,
			"time": 10.285704,
			"velocity": 0.5905511811023622
		  },
		  {
			"duration": 0.8571420000000014,
			"durationTicks": 120,
			"midi": 89,
			"name": "F6",
			"ticks": 1560,
			"time": 11.142846,
			"velocity": 0.5905511811023622
		  },
		  {
			"duration": 0.8571419999999996,
			"durationTicks": 120,
			"midi": 88,
			"name": "E6",
			"ticks": 1680,
			"time": 11.999988000000002,
			"velocity": 0.5905511811023622
		  },
		  {
			"duration": 0.8571419999999996,
			"durationTicks": 120,
			"midi": 82,
			"name": "A#5",
			"ticks": 1680,
			"time": 11.999988000000002,
			"velocity": 0.5905511811023622
		  },
		  {
			"duration": 0.8571419999999996,
			"durationTicks": 120,
			"midi": 79,
			"name": "G5",
			"ticks": 1800,
			"time": 12.857130000000002,
			"velocity": 0.5905511811023622
		  },
		  {
			"duration": 0.8571419999999996,
			"durationTicks": 120,
			"midi": 89,
			"name": "F6",
			"ticks": 1920,
			"time": 13.714272000000001,
			"velocity": 0.5905511811023622
		  },
		  {
			"duration": 0.8571419999999996,
			"durationTicks": 120,
			"midi": 81,
			"name": "A5",
			"ticks": 2040,
			"time": 14.571414,
			"velocity": 0.6299212598425197
		  },
		  {
			"duration": 0.8571419999999996,
			"durationTicks": 120,
			"midi": 88,
			"name": "E6",
			"ticks": 2160,
			"time": 15.428556,
			"velocity": 0.6299212598425197
		  },
		  {
			"duration": 0.8571419999999996,
			"durationTicks": 120,
			"midi": 81,
			"name": "A5",
			"ticks": 2280,
			"time": 16.285698,
			"velocity": 0.6299212598425197
		  },
		  {
			"duration": 0.8571420000000032,
			"durationTicks": 120,
			"midi": 86,
			"name": "D6",
			"ticks": 2400,
			"time": 17.14284,
			"velocity": 0.6299212598425197
		  },
		  {
			"duration": 0.8571419999999996,
			"durationTicks": 120,
			"midi": 79,
			"name": "G5",
			"ticks": 2520,
			"time": 17.999982000000003,
			"velocity": 0.6299212598425197
		  },
		  {
			"duration": 0.8571419999999996,
			"durationTicks": 120,
			"midi": 84,
			"name": "C6",
			"ticks": 2640,
			"time": 18.857124000000002,
			"velocity": 0.6299212598425197
		  },
		  {
			"duration": 0.8571419999999996,
			"durationTicks": 120,
			"midi": 77,
			"name": "F5",
			"ticks": 2760,
			"time": 19.714266000000002,
			"velocity": 0.6299212598425197
		  },
		  {
			"duration": 0.8571419999999996,
			"durationTicks": 120,
			"midi": 82,
			"name": "A#5",
			"ticks": 2880,
			"time": 20.571408,
			"velocity": 0.6299212598425197
		  },
		  {
			"duration": 0.8571419999999996,
			"durationTicks": 120,
			"midi": 74,
			"name": "D5",
			"ticks": 3000,
			"time": 21.42855,
			"velocity": 0.6299212598425197
		  },
		  {
			"duration": 0.8571419999999996,
			"durationTicks": 120,
			"midi": 74,
			"name": "D5",
			"ticks": 3120,
			"time": 22.285692,
			"velocity": 0.6299212598425197
		  },
		  {
			"duration": 0.8571419999999996,
			"durationTicks": 120,
			"midi": 81,
			"name": "A5",
			"ticks": 3120,
			"time": 22.285692,
			"velocity": 0.6299212598425197
		  },
		  {
			"duration": 0.8571420000000032,
			"durationTicks": 120,
			"midi": 74,
			"name": "D5",
			"ticks": 3240,
			"time": 23.142834,
			"velocity": 0.6299212598425197
		  },
		  {
			"duration": 0.8571420000000032,
			"durationTicks": 120,
			"midi": 65,
			"name": "F4",
			"ticks": 3240,
			"time": 23.142834,
			"velocity": 0.6299212598425197
		  },
		  {
			"duration": 0.8571419999999996,
			"durationTicks": 120,
			"midi": 79,
			"name": "G5",
			"ticks": 3360,
			"time": 23.999976000000004,
			"velocity": 0.6299212598425197
		  },
		  {
			"duration": 0.8571419999999996,
			"durationTicks": 120,
			"midi": 70,
			"name": "A#4",
			"ticks": 3360,
			"time": 23.999976000000004,
			"velocity": 0.6299212598425197
		  },
		  {
			"duration": 0.8571419999999996,
			"durationTicks": 120,
			"midi": 77,
			"name": "F5",
			"ticks": 3480,
			"time": 24.857118000000003,
			"velocity": 0.6299212598425197
		  },
		  {
			"duration": 0.8571419999999996,
			"durationTicks": 120,
			"midi": 76,
			"name": "E5",
			"ticks": 3600,
			"time": 25.714260000000003,
			"velocity": 0.6299212598425197
		  },
		  {
			"duration": 0.8571419999999996,
			"durationTicks": 120,
			"midi": 70,
			"name": "A#4",
			"ticks": 3600,
			"time": 25.714260000000003,
			"velocity": 0.6299212598425197
		  },
		  {
			"duration": 0.8571419999999996,
			"durationTicks": 120,
			"midi": 64,
			"name": "E4",
			"ticks": 3720,
			"time": 26.571402000000003,
			"velocity": 0.6299212598425197
		  },
		  {
			"duration": 0.8571419999999996,
			"durationTicks": 120,
			"midi": 77,
			"name": "F5",
			"ticks": 3840,
			"time": 27.428544000000002,
			"velocity": 0.6299212598425197
		  },
		  {
			"duration": 0.8571419999999996,
			"durationTicks": 120,
			"midi": 69,
			"name": "A4",
			"ticks": 3960,
			"time": 28.285686000000002,
			"velocity": 0.6692913385826772
		  },
		  {
			"duration": 0.8571419999999996,
			"durationTicks": 120,
			"midi": 76,
			"name": "E5",
			"ticks": 4080,
			"time": 29.142828,
			"velocity": 0.6692913385826772
		  },
		  {
			"duration": 0.8571419999999996,
			"durationTicks": 120,
			"midi": 69,
			"name": "A4",
			"ticks": 4200,
			"time": 29.99997,
			"velocity": 0.6692913385826772
		  },
		  {
			"duration": 0.8571420000000032,
			"durationTicks": 120,
			"midi": 74,
			"name": "D5",
			"ticks": 4320,
			"time": 30.857112,
			"velocity": 0.6692913385826772
		  },
		  {
			"duration": 0.8571419999999961,
			"durationTicks": 120,
			"midi": 67,
			"name": "G4",
			"ticks": 4440,
			"time": 31.714254000000004,
			"velocity": 0.6692913385826772
		  },
		  {
			"duration": 0.8571420000000032,
			"durationTicks": 120,
			"midi": 72,
			"name": "C5",
			"ticks": 4560,
			"time": 32.571396,
			"velocity": 0.6692913385826772
		  },
		  {
			"duration": 0.8571419999999961,
			"durationTicks": 120,
			"midi": 65,
			"name": "F4",
			"ticks": 4680,
			"time": 33.428538,
			"velocity": 0.6692913385826772
		  },
		  {
			"duration": 0.8571420000000032,
			"durationTicks": 120,
			"midi": 70,
			"name": "A#4",
			"ticks": 4800,
			"time": 34.28568,
			"velocity": 0.6692913385826772
		  },
		  {
			"duration": 0.8571420000000032,
			"durationTicks": 120,
			"midi": 62,
			"name": "D4",
			"ticks": 4920,
			"time": 35.142822,
			"velocity": 0.6692913385826772
		  },
		  {
			"duration": 0.8571419999999961,
			"durationTicks": 120,
			"midi": 62,
			"name": "D4",
			"ticks": 5040,
			"time": 35.999964000000006,
			"velocity": 0.6692913385826772
		  },
		  {
			"duration": 0.8571419999999961,
			"durationTicks": 120,
			"midi": 69,
			"name": "A4",
			"ticks": 5040,
			"time": 35.999964000000006,
			"velocity": 0.6692913385826772
		  },
		  {
			"duration": 0.8571420000000032,
			"durationTicks": 120,
			"midi": 62,
			"name": "D4",
			"ticks": 5160,
			"time": 36.857106,
			"velocity": 0.6692913385826772
		  },
		  {
			"duration": 0.8571420000000032,
			"durationTicks": 120,
			"midi": 53,
			"name": "F3",
			"ticks": 5160,
			"time": 36.857106,
			"velocity": 0.6692913385826772
		  },
		  {
			"duration": 0.8571419999999961,
			"durationTicks": 120,
			"midi": 67,
			"name": "G4",
			"ticks": 5280,
			"time": 37.714248000000005,
			"velocity": 0.6692913385826772
		  },
		  {
			"duration": 0.8571419999999961,
			"durationTicks": 120,
			"midi": 58,
			"name": "A#3",
			"ticks": 5280,
			"time": 37.714248000000005,
			"velocity": 0.6692913385826772
		  },
		  {
			"duration": 0.8571420000000032,
			"durationTicks": 120,
			"midi": 65,
			"name": "F4",
			"ticks": 5400,
			"time": 38.57139,
			"velocity": 0.6692913385826772
		  },
		  {
			"duration": 0.8571419999999961,
			"durationTicks": 120,
			"midi": 64,
			"name": "E4",
			"ticks": 5520,
			"time": 39.428532000000004,
			"velocity": 0.6692913385826772
		  },
		  {
			"duration": 0.8571419999999961,
			"durationTicks": 120,
			"midi": 58,
			"name": "A#3",
			"ticks": 5520,
			"time": 39.428532000000004,
			"velocity": 0.6692913385826772
		  },
		  {
			"duration": 4.285710000000002,
			"durationTicks": 600,
			"midi": 52,
			"name": "E3",
			"ticks": 5640,
			"time": 40.285674,
			"velocity": 0.905511811023622
		  },
		  {
			"duration": 0.8571419999999961,
			"durationTicks": 120,
			"midi": 64,
			"name": "E4",
			"ticks": 6720,
			"time": 47.99995200000001,
			"velocity": 0.7480314960629921
		  },
		  {
			"duration": 0.8571419999999961,
			"durationTicks": 120,
			"midi": 66,
			"name": "F#4",
			"ticks": 6720,
			"time": 47.99995200000001,
			"velocity": 0.7480314960629921
		  },
		  {
			"duration": 0.8571419999999961,
			"durationTicks": 120,
			"midi": 69,
			"name": "A4",
			"ticks": 6720,
			"time": 47.99995200000001,
			"velocity": 0.7480314960629921
		  },
		  {
			"duration": 0.8571420000000032,
			"durationTicks": 120,
			"midi": 64,
			"name": "E4",
			"ticks": 6840,
			"time": 48.857094000000004,
			"velocity": 0.7480314960629921
		  },
		  {
			"duration": 0.8571420000000032,
			"durationTicks": 120,
			"midi": 66,
			"name": "F#4",
			"ticks": 6840,
			"time": 48.857094000000004,
			"velocity": 0.7480314960629921
		  },
		  {
			"duration": 0.8571420000000032,
			"durationTicks": 120,
			"midi": 69,
			"name": "A4",
			"ticks": 6840,
			"time": 48.857094000000004,
			"velocity": 0.7480314960629921
		  },
		  {
			"duration": 0.8571419999999961,
			"durationTicks": 120,
			"midi": 62,
			"name": "D4",
			"ticks": 6960,
			"time": 49.71423600000001,
			"velocity": 0.7480314960629921
		  },
		  {
			"duration": 0.8571419999999961,
			"durationTicks": 120,
			"midi": 66,
			"name": "F#4",
			"ticks": 6960,
			"time": 49.71423600000001,
			"velocity": 0.7480314960629921
		  },
		  {
			"duration": 0.8571419999999961,
			"durationTicks": 120,
			"midi": 69,
			"name": "A4",
			"ticks": 6960,
			"time": 49.71423600000001,
			"velocity": 0.7480314960629921
		  },
		  {
			"duration": 0.8571420000000032,
			"durationTicks": 120,
			"midi": 62,
			"name": "D4",
			"ticks": 7080,
			"time": 50.571378,
			"velocity": 0.7480314960629921
		  },
		  {
			"duration": 0.8571420000000032,
			"durationTicks": 120,
			"midi": 66,
			"name": "F#4",
			"ticks": 7080,
			"time": 50.571378,
			"velocity": 0.7480314960629921
		  },
		  {
			"duration": 0.8571420000000032,
			"durationTicks": 120,
			"midi": 69,
			"name": "A4",
			"ticks": 7080,
			"time": 50.571378,
			"velocity": 0.7480314960629921
		  },
		  {
			"duration": 0.8571419999999961,
			"durationTicks": 120,
			"midi": 60,
			"name": "C4",
			"ticks": 7200,
			"time": 51.428520000000006,
			"velocity": 0.7480314960629921
		  },
		  {
			"duration": 0.8571419999999961,
			"durationTicks": 120,
			"midi": 62,
			"name": "D4",
			"ticks": 7200,
			"time": 51.428520000000006,
			"velocity": 0.7480314960629921
		  },
		  {
			"duration": 0.8571419999999961,
			"durationTicks": 120,
			"midi": 65,
			"name": "F4",
			"ticks": 7200,
			"time": 51.428520000000006,
			"velocity": 0.7480314960629921
		  },
		  {
			"duration": 0.8571420000000032,
			"durationTicks": 120,
			"midi": 60,
			"name": "C4",
			"ticks": 7320,
			"time": 52.285662,
			"velocity": 0.7480314960629921
		  },
		  {
			"duration": 0.8571420000000032,
			"durationTicks": 120,
			"midi": 62,
			"name": "D4",
			"ticks": 7320,
			"time": 52.285662,
			"velocity": 0.7480314960629921
		  },
		  {
			"duration": 0.8571420000000032,
			"durationTicks": 120,
			"midi": 65,
			"name": "F4",
			"ticks": 7320,
			"time": 52.285662,
			"velocity": 0.7480314960629921
		  },
		  {
			"duration": 0.8571419999999961,
			"durationTicks": 120,
			"midi": 62,
			"name": "D4",
			"ticks": 7440,
			"time": 53.142804000000005,
			"velocity": 0.7480314960629921
		  },
		  {
			"duration": 0.8571419999999961,
			"durationTicks": 120,
			"midi": 65,
			"name": "F4",
			"ticks": 7440,
			"time": 53.142804000000005,
			"velocity": 0.7480314960629921
		  },
		  {
			"duration": 0.8571419999999961,
			"durationTicks": 120,
			"midi": 58,
			"name": "A#3",
			"ticks": 7440,
			"time": 53.142804000000005,
			"velocity": 0.7480314960629921
		  },
		  {
			"duration": 0.8571420000000032,
			"durationTicks": 120,
			"midi": 62,
			"name": "D4",
			"ticks": 7560,
			"time": 53.999946,
			"velocity": 0.7480314960629921
		  },
		  {
			"duration": 0.8571420000000032,
			"durationTicks": 120,
			"midi": 65,
			"name": "F4",
			"ticks": 7560,
			"time": 53.999946,
			"velocity": 0.7480314960629921
		  },
		  {
			"duration": 0.8571420000000032,
			"durationTicks": 120,
			"midi": 58,
			"name": "A#3",
			"ticks": 7560,
			"time": 53.999946,
			"velocity": 0.7480314960629921
		  },
		  {
			"duration": 0.8571420000000032,
			"durationTicks": 120,
			"midi": 64,
			"name": "E4",
			"ticks": 7680,
			"time": 54.857088000000005,
			"velocity": 0.7480314960629921
		  },
		  {
			"duration": 0.8571420000000032,
			"durationTicks": 120,
			"midi": 66,
			"name": "F#4",
			"ticks": 7680,
			"time": 54.857088000000005,
			"velocity": 0.7480314960629921
		  },
		  {
			"duration": 0.8571420000000032,
			"durationTicks": 120,
			"midi": 69,
			"name": "A4",
			"ticks": 7680,
			"time": 54.857088000000005,
			"velocity": 0.7480314960629921
		  },
		  {
			"duration": 0.8571419999999961,
			"durationTicks": 120,
			"midi": 64,
			"name": "E4",
			"ticks": 7800,
			"time": 55.71423000000001,
			"velocity": 0.7480314960629921
		  },
		  {
			"duration": 0.8571419999999961,
			"durationTicks": 120,
			"midi": 66,
			"name": "F#4",
			"ticks": 7800,
			"time": 55.71423000000001,
			"velocity": 0.7480314960629921
		  },
		  {
			"duration": 0.8571419999999961,
			"durationTicks": 120,
			"midi": 69,
			"name": "A4",
			"ticks": 7800,
			"time": 55.71423000000001,
			"velocity": 0.7480314960629921
		  },
		  {
			"duration": 0.8571420000000032,
			"durationTicks": 120,
			"midi": 62,
			"name": "D4",
			"ticks": 7920,
			"time": 56.571372000000004,
			"velocity": 0.7480314960629921
		  },
		  {
			"duration": 0.8571420000000032,
			"durationTicks": 120,
			"midi": 66,
			"name": "F#4",
			"ticks": 7920,
			"time": 56.571372000000004,
			"velocity": 0.7480314960629921
		  },
		  {
			"duration": 0.8571420000000032,
			"durationTicks": 120,
			"midi": 69,
			"name": "A4",
			"ticks": 7920,
			"time": 56.571372000000004,
			"velocity": 0.7480314960629921
		  },
		  {
			"duration": 0.8571419999999961,
			"durationTicks": 120,
			"midi": 62,
			"name": "D4",
			"ticks": 8040,
			"time": 57.42851400000001,
			"velocity": 0.7480314960629921
		  },
		  {
			"duration": 0.8571419999999961,
			"durationTicks": 120,
			"midi": 66,
			"name": "F#4",
			"ticks": 8040,
			"time": 57.42851400000001,
			"velocity": 0.7480314960629921
		  },
		  {
			"duration": 0.8571419999999961,
			"durationTicks": 120,
			"midi": 69,
			"name": "A4",
			"ticks": 8040,
			"time": 57.42851400000001,
			"velocity": 0.7480314960629921
		  },
		  {
			"duration": 1.7142839999999993,
			"durationTicks": 240,
			"midi": 60,
			"name": "C4",
			"ticks": 8160,
			"time": 58.285656,
			"velocity": 0.7480314960629921
		  },
		  {
			"duration": 1.7142839999999993,
			"durationTicks": 240,
			"midi": 65,
			"name": "F4",
			"ticks": 8160,
			"time": 58.285656,
			"velocity": 0.7480314960629921
		  },
		  {
			"duration": 1.7142839999999993,
			"durationTicks": 240,
			"midi": 58,
			"name": "A#3",
			"ticks": 8160,
			"time": 58.285656,
			"velocity": 0.7480314960629921
		  },
		  {
			"duration": 1.7142839999999993,
			"durationTicks": 240,
			"midi": 60,
			"name": "C4",
			"ticks": 8400,
			"time": 59.99994,
			"velocity": 0.7480314960629921
		  },
		  {
			"duration": 1.7142839999999993,
			"durationTicks": 240,
			"midi": 62,
			"name": "D4",
			"ticks": 8400,
			"time": 59.99994,
			"velocity": 0.7480314960629921
		  },
		  {
			"duration": 1.7142839999999993,
			"durationTicks": 240,
			"midi": 64,
			"name": "E4",
			"ticks": 8400,
			"time": 59.99994,
			"velocity": 0.7480314960629921
		  },
		  {
			"duration": 1.7142839999999993,
			"durationTicks": 240,
			"midi": 67,
			"name": "G4",
			"ticks": 8400,
			"time": 59.99994,
			"velocity": 0.7480314960629921
		  },
		  {
			"duration": 0.8571420000000032,
			"durationTicks": 120,
			"midi": 64,
			"name": "E4",
			"ticks": 8640,
			"time": 61.714224,
			"velocity": 0.7480314960629921
		  },
		  {
			"duration": 0.8571420000000032,
			"durationTicks": 120,
			"midi": 66,
			"name": "F#4",
			"ticks": 8640,
			"time": 61.714224,
			"velocity": 0.7480314960629921
		  },
		  {
			"duration": 0.8571420000000032,
			"durationTicks": 120,
			"midi": 69,
			"name": "A4",
			"ticks": 8640,
			"time": 61.714224,
			"velocity": 0.7480314960629921
		  },
		  {
			"duration": 0.8571420000000032,
			"durationTicks": 120,
			"midi": 64,
			"name": "E4",
			"ticks": 8760,
			"time": 62.571366000000005,
			"velocity": 0.7480314960629921
		  },
		  {
			"duration": 0.8571420000000032,
			"durationTicks": 120,
			"midi": 66,
			"name": "F#4",
			"ticks": 8760,
			"time": 62.571366000000005,
			"velocity": 0.7480314960629921
		  },
		  {
			"duration": 0.8571420000000032,
			"durationTicks": 120,
			"midi": 69,
			"name": "A4",
			"ticks": 8760,
			"time": 62.571366000000005,
			"velocity": 0.7480314960629921
		  },
		  {
			"duration": 0.8571419999999961,
			"durationTicks": 120,
			"midi": 62,
			"name": "D4",
			"ticks": 8880,
			"time": 63.42850800000001,
			"velocity": 0.7480314960629921
		  },
		  {
			"duration": 0.8571419999999961,
			"durationTicks": 120,
			"midi": 66,
			"name": "F#4",
			"ticks": 8880,
			"time": 63.42850800000001,
			"velocity": 0.7480314960629921
		  },
		  {
			"duration": 0.8571419999999961,
			"durationTicks": 120,
			"midi": 69,
			"name": "A4",
			"ticks": 8880,
			"time": 63.42850800000001,
			"velocity": 0.7480314960629921
		  },
		  {
			"duration": 0.8571419999999961,
			"durationTicks": 120,
			"midi": 62,
			"name": "D4",
			"ticks": 9000,
			"time": 64.28565,
			"velocity": 0.7480314960629921
		  },
		  {
			"duration": 0.8571419999999961,
			"durationTicks": 120,
			"midi": 66,
			"name": "F#4",
			"ticks": 9000,
			"time": 64.28565,
			"velocity": 0.7480314960629921
		  },
		  {
			"duration": 0.8571419999999961,
			"durationTicks": 120,
			"midi": 69,
			"name": "A4",
			"ticks": 9000,
			"time": 64.28565,
			"velocity": 0.7480314960629921
		  },
		  {
			"duration": 0.8571420000000103,
			"durationTicks": 120,
			"midi": 60,
			"name": "C4",
			"ticks": 9120,
			"time": 65.142792,
			"velocity": 0.7480314960629921
		  },
		  {
			"duration": 0.8571420000000103,
			"durationTicks": 120,
			"midi": 62,
			"name": "D4",
			"ticks": 9120,
			"time": 65.142792,
			"velocity": 0.7480314960629921
		  },
		  {
			"duration": 0.8571420000000103,
			"durationTicks": 120,
			"midi": 65,
			"name": "F4",
			"ticks": 9120,
			"time": 65.142792,
			"velocity": 0.7480314960629921
		  },
		  {
			"duration": 0.8571419999999961,
			"durationTicks": 120,
			"midi": 60,
			"name": "C4",
			"ticks": 9240,
			"time": 65.99993400000001,
			"velocity": 0.7480314960629921
		  },
		  {
			"duration": 0.8571419999999961,
			"durationTicks": 120,
			"midi": 62,
			"name": "D4",
			"ticks": 9240,
			"time": 65.99993400000001,
			"velocity": 0.7480314960629921
		  },
		  {
			"duration": 0.8571419999999961,
			"durationTicks": 120,
			"midi": 65,
			"name": "F4",
			"ticks": 9240,
			"time": 65.99993400000001,
			"velocity": 0.7480314960629921
		  },
		  {
			"duration": 0.8571419999999961,
			"durationTicks": 120,
			"midi": 62,
			"name": "D4",
			"ticks": 9360,
			"time": 66.857076,
			"velocity": 0.7480314960629921
		  },
		  {
			"duration": 0.8571419999999961,
			"durationTicks": 120,
			"midi": 65,
			"name": "F4",
			"ticks": 9360,
			"time": 66.857076,
			"velocity": 0.7480314960629921
		  },
		  {
			"duration": 0.8571419999999961,
			"durationTicks": 120,
			"midi": 58,
			"name": "A#3",
			"ticks": 9360,
			"time": 66.857076,
			"velocity": 0.7480314960629921
		  },
		  {
			"duration": 0.8571419999999961,
			"durationTicks": 120,
			"midi": 62,
			"name": "D4",
			"ticks": 9480,
			"time": 67.714218,
			"velocity": 0.7480314960629921
		  },
		  {
			"duration": 0.8571419999999961,
			"durationTicks": 120,
			"midi": 65,
			"name": "F4",
			"ticks": 9480,
			"time": 67.714218,
			"velocity": 0.7480314960629921
		  },
		  {
			"duration": 0.8571419999999961,
			"durationTicks": 120,
			"midi": 58,
			"name": "A#3",
			"ticks": 9480,
			"time": 67.714218,
			"velocity": 0.7480314960629921
		  },
		  {
			"duration": 0.8571420000000103,
			"durationTicks": 120,
			"midi": 64,
			"name": "E4",
			"ticks": 9600,
			"time": 68.57136,
			"velocity": 0.7480314960629921
		  },
		  {
			"duration": 0.8571420000000103,
			"durationTicks": 120,
			"midi": 66,
			"name": "F#4",
			"ticks": 9600,
			"time": 68.57136,
			"velocity": 0.7480314960629921
		  },
		  {
			"duration": 0.8571420000000103,
			"durationTicks": 120,
			"midi": 69,
			"name": "A4",
			"ticks": 9600,
			"time": 68.57136,
			"velocity": 0.7480314960629921
		  },
		  {
			"duration": 0.8571419999999961,
			"durationTicks": 120,
			"midi": 64,
			"name": "E4",
			"ticks": 9720,
			"time": 69.42850200000001,
			"velocity": 0.7480314960629921
		  },
		  {
			"duration": 0.8571419999999961,
			"durationTicks": 120,
			"midi": 66,
			"name": "F#4",
			"ticks": 9720,
			"time": 69.42850200000001,
			"velocity": 0.7480314960629921
		  },
		  {
			"duration": 0.8571419999999961,
			"durationTicks": 120,
			"midi": 69,
			"name": "A4",
			"ticks": 9720,
			"time": 69.42850200000001,
			"velocity": 0.7480314960629921
		  },
		  {
			"duration": 0.8571419999999961,
			"durationTicks": 120,
			"midi": 62,
			"name": "D4",
			"ticks": 9840,
			"time": 70.285644,
			"velocity": 0.7480314960629921
		  },
		  {
			"duration": 0.8571419999999961,
			"durationTicks": 120,
			"midi": 66,
			"name": "F#4",
			"ticks": 9840,
			"time": 70.285644,
			"velocity": 0.7480314960629921
		  },
		  {
			"duration": 0.8571419999999961,
			"durationTicks": 120,
			"midi": 69,
			"name": "A4",
			"ticks": 9840,
			"time": 70.285644,
			"velocity": 0.7480314960629921
		  },
		  {
			"duration": 0.8571420000000103,
			"durationTicks": 120,
			"midi": 62,
			"name": "D4",
			"ticks": 9960,
			"time": 71.142786,
			"velocity": 0.7480314960629921
		  },
		  {
			"duration": 0.8571420000000103,
			"durationTicks": 120,
			"midi": 66,
			"name": "F#4",
			"ticks": 9960,
			"time": 71.142786,
			"velocity": 0.7480314960629921
		  },
		  {
			"duration": 0.8571420000000103,
			"durationTicks": 120,
			"midi": 69,
			"name": "A4",
			"ticks": 9960,
			"time": 71.142786,
			"velocity": 0.7480314960629921
		  },
		  {
			"duration": 1.73430639999998,
			"durationTicks": 240,
			"midi": 60,
			"name": "C4",
			"ticks": 10080,
			"time": 71.99992800000001,
			"velocity": 0.7480314960629921
		  },
		  {
			"duration": 1.73430639999998,
			"durationTicks": 240,
			"midi": 65,
			"name": "F4",
			"ticks": 10080,
			"time": 71.99992800000001,
			"velocity": 0.7480314960629921
		  },
		  {
			"duration": 1.73430639999998,
			"durationTicks": 240,
			"midi": 58,
			"name": "A#3",
			"ticks": 10080,
			"time": 71.99992800000001,
			"velocity": 0.7480314960629921
		  },
		  {
			"duration": 1.7966304000000122,
			"durationTicks": 240,
			"midi": 60,
			"name": "C4",
			"ticks": 10320,
			"time": 73.73423439999999,
			"velocity": 0.6929133858267716
		  },
		  {
			"duration": 1.7966304000000122,
			"durationTicks": 240,
			"midi": 62,
			"name": "D4",
			"ticks": 10320,
			"time": 73.73423439999999,
			"velocity": 0.6929133858267716
		  },
		  {
			"duration": 1.7966304000000122,
			"durationTicks": 240,
			"midi": 64,
			"name": "E4",
			"ticks": 10320,
			"time": 73.73423439999999,
			"velocity": 0.6929133858267716
		  },
		  {
			"duration": 1.7966304000000122,
			"durationTicks": 240,
			"midi": 67,
			"name": "G4",
			"ticks": 10320,
			"time": 73.73423439999999,
			"velocity": 0.6929133858267716
		  },
		  {
			"duration": 3.692303999999993,
			"durationTicks": 480,
			"midi": 62,
			"name": "D4",
			"ticks": 10560,
			"time": 75.5308648,
			"velocity": 0.6299212598425197
		  },
		  {
			"duration": 3.692303999999993,
			"durationTicks": 480,
			"midi": 64,
			"name": "E4",
			"ticks": 10560,
			"time": 75.5308648,
			"velocity": 0.6299212598425197
		  },
		  {
			"duration": 3.692303999999993,
			"durationTicks": 480,
			"midi": 69,
			"name": "A4",
			"ticks": 10560,
			"time": 75.5308648,
			"velocity": 0.6299212598425197
		  },
		  {
			"duration": 3.692303999999993,
			"durationTicks": 480,
			"midi": 58,
			"name": "A#3",
			"ticks": 10560,
			"time": 75.5308648,
			"velocity": 0.6299212598425197
		  },
		  {
			"duration": 3.692304000000007,
			"durationTicks": 480,
			"midi": 60,
			"name": "C4",
			"ticks": 11040,
			"time": 79.2231688,
			"velocity": 0.7086614173228346
		  },
		  {
			"duration": 3.692304000000007,
			"durationTicks": 480,
			"midi": 62,
			"name": "D4",
			"ticks": 11040,
			"time": 79.2231688,
			"velocity": 0.7086614173228346
		  },
		  {
			"duration": 3.692304000000007,
			"durationTicks": 480,
			"midi": 64,
			"name": "E4",
			"ticks": 11040,
			"time": 79.2231688,
			"velocity": 0.7086614173228346
		  },
		  {
			"duration": 3.692304000000007,
			"durationTicks": 480,
			"midi": 67,
			"name": "G4",
			"ticks": 11040,
			"time": 79.2231688,
			"velocity": 0.7086614173228346
		  },
		  {
			"duration": 0.8571419999999961,
			"durationTicks": 120,
			"midi": 77,
			"name": "F5",
			"ticks": 11520,
			"time": 82.9154728,
			"velocity": 0.5511811023622047
		  },
		  {
			"duration": 0.8571420000000103,
			"durationTicks": 120,
			"midi": 69,
			"name": "A4",
			"ticks": 11640,
			"time": 83.7726148,
			"velocity": 0.6692913385826772
		  },
		  {
			"duration": 0.8571419999999961,
			"durationTicks": 120,
			"midi": 76,
			"name": "E5",
			"ticks": 11760,
			"time": 84.62975680000001,
			"velocity": 0.6692913385826772
		  },
		  {
			"duration": 0.8571419999999961,
			"durationTicks": 120,
			"midi": 69,
			"name": "A4",
			"ticks": 11880,
			"time": 85.4868988,
			"velocity": 0.6692913385826772
		  },
		  {
			"duration": 0.8571419999999961,
			"durationTicks": 120,
			"midi": 74,
			"name": "D5",
			"ticks": 12000,
			"time": 86.3440408,
			"velocity": 0.6692913385826772
		  },
		  {
			"duration": 0.8571420000000103,
			"durationTicks": 120,
			"midi": 67,
			"name": "G4",
			"ticks": 12120,
			"time": 87.2011828,
			"velocity": 0.6692913385826772
		  },
		  {
			"duration": 0.8571419999999961,
			"durationTicks": 120,
			"midi": 72,
			"name": "C5",
			"ticks": 12240,
			"time": 88.05832480000001,
			"velocity": 0.6692913385826772
		  },
		  {
			"duration": 0.8571419999999961,
			"durationTicks": 120,
			"midi": 65,
			"name": "F4",
			"ticks": 12360,
			"time": 88.9154668,
			"velocity": 0.6692913385826772
		  },
		  {
			"duration": 0.8571420000000103,
			"durationTicks": 120,
			"midi": 70,
			"name": "A#4",
			"ticks": 12480,
			"time": 89.7726088,
			"velocity": 0.6692913385826772
		  },
		  {
			"duration": 0.8571419999999961,
			"durationTicks": 120,
			"midi": 62,
			"name": "D4",
			"ticks": 12600,
			"time": 90.62975080000001,
			"velocity": 0.6692913385826772
		  },
		  {
			"duration": 0.8571419999999961,
			"durationTicks": 120,
			"midi": 62,
			"name": "D4",
			"ticks": 12720,
			"time": 91.4868928,
			"velocity": 0.6692913385826772
		  },
		  {
			"duration": 0.8571419999999961,
			"durationTicks": 120,
			"midi": 69,
			"name": "A4",
			"ticks": 12720,
			"time": 91.4868928,
			"velocity": 0.6692913385826772
		  },
		  {
			"duration": 0.8571419999999961,
			"durationTicks": 120,
			"midi": 62,
			"name": "D4",
			"ticks": 12840,
			"time": 92.3440348,
			"velocity": 0.6692913385826772
		  },
		  {
			"duration": 0.8571419999999961,
			"durationTicks": 120,
			"midi": 53,
			"name": "F3",
			"ticks": 12840,
			"time": 92.3440348,
			"velocity": 0.6692913385826772
		  },
		  {
			"duration": 0.8571420000000103,
			"durationTicks": 120,
			"midi": 67,
			"name": "G4",
			"ticks": 12960,
			"time": 93.2011768,
			"velocity": 0.6692913385826772
		  },
		  {
			"duration": 0.8571420000000103,
			"durationTicks": 120,
			"midi": 58,
			"name": "A#3",
			"ticks": 12960,
			"time": 93.2011768,
			"velocity": 0.6692913385826772
		  },
		  {
			"duration": 0.8571419999999961,
			"durationTicks": 120,
			"midi": 65,
			"name": "F4",
			"ticks": 13080,
			"time": 94.05831880000001,
			"velocity": 0.6692913385826772
		  },
		  {
			"duration": 0.8571419999999961,
			"durationTicks": 120,
			"midi": 64,
			"name": "E4",
			"ticks": 13200,
			"time": 94.9154608,
			"velocity": 0.6692913385826772
		  },
		  {
			"duration": 0.8571419999999961,
			"durationTicks": 120,
			"midi": 58,
			"name": "A#3",
			"ticks": 13200,
			"time": 94.9154608,
			"velocity": 0.6692913385826772
		  },
		  {
			"duration": 0.8571419999999961,
			"durationTicks": 120,
			"midi": 52,
			"name": "E3",
			"ticks": 13320,
			"time": 95.7726028,
			"velocity": 0.6692913385826772
		  },
		  {
			"duration": 0.8571420000000103,
			"durationTicks": 120,
			"midi": 65,
			"name": "F4",
			"ticks": 13440,
			"time": 96.6297448,
			"velocity": 0.6692913385826772
		  },
		  {
			"duration": 0.8571419999999961,
			"durationTicks": 120,
			"midi": 57,
			"name": "A3",
			"ticks": 13560,
			"time": 97.48688680000001,
			"velocity": 0.6692913385826772
		  },
		  {
			"duration": 0.8571419999999961,
			"durationTicks": 120,
			"midi": 64,
			"name": "E4",
			"ticks": 13680,
			"time": 98.3440288,
			"velocity": 0.6692913385826772
		  },
		  {
			"duration": 0.8571420000000103,
			"durationTicks": 120,
			"midi": 57,
			"name": "A3",
			"ticks": 13800,
			"time": 99.2011708,
			"velocity": 0.6692913385826772
		  },
		  {
			"duration": 0.8571419999999961,
			"durationTicks": 120,
			"midi": 62,
			"name": "D4",
			"ticks": 13920,
			"time": 100.05831280000001,
			"velocity": 0.6692913385826772
		  },
		  {
			"duration": 0.8571419999999961,
			"durationTicks": 120,
			"midi": 55,
			"name": "G3",
			"ticks": 14040,
			"time": 100.9154548,
			"velocity": 0.6692913385826772
		  },
		  {
			"duration": 0.8571420000000103,
			"durationTicks": 120,
			"midi": 60,
			"name": "C4",
			"ticks": 14160,
			"time": 101.7725968,
			"velocity": 0.6692913385826772
		  },
		  {
			"duration": 0.8571419999999961,
			"durationTicks": 120,
			"midi": 53,
			"name": "F3",
			"ticks": 14280,
			"time": 102.62973880000001,
			"velocity": 0.6692913385826772
		  },
		  {
			"duration": 0.8571419999999961,
			"durationTicks": 120,
			"midi": 58,
			"name": "A#3",
			"ticks": 14400,
			"time": 103.48688080000001,
			"velocity": 0.6692913385826772
		  },
		  {
			"duration": 0.8571419999999961,
			"durationTicks": 120,
			"midi": 50,
			"name": "D3",
			"ticks": 14520,
			"time": 104.3440228,
			"velocity": 0.6692913385826772
		  },
		  {
			"duration": 0.8571419999999961,
			"durationTicks": 120,
			"midi": 50,
			"name": "D3",
			"ticks": 14640,
			"time": 105.2011648,
			"velocity": 0.6692913385826772
		  },
		  {
			"duration": 0.8571419999999961,
			"durationTicks": 120,
			"midi": 57,
			"name": "A3",
			"ticks": 14640,
			"time": 105.2011648,
			"velocity": 0.6692913385826772
		  },
		  {
			"duration": 0.8571420000000103,
			"durationTicks": 120,
			"midi": 50,
			"name": "D3",
			"ticks": 14760,
			"time": 106.0583068,
			"velocity": 0.6692913385826772
		  },
		  {
			"duration": 0.8571420000000103,
			"durationTicks": 120,
			"midi": 41,
			"name": "F2",
			"ticks": 14760,
			"time": 106.0583068,
			"velocity": 0.6692913385826772
		  },
		  {
			"duration": 0.8571419999999961,
			"durationTicks": 120,
			"midi": 55,
			"name": "G3",
			"ticks": 14880,
			"time": 106.91544880000001,
			"velocity": 0.6692913385826772
		  },
		  {
			"duration": 0.8571419999999961,
			"durationTicks": 120,
			"midi": 46,
			"name": "A#2",
			"ticks": 14880,
			"time": 106.91544880000001,
			"velocity": 0.6692913385826772
		  },
		  {
			"duration": 0.8571419999999961,
			"durationTicks": 120,
			"midi": 53,
			"name": "F3",
			"ticks": 15000,
			"time": 107.7725908,
			"velocity": 0.6692913385826772
		  },
		  {
			"duration": 0.8571420000000103,
			"durationTicks": 120,
			"midi": 52,
			"name": "E3",
			"ticks": 15120,
			"time": 108.6297328,
			"velocity": 0.6692913385826772
		  },
		  {
			"duration": 0.8571420000000103,
			"durationTicks": 120,
			"midi": 46,
			"name": "A#2",
			"ticks": 15120,
			"time": 108.6297328,
			"velocity": 0.6692913385826772
		  },
		  {
			"duration": 4.285709999999995,
			"durationTicks": 600,
			"midi": 40,
			"name": "E2",
			"ticks": 15240,
			"time": 109.48687480000001,
			"velocity": 0.905511811023622
		  },
		  {
			"duration": 3.4285679999999985,
			"durationTicks": 480,
			"midi": 67,
			"name": "G4",
			"ticks": 15840,
			"time": 113.7725848,
			"velocity": 0.5905511811023622
		  },
		  {
			"duration": 0.8571419999999961,
			"durationTicks": 120,
			"midi": 101,
			"name": "F7",
			"ticks": 16320,
			"time": 117.2011528,
			"velocity": 0.5905511811023622
		  },
		  {
			"duration": 0.8571420000000103,
			"durationTicks": 120,
			"midi": 93,
			"name": "A6",
			"ticks": 16440,
			"time": 118.0582948,
			"velocity": 0.6692913385826772
		  },
		  {
			"duration": 0.8571419999999961,
			"durationTicks": 120,
			"midi": 100,
			"name": "E7",
			"ticks": 16560,
			"time": 118.91543680000001,
			"velocity": 0.6692913385826772
		  },
		  {
			"duration": 0.8571419999999961,
			"durationTicks": 120,
			"midi": 93,
			"name": "A6",
			"ticks": 16680,
			"time": 119.7725788,
			"velocity": 0.6692913385826772
		  },
		  {
			"duration": 0.8571420000000103,
			"durationTicks": 120,
			"midi": 98,
			"name": "D7",
			"ticks": 16800,
			"time": 120.6297208,
			"velocity": 0.6692913385826772
		  },
		  {
			"duration": 0.8571419999999961,
			"durationTicks": 120,
			"midi": 91,
			"name": "G6",
			"ticks": 16920,
			"time": 121.48686280000001,
			"velocity": 0.6692913385826772
		  },
		  {
			"duration": 0.8571419999999961,
			"durationTicks": 120,
			"midi": 96,
			"name": "C7",
			"ticks": 17040,
			"time": 122.34400480000001,
			"velocity": 0.6692913385826772
		  },
		  {
			"duration": 0.8571420000000103,
			"durationTicks": 120,
			"midi": 89,
			"name": "F6",
			"ticks": 17160,
			"time": 123.2011468,
			"velocity": 0.6692913385826772
		  },
		  {
			"duration": 0.8571419999999961,
			"durationTicks": 120,
			"midi": 94,
			"name": "A#6",
			"ticks": 17280,
			"time": 124.05828880000001,
			"velocity": 0.6692913385826772
		  },
		  {
			"duration": 0.8571419999999961,
			"durationTicks": 120,
			"midi": 86,
			"name": "D6",
			"ticks": 17400,
			"time": 124.91543080000001,
			"velocity": 0.6692913385826772
		  },
		  {
			"duration": 0.8571420000000103,
			"durationTicks": 120,
			"midi": 86,
			"name": "D6",
			"ticks": 17520,
			"time": 125.7725728,
			"velocity": 0.6692913385826772
		  },
		  {
			"duration": 0.8571420000000103,
			"durationTicks": 120,
			"midi": 93,
			"name": "A6",
			"ticks": 17520,
			"time": 125.7725728,
			"velocity": 0.6692913385826772
		  },
		  {
			"duration": 0.8571419999999819,
			"durationTicks": 120,
			"midi": 86,
			"name": "D6",
			"ticks": 17640,
			"time": 126.62971480000002,
			"velocity": 0.6692913385826772
		  },
		  {
			"duration": 0.8571419999999819,
			"durationTicks": 120,
			"midi": 77,
			"name": "F5",
			"ticks": 17640,
			"time": 126.62971480000002,
			"velocity": 0.6692913385826772
		  },
		  {
			"duration": 0.8571420000000103,
			"durationTicks": 120,
			"midi": 91,
			"name": "G6",
			"ticks": 17760,
			"time": 127.4868568,
			"velocity": 0.6692913385826772
		  },
		  {
			"duration": 0.8571420000000103,
			"durationTicks": 120,
			"midi": 82,
			"name": "A#5",
			"ticks": 17760,
			"time": 127.4868568,
			"velocity": 0.6692913385826772
		  },
		  {
			"duration": 0.8571420000000103,
			"durationTicks": 120,
			"midi": 89,
			"name": "F6",
			"ticks": 17880,
			"time": 128.3439988,
			"velocity": 0.6692913385826772
		  },
		  {
			"duration": 0.8571419999999819,
			"durationTicks": 120,
			"midi": 88,
			"name": "E6",
			"ticks": 18000,
			"time": 129.20114080000002,
			"velocity": 0.6692913385826772
		  },
		  {
			"duration": 0.8571419999999819,
			"durationTicks": 120,
			"midi": 82,
			"name": "A#5",
			"ticks": 18000,
			"time": 129.20114080000002,
			"velocity": 0.6692913385826772
		  },
		  {
			"duration": 4.285710000000023,
			"durationTicks": 600,
			"midi": 79,
			"name": "G5",
			"ticks": 18120,
			"time": 130.0582828,
			"velocity": 0.6692913385826772
		  },
		  {
			"duration": 0.8571420000000103,
			"durationTicks": 120,
			"midi": 64,
			"name": "E4",
			"ticks": 19680,
			"time": 139.89984024166668,
			"velocity": 0.905511811023622
		  },
		  {
			"duration": 0.8571420000000103,
			"durationTicks": 120,
			"midi": 66,
			"name": "F#4",
			"ticks": 19680,
			"time": 139.89984024166668,
			"velocity": 0.905511811023622
		  },
		  {
			"duration": 0.8571420000000103,
			"durationTicks": 120,
			"midi": 69,
			"name": "A4",
			"ticks": 19680,
			"time": 139.89984024166668,
			"velocity": 0.905511811023622
		  },
		  {
			"duration": 0.8571420000000103,
			"durationTicks": 120,
			"midi": 57,
			"name": "A3",
			"ticks": 19680,
			"time": 139.89984024166668,
			"velocity": 0.905511811023622
		  },
		  {
			"duration": 0.8571419999999819,
			"durationTicks": 120,
			"midi": 64,
			"name": "E4",
			"ticks": 19800,
			"time": 140.7569822416667,
			"velocity": 0.905511811023622
		  },
		  {
			"duration": 0.8571419999999819,
			"durationTicks": 120,
			"midi": 66,
			"name": "F#4",
			"ticks": 19800,
			"time": 140.7569822416667,
			"velocity": 0.905511811023622
		  },
		  {
			"duration": 0.8571419999999819,
			"durationTicks": 120,
			"midi": 69,
			"name": "A4",
			"ticks": 19800,
			"time": 140.7569822416667,
			"velocity": 0.905511811023622
		  },
		  {
			"duration": 0.8571419999999819,
			"durationTicks": 120,
			"midi": 57,
			"name": "A3",
			"ticks": 19800,
			"time": 140.7569822416667,
			"velocity": 0.905511811023622
		  },
		  {
			"duration": 0.8571420000000103,
			"durationTicks": 120,
			"midi": 62,
			"name": "D4",
			"ticks": 19920,
			"time": 141.61412424166667,
			"velocity": 0.905511811023622
		  },
		  {
			"duration": 0.8571420000000103,
			"durationTicks": 120,
			"midi": 66,
			"name": "F#4",
			"ticks": 19920,
			"time": 141.61412424166667,
			"velocity": 0.905511811023622
		  },
		  {
			"duration": 0.8571420000000103,
			"durationTicks": 120,
			"midi": 69,
			"name": "A4",
			"ticks": 19920,
			"time": 141.61412424166667,
			"velocity": 0.905511811023622
		  },
		  {
			"duration": 0.8571420000000103,
			"durationTicks": 120,
			"midi": 57,
			"name": "A3",
			"ticks": 19920,
			"time": 141.61412424166667,
			"velocity": 0.905511811023622
		  },
		  {
			"duration": 0.8571420000000103,
			"durationTicks": 120,
			"midi": 62,
			"name": "D4",
			"ticks": 20040,
			"time": 142.47126624166668,
			"velocity": 0.905511811023622
		  },
		  {
			"duration": 0.8571420000000103,
			"durationTicks": 120,
			"midi": 66,
			"name": "F#4",
			"ticks": 20040,
			"time": 142.47126624166668,
			"velocity": 0.905511811023622
		  },
		  {
			"duration": 0.8571420000000103,
			"durationTicks": 120,
			"midi": 69,
			"name": "A4",
			"ticks": 20040,
			"time": 142.47126624166668,
			"velocity": 0.905511811023622
		  },
		  {
			"duration": 0.8571420000000103,
			"durationTicks": 120,
			"midi": 57,
			"name": "A3",
			"ticks": 20040,
			"time": 142.47126624166668,
			"velocity": 0.905511811023622
		  },
		  {
			"duration": 0.8571419999999819,
			"durationTicks": 120,
			"midi": 60,
			"name": "C4",
			"ticks": 20160,
			"time": 143.3284082416667,
			"velocity": 0.905511811023622
		  },
		  {
			"duration": 0.8571419999999819,
			"durationTicks": 120,
			"midi": 62,
			"name": "D4",
			"ticks": 20160,
			"time": 143.3284082416667,
			"velocity": 0.905511811023622
		  },
		  {
			"duration": 0.8571419999999819,
			"durationTicks": 120,
			"midi": 65,
			"name": "F4",
			"ticks": 20160,
			"time": 143.3284082416667,
			"velocity": 0.905511811023622
		  },
		  {
			"duration": 0.8571420000000103,
			"durationTicks": 120,
			"midi": 60,
			"name": "C4",
			"ticks": 20280,
			"time": 144.18555024166668,
			"velocity": 0.905511811023622
		  },
		  {
			"duration": 0.8571420000000103,
			"durationTicks": 120,
			"midi": 62,
			"name": "D4",
			"ticks": 20280,
			"time": 144.18555024166668,
			"velocity": 0.905511811023622
		  },
		  {
			"duration": 0.8571420000000103,
			"durationTicks": 120,
			"midi": 65,
			"name": "F4",
			"ticks": 20280,
			"time": 144.18555024166668,
			"velocity": 0.905511811023622
		  },
		  {
			"duration": 0.8571419999999819,
			"durationTicks": 120,
			"midi": 62,
			"name": "D4",
			"ticks": 20400,
			"time": 145.04269224166669,
			"velocity": 0.905511811023622
		  },
		  {
			"duration": 0.8571419999999819,
			"durationTicks": 120,
			"midi": 65,
			"name": "F4",
			"ticks": 20400,
			"time": 145.04269224166669,
			"velocity": 0.905511811023622
		  },
		  {
			"duration": 0.8571419999999819,
			"durationTicks": 120,
			"midi": 67,
			"name": "G4",
			"ticks": 20400,
			"time": 145.04269224166669,
			"velocity": 0.905511811023622
		  },
		  {
			"duration": 0.8571419999999819,
			"durationTicks": 120,
			"midi": 58,
			"name": "A#3",
			"ticks": 20400,
			"time": 145.04269224166669,
			"velocity": 0.905511811023622
		  },
		  {
			"duration": 0.8571420000000103,
			"durationTicks": 120,
			"midi": 62,
			"name": "D4",
			"ticks": 20520,
			"time": 145.89983424166667,
			"velocity": 0.905511811023622
		  },
		  {
			"duration": 0.8571420000000103,
			"durationTicks": 120,
			"midi": 65,
			"name": "F4",
			"ticks": 20520,
			"time": 145.89983424166667,
			"velocity": 0.905511811023622
		  },
		  {
			"duration": 0.8571420000000103,
			"durationTicks": 120,
			"midi": 67,
			"name": "G4",
			"ticks": 20520,
			"time": 145.89983424166667,
			"velocity": 0.905511811023622
		  },
		  {
			"duration": 0.8571420000000103,
			"durationTicks": 120,
			"midi": 58,
			"name": "A#3",
			"ticks": 20520,
			"time": 145.89983424166667,
			"velocity": 0.905511811023622
		  },
		  {
			"duration": 0.8571420000000103,
			"durationTicks": 120,
			"midi": 64,
			"name": "E4",
			"ticks": 20640,
			"time": 146.75697624166668,
			"velocity": 0.905511811023622
		  },
		  {
			"duration": 0.8571420000000103,
			"durationTicks": 120,
			"midi": 66,
			"name": "F#4",
			"ticks": 20640,
			"time": 146.75697624166668,
			"velocity": 0.905511811023622
		  },
		  {
			"duration": 0.8571420000000103,
			"durationTicks": 120,
			"midi": 57,
			"name": "A3",
			"ticks": 20640,
			"time": 146.75697624166668,
			"velocity": 0.905511811023622
		  },
		  {
			"duration": 0.8571419999999819,
			"durationTicks": 120,
			"midi": 64,
			"name": "E4",
			"ticks": 20760,
			"time": 147.6141182416667,
			"velocity": 0.905511811023622
		  },
		  {
			"duration": 0.8571419999999819,
			"durationTicks": 120,
			"midi": 66,
			"name": "F#4",
			"ticks": 20760,
			"time": 147.6141182416667,
			"velocity": 0.905511811023622
		  },
		  {
			"duration": 0.8571419999999819,
			"durationTicks": 120,
			"midi": 57,
			"name": "A3",
			"ticks": 20760,
			"time": 147.6141182416667,
			"velocity": 0.905511811023622
		  },
		  {
			"duration": 0.8571420000000103,
			"durationTicks": 120,
			"midi": 62,
			"name": "D4",
			"ticks": 20880,
			"time": 148.47126024166667,
			"velocity": 0.905511811023622
		  },
		  {
			"duration": 0.8571420000000103,
			"durationTicks": 120,
			"midi": 66,
			"name": "F#4",
			"ticks": 20880,
			"time": 148.47126024166667,
			"velocity": 0.905511811023622
		  },
		  {
			"duration": 0.8571420000000103,
			"durationTicks": 120,
			"midi": 57,
			"name": "A3",
			"ticks": 20880,
			"time": 148.47126024166667,
			"velocity": 0.905511811023622
		  },
		  {
			"duration": 0.8571420000000103,
			"durationTicks": 120,
			"midi": 62,
			"name": "D4",
			"ticks": 21000,
			"time": 149.32840224166668,
			"velocity": 0.905511811023622
		  },
		  {
			"duration": 0.8571420000000103,
			"durationTicks": 120,
			"midi": 66,
			"name": "F#4",
			"ticks": 21000,
			"time": 149.32840224166668,
			"velocity": 0.905511811023622
		  },
		  {
			"duration": 0.8571420000000103,
			"durationTicks": 120,
			"midi": 57,
			"name": "A3",
			"ticks": 21000,
			"time": 149.32840224166668,
			"velocity": 0.905511811023622
		  },
		  {
			"duration": 0.8571419999999819,
			"durationTicks": 120,
			"midi": 65,
			"name": "F4",
			"ticks": 21120,
			"time": 150.1855442416667,
			"velocity": 0.905511811023622
		  },
		  {
			"duration": 0.8571419999999819,
			"durationTicks": 120,
			"midi": 60,
			"name": "C4",
			"ticks": 21120,
			"time": 150.1855442416667,
			"velocity": 0.905511811023622
		  },
		  {
			"duration": 0.8571419999999819,
			"durationTicks": 120,
			"midi": 58,
			"name": "A#3",
			"ticks": 21120,
			"time": 150.1855442416667,
			"velocity": 0.905511811023622
		  },
		  {
			"duration": 0.8571420000000103,
			"durationTicks": 120,
			"midi": 64,
			"name": "E4",
			"ticks": 21240,
			"time": 151.04268624166667,
			"velocity": 0.905511811023622
		  },
		  {
			"duration": 0.8571420000000103,
			"durationTicks": 120,
			"midi": 62,
			"name": "D4",
			"ticks": 21360,
			"time": 151.89982824166668,
			"velocity": 0.905511811023622
		  },
		  {
			"duration": 0.8571420000000103,
			"durationTicks": 120,
			"midi": 67,
			"name": "G4",
			"ticks": 21360,
			"time": 151.89982824166668,
			"velocity": 0.905511811023622
		  },
		  {
			"duration": 0.8571420000000103,
			"durationTicks": 120,
			"midi": 57,
			"name": "A3",
			"ticks": 21360,
			"time": 151.89982824166668,
			"velocity": 0.905511811023622
		  },
		  {
			"duration": 0.8571419999999819,
			"durationTicks": 120,
			"midi": 60,
			"name": "C4",
			"ticks": 21480,
			"time": 152.7569702416667,
			"velocity": 0.905511811023622
		  },
		  {
			"duration": 0.8571420000000103,
			"durationTicks": 120,
			"midi": 64,
			"name": "E4",
			"ticks": 21600,
			"time": 153.61411224166667,
			"velocity": 0.905511811023622
		  },
		  {
			"duration": 0.8571420000000103,
			"durationTicks": 120,
			"midi": 66,
			"name": "F#4",
			"ticks": 21600,
			"time": 153.61411224166667,
			"velocity": 0.905511811023622
		  },
		  {
			"duration": 0.8571420000000103,
			"durationTicks": 120,
			"midi": 57,
			"name": "A3",
			"ticks": 21600,
			"time": 153.61411224166667,
			"velocity": 0.905511811023622
		  },
		  {
			"duration": 0.8571419999999819,
			"durationTicks": 120,
			"midi": 64,
			"name": "E4",
			"ticks": 21720,
			"time": 154.47125424166668,
			"velocity": 0.905511811023622
		  },
		  {
			"duration": 0.8571419999999819,
			"durationTicks": 120,
			"midi": 66,
			"name": "F#4",
			"ticks": 21720,
			"time": 154.47125424166668,
			"velocity": 0.905511811023622
		  },
		  {
			"duration": 0.8571419999999819,
			"durationTicks": 120,
			"midi": 57,
			"name": "A3",
			"ticks": 21720,
			"time": 154.47125424166668,
			"velocity": 0.905511811023622
		  },
		  {
			"duration": 0.8571420000000103,
			"durationTicks": 120,
			"midi": 62,
			"name": "D4",
			"ticks": 21840,
			"time": 155.32839624166667,
			"velocity": 0.905511811023622
		  },
		  {
			"duration": 0.8571420000000103,
			"durationTicks": 120,
			"midi": 66,
			"name": "F#4",
			"ticks": 21840,
			"time": 155.32839624166667,
			"velocity": 0.905511811023622
		  },
		  {
			"duration": 0.8571420000000103,
			"durationTicks": 120,
			"midi": 69,
			"name": "A4",
			"ticks": 21840,
			"time": 155.32839624166667,
			"velocity": 0.905511811023622
		  },
		  {
			"duration": 0.8571420000000103,
			"durationTicks": 120,
			"midi": 57,
			"name": "A3",
			"ticks": 21840,
			"time": 155.32839624166667,
			"velocity": 0.905511811023622
		  },
		  {
			"duration": 0.8571420000000103,
			"durationTicks": 120,
			"midi": 62,
			"name": "D4",
			"ticks": 21960,
			"time": 156.18553824166668,
			"velocity": 0.905511811023622
		  },
		  {
			"duration": 0.8571420000000103,
			"durationTicks": 120,
			"midi": 66,
			"name": "F#4",
			"ticks": 21960,
			"time": 156.18553824166668,
			"velocity": 0.905511811023622
		  },
		  {
			"duration": 0.8571420000000103,
			"durationTicks": 120,
			"midi": 69,
			"name": "A4",
			"ticks": 21960,
			"time": 156.18553824166668,
			"velocity": 0.905511811023622
		  },
		  {
			"duration": 0.8571420000000103,
			"durationTicks": 120,
			"midi": 57,
			"name": "A3",
			"ticks": 21960,
			"time": 156.18553824166668,
			"velocity": 0.905511811023622
		  },
		  {
			"duration": 0.8571420000000103,
			"durationTicks": 120,
			"midi": 60,
			"name": "C4",
			"ticks": 22080,
			"time": 157.0426802416667,
			"velocity": 0.905511811023622
		  },
		  {
			"duration": 0.8571420000000103,
			"durationTicks": 120,
			"midi": 62,
			"name": "D4",
			"ticks": 22080,
			"time": 157.0426802416667,
			"velocity": 0.905511811023622
		  },
		  {
			"duration": 0.8571420000000103,
			"durationTicks": 120,
			"midi": 65,
			"name": "F4",
			"ticks": 22080,
			"time": 157.0426802416667,
			"velocity": 0.905511811023622
		  },
		  {
			"duration": 0.8571419999999819,
			"durationTicks": 120,
			"midi": 60,
			"name": "C4",
			"ticks": 22200,
			"time": 157.8998222416667,
			"velocity": 0.905511811023622
		  },
		  {
			"duration": 0.8571419999999819,
			"durationTicks": 120,
			"midi": 62,
			"name": "D4",
			"ticks": 22200,
			"time": 157.8998222416667,
			"velocity": 0.905511811023622
		  },
		  {
			"duration": 0.8571419999999819,
			"durationTicks": 120,
			"midi": 65,
			"name": "F4",
			"ticks": 22200,
			"time": 157.8998222416667,
			"velocity": 0.905511811023622
		  },
		  {
			"duration": 0.8571420000000103,
			"durationTicks": 120,
			"midi": 62,
			"name": "D4",
			"ticks": 22320,
			"time": 158.75696424166668,
			"velocity": 0.905511811023622
		  },
		  {
			"duration": 0.8571420000000103,
			"durationTicks": 120,
			"midi": 65,
			"name": "F4",
			"ticks": 22320,
			"time": 158.75696424166668,
			"velocity": 0.905511811023622
		  },
		  {
			"duration": 0.8571420000000103,
			"durationTicks": 120,
			"midi": 67,
			"name": "G4",
			"ticks": 22320,
			"time": 158.75696424166668,
			"velocity": 0.905511811023622
		  },
		  {
			"duration": 0.8571420000000103,
			"durationTicks": 120,
			"midi": 58,
			"name": "A#3",
			"ticks": 22320,
			"time": 158.75696424166668,
			"velocity": 0.905511811023622
		  },
		  {
			"duration": 0.8571419999999819,
			"durationTicks": 120,
			"midi": 62,
			"name": "D4",
			"ticks": 22440,
			"time": 159.6141062416667,
			"velocity": 0.905511811023622
		  },
		  {
			"duration": 0.8571419999999819,
			"durationTicks": 120,
			"midi": 65,
			"name": "F4",
			"ticks": 22440,
			"time": 159.6141062416667,
			"velocity": 0.905511811023622
		  },
		  {
			"duration": 0.8571419999999819,
			"durationTicks": 120,
			"midi": 67,
			"name": "G4",
			"ticks": 22440,
			"time": 159.6141062416667,
			"velocity": 0.905511811023622
		  },
		  {
			"duration": 0.8571419999999819,
			"durationTicks": 120,
			"midi": 58,
			"name": "A#3",
			"ticks": 22440,
			"time": 159.6141062416667,
			"velocity": 0.905511811023622
		  },
		  {
			"duration": 0.8571420000000103,
			"durationTicks": 120,
			"midi": 64,
			"name": "E4",
			"ticks": 22560,
			"time": 160.47124824166667,
			"velocity": 0.905511811023622
		  },
		  {
			"duration": 0.8571420000000103,
			"durationTicks": 120,
			"midi": 66,
			"name": "F#4",
			"ticks": 22560,
			"time": 160.47124824166667,
			"velocity": 0.905511811023622
		  },
		  {
			"duration": 0.8571420000000103,
			"durationTicks": 120,
			"midi": 57,
			"name": "A3",
			"ticks": 22560,
			"time": 160.47124824166667,
			"velocity": 0.905511811023622
		  },
		  {
			"duration": 0.8571420000000103,
			"durationTicks": 120,
			"midi": 64,
			"name": "E4",
			"ticks": 22680,
			"time": 161.32839024166668,
			"velocity": 0.905511811023622
		  },
		  {
			"duration": 0.8571420000000103,
			"durationTicks": 120,
			"midi": 66,
			"name": "F#4",
			"ticks": 22680,
			"time": 161.32839024166668,
			"velocity": 0.905511811023622
		  },
		  {
			"duration": 0.8571420000000103,
			"durationTicks": 120,
			"midi": 57,
			"name": "A3",
			"ticks": 22680,
			"time": 161.32839024166668,
			"velocity": 0.905511811023622
		  },
		  {
			"duration": 0.8571419999999819,
			"durationTicks": 120,
			"midi": 62,
			"name": "D4",
			"ticks": 22800,
			"time": 162.1855322416667,
			"velocity": 0.905511811023622
		  },
		  {
			"duration": 0.8571419999999819,
			"durationTicks": 120,
			"midi": 66,
			"name": "F#4",
			"ticks": 22800,
			"time": 162.1855322416667,
			"velocity": 0.905511811023622
		  },
		  {
			"duration": 0.8571419999999819,
			"durationTicks": 120,
			"midi": 57,
			"name": "A3",
			"ticks": 22800,
			"time": 162.1855322416667,
			"velocity": 0.905511811023622
		  },
		  {
			"duration": 0.8571420000000103,
			"durationTicks": 120,
			"midi": 62,
			"name": "D4",
			"ticks": 22920,
			"time": 163.04267424166667,
			"velocity": 0.905511811023622
		  },
		  {
			"duration": 0.8571420000000103,
			"durationTicks": 120,
			"midi": 66,
			"name": "F#4",
			"ticks": 22920,
			"time": 163.04267424166667,
			"velocity": 0.905511811023622
		  },
		  {
			"duration": 0.8571420000000103,
			"durationTicks": 120,
			"midi": 57,
			"name": "A3",
			"ticks": 22920,
			"time": 163.04267424166667,
			"velocity": 0.905511811023622
		  },
		  {
			"duration": 0.8571420000000103,
			"durationTicks": 120,
			"midi": 65,
			"name": "F4",
			"ticks": 23040,
			"time": 163.89981624166668,
			"velocity": 0.905511811023622
		  },
		  {
			"duration": 0.8571420000000103,
			"durationTicks": 120,
			"midi": 60,
			"name": "C4",
			"ticks": 23040,
			"time": 163.89981624166668,
			"velocity": 0.905511811023622
		  },
		  {
			"duration": 0.8571420000000103,
			"durationTicks": 120,
			"midi": 58,
			"name": "A#3",
			"ticks": 23040,
			"time": 163.89981624166668,
			"velocity": 0.905511811023622
		  },
		  {
			"duration": 0.8571419999999819,
			"durationTicks": 120,
			"midi": 64,
			"name": "E4",
			"ticks": 23160,
			"time": 164.7569582416667,
			"velocity": 0.8582677165354331
		  },
		  {
			"duration": 0.8571420000000103,
			"durationTicks": 120,
			"midi": 62,
			"name": "D4",
			"ticks": 23280,
			"time": 165.61410024166668,
			"velocity": 0.8110236220472441
		  },
		  {
			"duration": 0.8571420000000103,
			"durationTicks": 120,
			"midi": 67,
			"name": "G4",
			"ticks": 23280,
			"time": 165.61410024166668,
			"velocity": 0.8110236220472441
		  },
		  {
			"duration": 0.8571420000000103,
			"durationTicks": 120,
			"midi": 57,
			"name": "A3",
			"ticks": 23280,
			"time": 165.61410024166668,
			"velocity": 0.8110236220472441
		  },
		  {
			"duration": 0.8571420000000103,
			"durationTicks": 120,
			"midi": 64,
			"name": "E4",
			"ticks": 23400,
			"time": 166.4712422416667,
			"velocity": 0.7637795275590551
		  },
		  {
			"duration": 3.4285679999999843,
			"durationTicks": 480,
			"midi": 62,
			"name": "D4",
			"ticks": 23520,
			"time": 167.3283842416667,
			"velocity": 0.7086614173228346
		  },
		  {
			"duration": 3.4285679999999843,
			"durationTicks": 480,
			"midi": 69,
			"name": "A4",
			"ticks": 23520,
			"time": 167.3283842416667,
			"velocity": 0.7086614173228346
		  },
		  {
			"duration": 3.4285679999999843,
			"durationTicks": 480,
			"midi": 64,
			"name": "E4",
			"ticks": 23520,
			"time": 167.3283842416667,
			"velocity": 0.7086614173228346
		  },
		  {
			"duration": 3.4285679999999843,
			"durationTicks": 480,
			"midi": 58,
			"name": "A#3",
			"ticks": 23520,
			"time": 167.3283842416667,
			"velocity": 0.7086614173228346
		  },
		  {
			"duration": 3.4285679999999843,
			"durationTicks": 480,
			"midi": 60,
			"name": "C4",
			"ticks": 24000,
			"time": 170.75695224166668,
			"velocity": 0.7086614173228346
		  },
		  {
			"duration": 3.4285679999999843,
			"durationTicks": 480,
			"midi": 62,
			"name": "D4",
			"ticks": 24000,
			"time": 170.75695224166668,
			"velocity": 0.7086614173228346
		  },
		  {
			"duration": 3.4285679999999843,
			"durationTicks": 480,
			"midi": 64,
			"name": "E4",
			"ticks": 24000,
			"time": 170.75695224166668,
			"velocity": 0.7086614173228346
		  },
		  {
			"duration": 3.4285679999999843,
			"durationTicks": 480,
			"midi": 67,
			"name": "G4",
			"ticks": 24000,
			"time": 170.75695224166668,
			"velocity": 0.7086614173228346
		  },
		  {
			"duration": 0.8571420000000103,
			"durationTicks": 120,
			"midi": 64,
			"name": "E4",
			"ticks": 24480,
			"time": 174.18552024166667,
			"velocity": 0.905511811023622
		  },
		  {
			"duration": 0.8571420000000103,
			"durationTicks": 120,
			"midi": 66,
			"name": "F#4",
			"ticks": 24480,
			"time": 174.18552024166667,
			"velocity": 0.905511811023622
		  },
		  {
			"duration": 0.8571420000000103,
			"durationTicks": 120,
			"midi": 69,
			"name": "A4",
			"ticks": 24480,
			"time": 174.18552024166667,
			"velocity": 0.905511811023622
		  },
		  {
			"duration": 0.8571420000000103,
			"durationTicks": 120,
			"midi": 57,
			"name": "A3",
			"ticks": 24480,
			"time": 174.18552024166667,
			"velocity": 0.905511811023622
		  },
		  {
			"duration": 0.8571420000000103,
			"durationTicks": 120,
			"midi": 64,
			"name": "E4",
			"ticks": 24600,
			"time": 175.04266224166668,
			"velocity": 0.905511811023622
		  },
		  {
			"duration": 0.8571420000000103,
			"durationTicks": 120,
			"midi": 66,
			"name": "F#4",
			"ticks": 24600,
			"time": 175.04266224166668,
			"velocity": 0.905511811023622
		  },
		  {
			"duration": 0.8571420000000103,
			"durationTicks": 120,
			"midi": 69,
			"name": "A4",
			"ticks": 24600,
			"time": 175.04266224166668,
			"velocity": 0.905511811023622
		  },
		  {
			"duration": 0.8571420000000103,
			"durationTicks": 120,
			"midi": 57,
			"name": "A3",
			"ticks": 24600,
			"time": 175.04266224166668,
			"velocity": 0.905511811023622
		  },
		  {
			"duration": 0.8571420000000103,
			"durationTicks": 120,
			"midi": 62,
			"name": "D4",
			"ticks": 24720,
			"time": 175.8998042416667,
			"velocity": 0.905511811023622
		  },
		  {
			"duration": 0.8571420000000103,
			"durationTicks": 120,
			"midi": 66,
			"name": "F#4",
			"ticks": 24720,
			"time": 175.8998042416667,
			"velocity": 0.905511811023622
		  },
		  {
			"duration": 0.8571420000000103,
			"durationTicks": 120,
			"midi": 69,
			"name": "A4",
			"ticks": 24720,
			"time": 175.8998042416667,
			"velocity": 0.905511811023622
		  },
		  {
			"duration": 0.8571420000000103,
			"durationTicks": 120,
			"midi": 57,
			"name": "A3",
			"ticks": 24720,
			"time": 175.8998042416667,
			"velocity": 0.905511811023622
		  },
		  {
			"duration": 0.8571419999999819,
			"durationTicks": 120,
			"midi": 62,
			"name": "D4",
			"ticks": 24840,
			"time": 176.7569462416667,
			"velocity": 0.905511811023622
		  },
		  {
			"duration": 0.8571419999999819,
			"durationTicks": 120,
			"midi": 66,
			"name": "F#4",
			"ticks": 24840,
			"time": 176.7569462416667,
			"velocity": 0.905511811023622
		  },
		  {
			"duration": 0.8571419999999819,
			"durationTicks": 120,
			"midi": 69,
			"name": "A4",
			"ticks": 24840,
			"time": 176.7569462416667,
			"velocity": 0.905511811023622
		  },
		  {
			"duration": 0.8571419999999819,
			"durationTicks": 120,
			"midi": 57,
			"name": "A3",
			"ticks": 24840,
			"time": 176.7569462416667,
			"velocity": 0.905511811023622
		  },
		  {
			"duration": 0.8571420000000103,
			"durationTicks": 120,
			"midi": 60,
			"name": "C4",
			"ticks": 24960,
			"time": 177.61408824166668,
			"velocity": 0.905511811023622
		  },
		  {
			"duration": 0.8571420000000103,
			"durationTicks": 120,
			"midi": 62,
			"name": "D4",
			"ticks": 24960,
			"time": 177.61408824166668,
			"velocity": 0.905511811023622
		  },
		  {
			"duration": 0.8571420000000103,
			"durationTicks": 120,
			"midi": 65,
			"name": "F4",
			"ticks": 24960,
			"time": 177.61408824166668,
			"velocity": 0.905511811023622
		  },
		  {
			"duration": 0.8571419999999819,
			"durationTicks": 120,
			"midi": 60,
			"name": "C4",
			"ticks": 25080,
			"time": 178.4712302416667,
			"velocity": 0.905511811023622
		  },
		  {
			"duration": 0.8571419999999819,
			"durationTicks": 120,
			"midi": 62,
			"name": "D4",
			"ticks": 25080,
			"time": 178.4712302416667,
			"velocity": 0.905511811023622
		  },
		  {
			"duration": 0.8571419999999819,
			"durationTicks": 120,
			"midi": 65,
			"name": "F4",
			"ticks": 25080,
			"time": 178.4712302416667,
			"velocity": 0.905511811023622
		  },
		  {
			"duration": 0.8571420000000103,
			"durationTicks": 120,
			"midi": 62,
			"name": "D4",
			"ticks": 25200,
			"time": 179.32837224166667,
			"velocity": 0.905511811023622
		  },
		  {
			"duration": 0.8571420000000103,
			"durationTicks": 120,
			"midi": 65,
			"name": "F4",
			"ticks": 25200,
			"time": 179.32837224166667,
			"velocity": 0.905511811023622
		  },
		  {
			"duration": 0.8571420000000103,
			"durationTicks": 120,
			"midi": 67,
			"name": "G4",
			"ticks": 25200,
			"time": 179.32837224166667,
			"velocity": 0.905511811023622
		  },
		  {
			"duration": 0.8571420000000103,
			"durationTicks": 120,
			"midi": 58,
			"name": "A#3",
			"ticks": 25200,
			"time": 179.32837224166667,
			"velocity": 0.905511811023622
		  },
		  {
			"duration": 0.8571420000000103,
			"durationTicks": 120,
			"midi": 62,
			"name": "D4",
			"ticks": 25320,
			"time": 180.18551424166668,
			"velocity": 0.905511811023622
		  },
		  {
			"duration": 0.8571420000000103,
			"durationTicks": 120,
			"midi": 65,
			"name": "F4",
			"ticks": 25320,
			"time": 180.18551424166668,
			"velocity": 0.905511811023622
		  },
		  {
			"duration": 0.8571420000000103,
			"durationTicks": 120,
			"midi": 67,
			"name": "G4",
			"ticks": 25320,
			"time": 180.18551424166668,
			"velocity": 0.905511811023622
		  },
		  {
			"duration": 0.8571420000000103,
			"durationTicks": 120,
			"midi": 58,
			"name": "A#3",
			"ticks": 25320,
			"time": 180.18551424166668,
			"velocity": 0.905511811023622
		  },
		  {
			"duration": 0.8571420000000103,
			"durationTicks": 120,
			"midi": 64,
			"name": "E4",
			"ticks": 25440,
			"time": 181.0426562416667,
			"velocity": 0.905511811023622
		  },
		  {
			"duration": 0.8571420000000103,
			"durationTicks": 120,
			"midi": 66,
			"name": "F#4",
			"ticks": 25440,
			"time": 181.0426562416667,
			"velocity": 0.905511811023622
		  },
		  {
			"duration": 0.8571420000000103,
			"durationTicks": 120,
			"midi": 57,
			"name": "A3",
			"ticks": 25440,
			"time": 181.0426562416667,
			"velocity": 0.905511811023622
		  },
		  {
			"duration": 0.8571419999999819,
			"durationTicks": 120,
			"midi": 64,
			"name": "E4",
			"ticks": 25560,
			"time": 181.8997982416667,
			"velocity": 0.905511811023622
		  },
		  {
			"duration": 0.8571419999999819,
			"durationTicks": 120,
			"midi": 66,
			"name": "F#4",
			"ticks": 25560,
			"time": 181.8997982416667,
			"velocity": 0.905511811023622
		  },
		  {
			"duration": 0.8571419999999819,
			"durationTicks": 120,
			"midi": 57,
			"name": "A3",
			"ticks": 25560,
			"time": 181.8997982416667,
			"velocity": 0.905511811023622
		  },
		  {
			"duration": 0.8571420000000103,
			"durationTicks": 120,
			"midi": 62,
			"name": "D4",
			"ticks": 25680,
			"time": 182.75694024166668,
			"velocity": 0.905511811023622
		  },
		  {
			"duration": 0.8571420000000103,
			"durationTicks": 120,
			"midi": 66,
			"name": "F#4",
			"ticks": 25680,
			"time": 182.75694024166668,
			"velocity": 0.905511811023622
		  },
		  {
			"duration": 0.8571420000000103,
			"durationTicks": 120,
			"midi": 57,
			"name": "A3",
			"ticks": 25680,
			"time": 182.75694024166668,
			"velocity": 0.905511811023622
		  },
		  {
			"duration": 0.8571419999999819,
			"durationTicks": 120,
			"midi": 62,
			"name": "D4",
			"ticks": 25800,
			"time": 183.6140822416667,
			"velocity": 0.905511811023622
		  },
		  {
			"duration": 0.8571419999999819,
			"durationTicks": 120,
			"midi": 66,
			"name": "F#4",
			"ticks": 25800,
			"time": 183.6140822416667,
			"velocity": 0.905511811023622
		  },
		  {
			"duration": 0.8571419999999819,
			"durationTicks": 120,
			"midi": 57,
			"name": "A3",
			"ticks": 25800,
			"time": 183.6140822416667,
			"velocity": 0.905511811023622
		  },
		  {
			"duration": 0.8571420000000103,
			"durationTicks": 120,
			"midi": 65,
			"name": "F4",
			"ticks": 25920,
			"time": 184.47122424166668,
			"velocity": 0.905511811023622
		  },
		  {
			"duration": 0.8571420000000103,
			"durationTicks": 120,
			"midi": 60,
			"name": "C4",
			"ticks": 25920,
			"time": 184.47122424166668,
			"velocity": 0.905511811023622
		  },
		  {
			"duration": 0.8571420000000103,
			"durationTicks": 120,
			"midi": 58,
			"name": "A#3",
			"ticks": 25920,
			"time": 184.47122424166668,
			"velocity": 0.905511811023622
		  },
		  {
			"duration": 0.8571420000000103,
			"durationTicks": 120,
			"midi": 64,
			"name": "E4",
			"ticks": 26040,
			"time": 185.32836624166669,
			"velocity": 0.905511811023622
		  },
		  {
			"duration": 0.8571419999999819,
			"durationTicks": 120,
			"midi": 62,
			"name": "D4",
			"ticks": 26160,
			"time": 186.1855082416667,
			"velocity": 0.905511811023622
		  },
		  {
			"duration": 0.8571419999999819,
			"durationTicks": 120,
			"midi": 67,
			"name": "G4",
			"ticks": 26160,
			"time": 186.1855082416667,
			"velocity": 0.905511811023622
		  },
		  {
			"duration": 0.8571419999999819,
			"durationTicks": 120,
			"midi": 57,
			"name": "A3",
			"ticks": 26160,
			"time": 186.1855082416667,
			"velocity": 0.905511811023622
		  },
		  {
			"duration": 0.8571420000000103,
			"durationTicks": 120,
			"midi": 60,
			"name": "C4",
			"ticks": 26280,
			"time": 187.04265024166668,
			"velocity": 0.905511811023622
		  },
		  {
			"duration": 0.8571419999999819,
			"durationTicks": 120,
			"midi": 64,
			"name": "E4",
			"ticks": 26400,
			"time": 187.8997922416667,
			"velocity": 0.905511811023622
		  },
		  {
			"duration": 0.8571419999999819,
			"durationTicks": 120,
			"midi": 66,
			"name": "F#4",
			"ticks": 26400,
			"time": 187.8997922416667,
			"velocity": 0.905511811023622
		  },
		  {
			"duration": 0.8571419999999819,
			"durationTicks": 120,
			"midi": 57,
			"name": "A3",
			"ticks": 26400,
			"time": 187.8997922416667,
			"velocity": 0.905511811023622
		  },
		  {
			"duration": 0.8571420000000103,
			"durationTicks": 120,
			"midi": 64,
			"name": "E4",
			"ticks": 26520,
			"time": 188.75693424166667,
			"velocity": 0.905511811023622
		  },
		  {
			"duration": 0.8571420000000103,
			"durationTicks": 120,
			"midi": 66,
			"name": "F#4",
			"ticks": 26520,
			"time": 188.75693424166667,
			"velocity": 0.905511811023622
		  },
		  {
			"duration": 0.8571420000000103,
			"durationTicks": 120,
			"midi": 57,
			"name": "A3",
			"ticks": 26520,
			"time": 188.75693424166667,
			"velocity": 0.905511811023622
		  },
		  {
			"duration": 0.8571420000000103,
			"durationTicks": 120,
			"midi": 62,
			"name": "D4",
			"ticks": 26640,
			"time": 189.61407624166668,
			"velocity": 0.905511811023622
		  },
		  {
			"duration": 0.8571420000000103,
			"durationTicks": 120,
			"midi": 66,
			"name": "F#4",
			"ticks": 26640,
			"time": 189.61407624166668,
			"velocity": 0.905511811023622
		  },
		  {
			"duration": 0.8571420000000103,
			"durationTicks": 120,
			"midi": 69,
			"name": "A4",
			"ticks": 26640,
			"time": 189.61407624166668,
			"velocity": 0.905511811023622
		  },
		  {
			"duration": 0.8571420000000103,
			"durationTicks": 120,
			"midi": 57,
			"name": "A3",
			"ticks": 26640,
			"time": 189.61407624166668,
			"velocity": 0.905511811023622
		  },
		  {
			"duration": 0.8571420000000103,
			"durationTicks": 120,
			"midi": 62,
			"name": "D4",
			"ticks": 26760,
			"time": 190.4712182416667,
			"velocity": 0.905511811023622
		  },
		  {
			"duration": 0.8571420000000103,
			"durationTicks": 120,
			"midi": 66,
			"name": "F#4",
			"ticks": 26760,
			"time": 190.4712182416667,
			"velocity": 0.905511811023622
		  },
		  {
			"duration": 0.8571420000000103,
			"durationTicks": 120,
			"midi": 69,
			"name": "A4",
			"ticks": 26760,
			"time": 190.4712182416667,
			"velocity": 0.905511811023622
		  },
		  {
			"duration": 0.8571420000000103,
			"durationTicks": 120,
			"midi": 57,
			"name": "A3",
			"ticks": 26760,
			"time": 190.4712182416667,
			"velocity": 0.905511811023622
		  },
		  {
			"duration": 0.8571419999999819,
			"durationTicks": 120,
			"midi": 60,
			"name": "C4",
			"ticks": 26880,
			"time": 191.3283602416667,
			"velocity": 0.905511811023622
		  },
		  {
			"duration": 0.8571419999999819,
			"durationTicks": 120,
			"midi": 62,
			"name": "D4",
			"ticks": 26880,
			"time": 191.3283602416667,
			"velocity": 0.905511811023622
		  },
		  {
			"duration": 0.8571419999999819,
			"durationTicks": 120,
			"midi": 65,
			"name": "F4",
			"ticks": 26880,
			"time": 191.3283602416667,
			"velocity": 0.905511811023622
		  },
		  {
			"duration": 0.8571420000000103,
			"durationTicks": 120,
			"midi": 60,
			"name": "C4",
			"ticks": 27000,
			"time": 192.18550224166668,
			"velocity": 0.905511811023622
		  },
		  {
			"duration": 0.8571420000000103,
			"durationTicks": 120,
			"midi": 62,
			"name": "D4",
			"ticks": 27000,
			"time": 192.18550224166668,
			"velocity": 0.905511811023622
		  },
		  {
			"duration": 0.8571420000000103,
			"durationTicks": 120,
			"midi": 65,
			"name": "F4",
			"ticks": 27000,
			"time": 192.18550224166668,
			"velocity": 0.905511811023622
		  },
		  {
			"duration": 0.8571419999999819,
			"durationTicks": 120,
			"midi": 62,
			"name": "D4",
			"ticks": 27120,
			"time": 193.0426442416667,
			"velocity": 0.905511811023622
		  },
		  {
			"duration": 0.8571419999999819,
			"durationTicks": 120,
			"midi": 65,
			"name": "F4",
			"ticks": 27120,
			"time": 193.0426442416667,
			"velocity": 0.905511811023622
		  },
		  {
			"duration": 0.8571419999999819,
			"durationTicks": 120,
			"midi": 67,
			"name": "G4",
			"ticks": 27120,
			"time": 193.0426442416667,
			"velocity": 0.905511811023622
		  },
		  {
			"duration": 0.8571419999999819,
			"durationTicks": 120,
			"midi": 58,
			"name": "A#3",
			"ticks": 27120,
			"time": 193.0426442416667,
			"velocity": 0.905511811023622
		  },
		  {
			"duration": 0.8571420000000103,
			"durationTicks": 120,
			"midi": 62,
			"name": "D4",
			"ticks": 27240,
			"time": 193.89978624166667,
			"velocity": 0.905511811023622
		  },
		  {
			"duration": 0.8571420000000103,
			"durationTicks": 120,
			"midi": 65,
			"name": "F4",
			"ticks": 27240,
			"time": 193.89978624166667,
			"velocity": 0.905511811023622
		  },
		  {
			"duration": 0.8571420000000103,
			"durationTicks": 120,
			"midi": 67,
			"name": "G4",
			"ticks": 27240,
			"time": 193.89978624166667,
			"velocity": 0.905511811023622
		  },
		  {
			"duration": 0.8571420000000103,
			"durationTicks": 120,
			"midi": 58,
			"name": "A#3",
			"ticks": 27240,
			"time": 193.89978624166667,
			"velocity": 0.905511811023622
		  },
		  {
			"duration": 0.8571420000000103,
			"durationTicks": 120,
			"midi": 64,
			"name": "E4",
			"ticks": 27360,
			"time": 194.75692824166669,
			"velocity": 0.905511811023622
		  },
		  {
			"duration": 0.8571420000000103,
			"durationTicks": 120,
			"midi": 66,
			"name": "F#4",
			"ticks": 27360,
			"time": 194.75692824166669,
			"velocity": 0.905511811023622
		  },
		  {
			"duration": 0.8571420000000103,
			"durationTicks": 120,
			"midi": 57,
			"name": "A3",
			"ticks": 27360,
			"time": 194.75692824166669,
			"velocity": 0.905511811023622
		  },
		  {
			"duration": 0.8571419999999819,
			"durationTicks": 120,
			"midi": 64,
			"name": "E4",
			"ticks": 27480,
			"time": 195.6140702416667,
			"velocity": 0.905511811023622
		  },
		  {
			"duration": 0.8571419999999819,
			"durationTicks": 120,
			"midi": 66,
			"name": "F#4",
			"ticks": 27480,
			"time": 195.6140702416667,
			"velocity": 0.905511811023622
		  },
		  {
			"duration": 0.8571419999999819,
			"durationTicks": 120,
			"midi": 57,
			"name": "A3",
			"ticks": 27480,
			"time": 195.6140702416667,
			"velocity": 0.905511811023622
		  },
		  {
			"duration": 0.8571420000000103,
			"durationTicks": 120,
			"midi": 62,
			"name": "D4",
			"ticks": 27600,
			"time": 196.47121224166668,
			"velocity": 0.905511811023622
		  },
		  {
			"duration": 0.8571420000000103,
			"durationTicks": 120,
			"midi": 66,
			"name": "F#4",
			"ticks": 27600,
			"time": 196.47121224166668,
			"velocity": 0.905511811023622
		  },
		  {
			"duration": 0.8571420000000103,
			"durationTicks": 120,
			"midi": 57,
			"name": "A3",
			"ticks": 27600,
			"time": 196.47121224166668,
			"velocity": 0.905511811023622
		  },
		  {
			"duration": 0.8571419999999819,
			"durationTicks": 120,
			"midi": 62,
			"name": "D4",
			"ticks": 27720,
			"time": 197.3283542416667,
			"velocity": 0.905511811023622
		  },
		  {
			"duration": 0.8571419999999819,
			"durationTicks": 120,
			"midi": 66,
			"name": "F#4",
			"ticks": 27720,
			"time": 197.3283542416667,
			"velocity": 0.905511811023622
		  },
		  {
			"duration": 0.8571419999999819,
			"durationTicks": 120,
			"midi": 57,
			"name": "A3",
			"ticks": 27720,
			"time": 197.3283542416667,
			"velocity": 0.905511811023622
		  },
		  {
			"duration": 0.8571420000000103,
			"durationTicks": 120,
			"midi": 65,
			"name": "F4",
			"ticks": 27840,
			"time": 198.18549624166667,
			"velocity": 0.905511811023622
		  },
		  {
			"duration": 0.8571420000000103,
			"durationTicks": 120,
			"midi": 60,
			"name": "C4",
			"ticks": 27840,
			"time": 198.18549624166667,
			"velocity": 0.905511811023622
		  },
		  {
			"duration": 0.8571420000000103,
			"durationTicks": 120,
			"midi": 58,
			"name": "A#3",
			"ticks": 27840,
			"time": 198.18549624166667,
			"velocity": 0.905511811023622
		  },
		  {
			"duration": 0.8571420000000103,
			"durationTicks": 120,
			"midi": 64,
			"name": "E4",
			"ticks": 27960,
			"time": 199.04263824166668,
			"velocity": 0.8582677165354331
		  },
		  {
			"duration": 0.8571420000000103,
			"durationTicks": 120,
			"midi": 62,
			"name": "D4",
			"ticks": 28080,
			"time": 199.8997802416667,
			"velocity": 0.8110236220472441
		  },
		  {
			"duration": 0.8571420000000103,
			"durationTicks": 120,
			"midi": 67,
			"name": "G4",
			"ticks": 28080,
			"time": 199.8997802416667,
			"velocity": 0.8110236220472441
		  },
		  {
			"duration": 0.8571420000000103,
			"durationTicks": 120,
			"midi": 57,
			"name": "A3",
			"ticks": 28080,
			"time": 199.8997802416667,
			"velocity": 0.8110236220472441
		  },
		  {
			"duration": 0.8571419999999819,
			"durationTicks": 120,
			"midi": 64,
			"name": "E4",
			"ticks": 28200,
			"time": 200.7569222416667,
			"velocity": 0.7637795275590551
		  },
		  {
			"duration": 3.4285680000000127,
			"durationTicks": 480,
			"midi": 62,
			"name": "D4",
			"ticks": 28320,
			"time": 201.61406424166668,
			"velocity": 0.7086614173228346
		  },
		  {
			"duration": 3.4285680000000127,
			"durationTicks": 480,
			"midi": 64,
			"name": "E4",
			"ticks": 28320,
			"time": 201.61406424166668,
			"velocity": 0.7086614173228346
		  },
		  {
			"duration": 3.4285680000000127,
			"durationTicks": 480,
			"midi": 69,
			"name": "A4",
			"ticks": 28320,
			"time": 201.61406424166668,
			"velocity": 0.7086614173228346
		  },
		  {
			"duration": 3.4285680000000127,
			"durationTicks": 480,
			"midi": 58,
			"name": "A#3",
			"ticks": 28320,
			"time": 201.61406424166668,
			"velocity": 0.7086614173228346
		  },
		  {
			"duration": 3.4285679999999843,
			"durationTicks": 480,
			"midi": 60,
			"name": "C4",
			"ticks": 28800,
			"time": 205.0426322416667,
			"velocity": 0.7086614173228346
		  },
		  {
			"duration": 3.4285679999999843,
			"durationTicks": 480,
			"midi": 62,
			"name": "D4",
			"ticks": 28800,
			"time": 205.0426322416667,
			"velocity": 0.7086614173228346
		  },
		  {
			"duration": 3.4285679999999843,
			"durationTicks": 480,
			"midi": 64,
			"name": "E4",
			"ticks": 28800,
			"time": 205.0426322416667,
			"velocity": 0.7086614173228346
		  },
		  {
			"duration": 3.4285679999999843,
			"durationTicks": 480,
			"midi": 67,
			"name": "G4",
			"ticks": 28800,
			"time": 205.0426322416667,
			"velocity": 0.7086614173228346
		  }
		]
	  },
	  {
		"channel": 1,
		"controlChanges": {
		  "64": [
			{
			  "number": 64,
			  "ticks": 0,
			  "time": 0,
			  "value": 0.007874015748031496
			},
			{
			  "number": 64,
			  "ticks": 29280,
			  "time": 208.47120024166668,
			  "value": 0
			},
			{
			  "number": 64,
			  "ticks": 29280,
			  "time": 208.47120024166668,
			  "value": 0.007874015748031496
			}
		  ]
		},
		"pitchBends": [],
		"instrument": {
		  "family": "piano",
		  "name": "acoustic grand piano",
		  "number": 0
		},
		"name": "tr2",
		"notes": [
		  {
			"duration": 1.7142840000000001,
			"durationTicks": 240,
			"midi": 86,
			"name": "D6",
			"ticks": 0,
			"time": 0,
			"velocity": 0.5118110236220472
		  },
		  {
			"duration": 1.7142840000000001,
			"durationTicks": 240,
			"midi": 84,
			"name": "C6",
			"ticks": 240,
			"time": 1.7142840000000001,
			"velocity": 0.5118110236220472
		  },
		  {
			"duration": 1.7142840000000001,
			"durationTicks": 240,
			"midi": 82,
			"name": "A#5",
			"ticks": 480,
			"time": 3.4285680000000003,
			"velocity": 0.5118110236220472
		  },
		  {
			"duration": 1.7142840000000001,
			"durationTicks": 240,
			"midi": 81,
			"name": "A5",
			"ticks": 720,
			"time": 5.142852,
			"velocity": 0.5118110236220472
		  },
		  {
			"duration": 0.8571419999999996,
			"durationTicks": 120,
			"midi": 79,
			"name": "G5",
			"ticks": 960,
			"time": 6.857136000000001,
			"velocity": 0.5118110236220472
		  },
		  {
			"duration": 0.8571419999999996,
			"durationTicks": 120,
			"midi": 70,
			"name": "A#4",
			"ticks": 1080,
			"time": 7.714278,
			"velocity": 0.5118110236220472
		  },
		  {
			"duration": 0.8571420000000014,
			"durationTicks": 120,
			"midi": 77,
			"name": "F5",
			"ticks": 1200,
			"time": 8.57142,
			"velocity": 0.5118110236220472
		  },
		  {
			"duration": 0.8571419999999996,
			"durationTicks": 120,
			"midi": 69,
			"name": "A4",
			"ticks": 1320,
			"time": 9.428562000000001,
			"velocity": 0.5118110236220472
		  },
		  {
			"duration": 0.8571419999999996,
			"durationTicks": 120,
			"midi": 76,
			"name": "E5",
			"ticks": 1440,
			"time": 10.285704,
			"velocity": 0.5118110236220472
		  },
		  {
			"duration": 0.8571420000000014,
			"durationTicks": 120,
			"midi": 74,
			"name": "D5",
			"ticks": 1560,
			"time": 11.142846,
			"velocity": 0.5118110236220472
		  },
		  {
			"duration": 1.7142839999999993,
			"durationTicks": 240,
			"midi": 73,
			"name": "C#5",
			"ticks": 1680,
			"time": 11.999988000000002,
			"velocity": 0.5118110236220472
		  },
		  {
			"duration": 1.7142839999999993,
			"durationTicks": 240,
			"midi": 74,
			"name": "D5",
			"ticks": 1920,
			"time": 13.714272000000001,
			"velocity": 0.5118110236220472
		  },
		  {
			"duration": 1.7142839999999993,
			"durationTicks": 240,
			"midi": 72,
			"name": "C5",
			"ticks": 2160,
			"time": 15.428556,
			"velocity": 0.5511811023622047
		  },
		  {
			"duration": 1.7142840000000028,
			"durationTicks": 240,
			"midi": 70,
			"name": "A#4",
			"ticks": 2400,
			"time": 17.14284,
			"velocity": 0.5511811023622047
		  },
		  {
			"duration": 1.7142839999999993,
			"durationTicks": 240,
			"midi": 69,
			"name": "A4",
			"ticks": 2640,
			"time": 18.857124000000002,
			"velocity": 0.5511811023622047
		  },
		  {
			"duration": 0.8571419999999996,
			"durationTicks": 120,
			"midi": 67,
			"name": "G4",
			"ticks": 2880,
			"time": 20.571408,
			"velocity": 0.5511811023622047
		  },
		  {
			"duration": 0.8571419999999996,
			"durationTicks": 120,
			"midi": 58,
			"name": "A#3",
			"ticks": 3000,
			"time": 21.42855,
			"velocity": 0.5511811023622047
		  },
		  {
			"duration": 0.8571419999999996,
			"durationTicks": 120,
			"midi": 65,
			"name": "F4",
			"ticks": 3120,
			"time": 22.285692,
			"velocity": 0.5511811023622047
		  },
		  {
			"duration": 0.8571420000000032,
			"durationTicks": 120,
			"midi": 57,
			"name": "A3",
			"ticks": 3240,
			"time": 23.142834,
			"velocity": 0.5511811023622047
		  },
		  {
			"duration": 0.8571419999999996,
			"durationTicks": 120,
			"midi": 64,
			"name": "E4",
			"ticks": 3360,
			"time": 23.999976000000004,
			"velocity": 0.5511811023622047
		  },
		  {
			"duration": 0.8571419999999996,
			"durationTicks": 120,
			"midi": 62,
			"name": "D4",
			"ticks": 3480,
			"time": 24.857118000000003,
			"velocity": 0.5511811023622047
		  },
		  {
			"duration": 0.8571419999999996,
			"durationTicks": 120,
			"midi": 61,
			"name": "C#4",
			"ticks": 3600,
			"time": 25.714260000000003,
			"velocity": 0.5511811023622047
		  },
		  {
			"duration": 0.8571419999999996,
			"durationTicks": 120,
			"midi": 57,
			"name": "A3",
			"ticks": 3720,
			"time": 26.571402000000003,
			"velocity": 0.5511811023622047
		  },
		  {
			"duration": 0.8571419999999996,
			"durationTicks": 120,
			"midi": 49,
			"name": "C#3",
			"ticks": 3720,
			"time": 26.571402000000003,
			"velocity": 0.5511811023622047
		  },
		  {
			"duration": 1.7142839999999993,
			"durationTicks": 240,
			"midi": 62,
			"name": "D4",
			"ticks": 3840,
			"time": 27.428544000000002,
			"velocity": 0.5511811023622047
		  },
		  {
			"duration": 1.7142839999999993,
			"durationTicks": 240,
			"midi": 60,
			"name": "C4",
			"ticks": 4080,
			"time": 29.142828,
			"velocity": 0.5905511811023622
		  },
		  {
			"duration": 1.7142839999999993,
			"durationTicks": 240,
			"midi": 58,
			"name": "A#3",
			"ticks": 4320,
			"time": 30.857112,
			"velocity": 0.5905511811023622
		  },
		  {
			"duration": 1.7142839999999993,
			"durationTicks": 240,
			"midi": 57,
			"name": "A3",
			"ticks": 4560,
			"time": 32.571396,
			"velocity": 0.5905511811023622
		  },
		  {
			"duration": 0.8571420000000032,
			"durationTicks": 120,
			"midi": 55,
			"name": "G3",
			"ticks": 4800,
			"time": 34.28568,
			"velocity": 0.5905511811023622
		  },
		  {
			"duration": 0.8571420000000032,
			"durationTicks": 120,
			"midi": 46,
			"name": "A#2",
			"ticks": 4920,
			"time": 35.142822,
			"velocity": 0.5905511811023622
		  },
		  {
			"duration": 0.8571419999999961,
			"durationTicks": 120,
			"midi": 53,
			"name": "F3",
			"ticks": 5040,
			"time": 35.999964000000006,
			"velocity": 0.5905511811023622
		  },
		  {
			"duration": 0.8571420000000032,
			"durationTicks": 120,
			"midi": 45,
			"name": "A2",
			"ticks": 5160,
			"time": 36.857106,
			"velocity": 0.5905511811023622
		  },
		  {
			"duration": 0.8571419999999961,
			"durationTicks": 120,
			"midi": 52,
			"name": "E3",
			"ticks": 5280,
			"time": 37.714248000000005,
			"velocity": 0.5905511811023622
		  },
		  {
			"duration": 0.8571420000000032,
			"durationTicks": 120,
			"midi": 50,
			"name": "D3",
			"ticks": 5400,
			"time": 38.57139,
			"velocity": 0.5905511811023622
		  },
		  {
			"duration": 0.8571419999999961,
			"durationTicks": 120,
			"midi": 49,
			"name": "C#3",
			"ticks": 5520,
			"time": 39.428532000000004,
			"velocity": 0.5905511811023622
		  },
		  {
			"duration": 4.285710000000002,
			"durationTicks": 600,
			"midi": 45,
			"name": "A2",
			"ticks": 5640,
			"time": 40.285674,
			"velocity": 0.905511811023622
		  },
		  {
			"duration": 4.285710000000002,
			"durationTicks": 600,
			"midi": 37,
			"name": "C#2",
			"ticks": 5640,
			"time": 40.285674,
			"velocity": 0.905511811023622
		  },
		  {
			"duration": 3.4285680000000056,
			"durationTicks": 480,
			"midi": 33,
			"name": "A1",
			"ticks": 6240,
			"time": 44.571384,
			"velocity": 0.905511811023622
		  },
		  {
			"duration": 3.4285679999999985,
			"durationTicks": 480,
			"midi": 50,
			"name": "D3",
			"ticks": 6720,
			"time": 47.99995200000001,
			"velocity": 0.7480314960629921
		  },
		  {
			"duration": 3.4285679999999985,
			"durationTicks": 480,
			"midi": 38,
			"name": "D2",
			"ticks": 6720,
			"time": 47.99995200000001,
			"velocity": 0.7480314960629921
		  },
		  {
			"duration": 3.4285679999999985,
			"durationTicks": 480,
			"midi": 43,
			"name": "G2",
			"ticks": 7200,
			"time": 51.428520000000006,
			"velocity": 0.6692913385826772
		  },
		  {
			"duration": 3.4285679999999985,
			"durationTicks": 480,
			"midi": 31,
			"name": "G1",
			"ticks": 7200,
			"time": 51.428520000000006,
			"velocity": 0.6692913385826772
		  },
		  {
			"duration": 3.4285679999999985,
			"durationTicks": 480,
			"midi": 50,
			"name": "D3",
			"ticks": 7680,
			"time": 54.857088000000005,
			"velocity": 0.6692913385826772
		  },
		  {
			"duration": 3.4285679999999985,
			"durationTicks": 480,
			"midi": 38,
			"name": "D2",
			"ticks": 7680,
			"time": 54.857088000000005,
			"velocity": 0.6692913385826772
		  },
		  {
			"duration": 1.7142839999999993,
			"durationTicks": 240,
			"midi": 43,
			"name": "G2",
			"ticks": 8160,
			"time": 58.285656,
			"velocity": 0.6692913385826772
		  },
		  {
			"duration": 1.7142839999999993,
			"durationTicks": 240,
			"midi": 31,
			"name": "G1",
			"ticks": 8160,
			"time": 58.285656,
			"velocity": 0.6692913385826772
		  },
		  {
			"duration": 1.7142839999999993,
			"durationTicks": 240,
			"midi": 45,
			"name": "A2",
			"ticks": 8400,
			"time": 59.99994,
			"velocity": 0.6692913385826772
		  },
		  {
			"duration": 1.7142839999999993,
			"durationTicks": 240,
			"midi": 33,
			"name": "A1",
			"ticks": 8400,
			"time": 59.99994,
			"velocity": 0.6692913385826772
		  },
		  {
			"duration": 3.4285679999999985,
			"durationTicks": 480,
			"midi": 50,
			"name": "D3",
			"ticks": 8640,
			"time": 61.714224,
			"velocity": 0.6692913385826772
		  },
		  {
			"duration": 3.4285679999999985,
			"durationTicks": 480,
			"midi": 38,
			"name": "D2",
			"ticks": 8640,
			"time": 61.714224,
			"velocity": 0.6692913385826772
		  },
		  {
			"duration": 3.4285679999999985,
			"durationTicks": 480,
			"midi": 43,
			"name": "G2",
			"ticks": 9120,
			"time": 65.142792,
			"velocity": 0.6692913385826772
		  },
		  {
			"duration": 3.4285679999999985,
			"durationTicks": 480,
			"midi": 31,
			"name": "G1",
			"ticks": 9120,
			"time": 65.142792,
			"velocity": 0.6692913385826772
		  },
		  {
			"duration": 3.4285680000000127,
			"durationTicks": 480,
			"midi": 50,
			"name": "D3",
			"ticks": 9600,
			"time": 68.57136,
			"velocity": 0.6692913385826772
		  },
		  {
			"duration": 3.4285680000000127,
			"durationTicks": 480,
			"midi": 38,
			"name": "D2",
			"ticks": 9600,
			"time": 68.57136,
			"velocity": 0.6692913385826772
		  },
		  {
			"duration": 1.73430639999998,
			"durationTicks": 240,
			"midi": 43,
			"name": "G2",
			"ticks": 10080,
			"time": 71.99992800000001,
			"velocity": 0.6692913385826772
		  },
		  {
			"duration": 1.73430639999998,
			"durationTicks": 240,
			"midi": 31,
			"name": "G1",
			"ticks": 10080,
			"time": 71.99992800000001,
			"velocity": 0.6692913385826772
		  },
		  {
			"duration": 1.7966304000000122,
			"durationTicks": 240,
			"midi": 45,
			"name": "A2",
			"ticks": 10320,
			"time": 73.73423439999999,
			"velocity": 0.6141732283464567
		  },
		  {
			"duration": 1.7966304000000122,
			"durationTicks": 240,
			"midi": 33,
			"name": "A1",
			"ticks": 10320,
			"time": 73.73423439999999,
			"velocity": 0.6141732283464567
		  },
		  {
			"duration": 3.692303999999993,
			"durationTicks": 480,
			"midi": 46,
			"name": "A#2",
			"ticks": 10560,
			"time": 75.5308648,
			"velocity": 0.5511811023622047
		  },
		  {
			"duration": 3.692303999999993,
			"durationTicks": 480,
			"midi": 34,
			"name": "A#1",
			"ticks": 10560,
			"time": 75.5308648,
			"velocity": 0.5511811023622047
		  },
		  {
			"duration": 3.692304000000007,
			"durationTicks": 480,
			"midi": 48,
			"name": "C3",
			"ticks": 11040,
			"time": 79.2231688,
			"velocity": 0.5511811023622047
		  },
		  {
			"duration": 3.692304000000007,
			"durationTicks": 480,
			"midi": 36,
			"name": "C2",
			"ticks": 11040,
			"time": 79.2231688,
			"velocity": 0.5511811023622047
		  },
		  {
			"duration": 1.7142840000000064,
			"durationTicks": 240,
			"midi": 62,
			"name": "D4",
			"ticks": 11520,
			"time": 82.9154728,
			"velocity": 0.5511811023622047
		  },
		  {
			"duration": 1.7142839999999921,
			"durationTicks": 240,
			"midi": 60,
			"name": "C4",
			"ticks": 11760,
			"time": 84.62975680000001,
			"velocity": 0.5511811023622047
		  },
		  {
			"duration": 1.7142840000000064,
			"durationTicks": 240,
			"midi": 58,
			"name": "A#3",
			"ticks": 12000,
			"time": 86.3440408,
			"velocity": 0.5511811023622047
		  },
		  {
			"duration": 1.7142839999999921,
			"durationTicks": 240,
			"midi": 57,
			"name": "A3",
			"ticks": 12240,
			"time": 88.05832480000001,
			"velocity": 0.5511811023622047
		  },
		  {
			"duration": 0.8571420000000103,
			"durationTicks": 120,
			"midi": 55,
			"name": "G3",
			"ticks": 12480,
			"time": 89.7726088,
			"velocity": 0.5511811023622047
		  },
		  {
			"duration": 0.8571419999999961,
			"durationTicks": 120,
			"midi": 46,
			"name": "A#2",
			"ticks": 12600,
			"time": 90.62975080000001,
			"velocity": 0.5511811023622047
		  },
		  {
			"duration": 0.8571419999999961,
			"durationTicks": 120,
			"midi": 53,
			"name": "F3",
			"ticks": 12720,
			"time": 91.4868928,
			"velocity": 0.5511811023622047
		  },
		  {
			"duration": 0.8571419999999961,
			"durationTicks": 120,
			"midi": 45,
			"name": "A2",
			"ticks": 12840,
			"time": 92.3440348,
			"velocity": 0.5511811023622047
		  },
		  {
			"duration": 0.8571420000000103,
			"durationTicks": 120,
			"midi": 52,
			"name": "E3",
			"ticks": 12960,
			"time": 93.2011768,
			"velocity": 0.5511811023622047
		  },
		  {
			"duration": 0.8571419999999961,
			"durationTicks": 120,
			"midi": 50,
			"name": "D3",
			"ticks": 13080,
			"time": 94.05831880000001,
			"velocity": 0.5511811023622047
		  },
		  {
			"duration": 0.8571419999999961,
			"durationTicks": 120,
			"midi": 49,
			"name": "C#3",
			"ticks": 13200,
			"time": 94.9154608,
			"velocity": 0.5511811023622047
		  },
		  {
			"duration": 0.8571419999999961,
			"durationTicks": 120,
			"midi": 45,
			"name": "A2",
			"ticks": 13320,
			"time": 95.7726028,
			"velocity": 0.5511811023622047
		  },
		  {
			"duration": 0.8571419999999961,
			"durationTicks": 120,
			"midi": 37,
			"name": "C#2",
			"ticks": 13320,
			"time": 95.7726028,
			"velocity": 0.5511811023622047
		  },
		  {
			"duration": 1.7142840000000064,
			"durationTicks": 240,
			"midi": 50,
			"name": "D3",
			"ticks": 13440,
			"time": 96.6297448,
			"velocity": 0.5511811023622047
		  },
		  {
			"duration": 1.7142840000000064,
			"durationTicks": 240,
			"midi": 48,
			"name": "C3",
			"ticks": 13680,
			"time": 98.3440288,
			"velocity": 0.5511811023622047
		  },
		  {
			"duration": 1.7142839999999921,
			"durationTicks": 240,
			"midi": 46,
			"name": "A#2",
			"ticks": 13920,
			"time": 100.05831280000001,
			"velocity": 0.5511811023622047
		  },
		  {
			"duration": 1.7142840000000064,
			"durationTicks": 240,
			"midi": 45,
			"name": "A2",
			"ticks": 14160,
			"time": 101.7725968,
			"velocity": 0.5511811023622047
		  },
		  {
			"duration": 0.8571419999999961,
			"durationTicks": 120,
			"midi": 43,
			"name": "G2",
			"ticks": 14400,
			"time": 103.48688080000001,
			"velocity": 0.5511811023622047
		  },
		  {
			"duration": 0.8571419999999961,
			"durationTicks": 120,
			"midi": 46,
			"name": "A#2",
			"ticks": 14520,
			"time": 104.3440228,
			"velocity": 0.5511811023622047
		  },
		  {
			"duration": 0.8571419999999961,
			"durationTicks": 120,
			"midi": 41,
			"name": "F2",
			"ticks": 14640,
			"time": 105.2011648,
			"velocity": 0.5511811023622047
		  },
		  {
			"duration": 0.8571420000000103,
			"durationTicks": 120,
			"midi": 45,
			"name": "A2",
			"ticks": 14760,
			"time": 106.0583068,
			"velocity": 0.5511811023622047
		  },
		  {
			"duration": 0.8571419999999961,
			"durationTicks": 120,
			"midi": 40,
			"name": "E2",
			"ticks": 14880,
			"time": 106.91544880000001,
			"velocity": 0.5511811023622047
		  },
		  {
			"duration": 0.8571419999999961,
			"durationTicks": 120,
			"midi": 38,
			"name": "D2",
			"ticks": 15000,
			"time": 107.7725908,
			"velocity": 0.5511811023622047
		  },
		  {
			"duration": 0.8571420000000103,
			"durationTicks": 120,
			"midi": 37,
			"name": "C#2",
			"ticks": 15120,
			"time": 108.6297328,
			"velocity": 0.5511811023622047
		  },
		  {
			"duration": 4.285709999999995,
			"durationTicks": 600,
			"midi": 33,
			"name": "A1",
			"ticks": 15240,
			"time": 109.48687480000001,
			"velocity": 0.8661417322834646
		  },
		  {
			"duration": 4.285709999999995,
			"durationTicks": 600,
			"midi": 25,
			"name": "C#1",
			"ticks": 15240,
			"time": 109.48687480000001,
			"velocity": 0.8661417322834646
		  },
		  {
			"duration": 3.4285679999999985,
			"durationTicks": 480,
			"midi": 21,
			"name": "A0",
			"ticks": 15840,
			"time": 113.7725848,
			"velocity": 0.5511811023622047
		  },
		  {
			"duration": 1.7142840000000064,
			"durationTicks": 240,
			"midi": 86,
			"name": "D6",
			"ticks": 16320,
			"time": 117.2011528,
			"velocity": 0.47244094488188976
		  },
		  {
			"duration": 1.7142839999999921,
			"durationTicks": 240,
			"midi": 84,
			"name": "C6",
			"ticks": 16560,
			"time": 118.91543680000001,
			"velocity": 0.5511811023622047
		  },
		  {
			"duration": 1.7142840000000064,
			"durationTicks": 240,
			"midi": 82,
			"name": "A#5",
			"ticks": 16800,
			"time": 120.6297208,
			"velocity": 0.5511811023622047
		  },
		  {
			"duration": 1.7142840000000064,
			"durationTicks": 240,
			"midi": 81,
			"name": "A5",
			"ticks": 17040,
			"time": 122.34400480000001,
			"velocity": 0.5511811023622047
		  },
		  {
			"duration": 0.8571419999999961,
			"durationTicks": 120,
			"midi": 79,
			"name": "G5",
			"ticks": 17280,
			"time": 124.05828880000001,
			"velocity": 0.5511811023622047
		  },
		  {
			"duration": 0.8571419999999961,
			"durationTicks": 120,
			"midi": 70,
			"name": "A#4",
			"ticks": 17400,
			"time": 124.91543080000001,
			"velocity": 0.5511811023622047
		  },
		  {
			"duration": 0.8571420000000103,
			"durationTicks": 120,
			"midi": 77,
			"name": "F5",
			"ticks": 17520,
			"time": 125.7725728,
			"velocity": 0.5511811023622047
		  },
		  {
			"duration": 0.8571419999999819,
			"durationTicks": 120,
			"midi": 69,
			"name": "A4",
			"ticks": 17640,
			"time": 126.62971480000002,
			"velocity": 0.5511811023622047
		  },
		  {
			"duration": 0.8571420000000103,
			"durationTicks": 120,
			"midi": 76,
			"name": "E5",
			"ticks": 17760,
			"time": 127.4868568,
			"velocity": 0.5511811023622047
		  },
		  {
			"duration": 0.8571420000000103,
			"durationTicks": 120,
			"midi": 74,
			"name": "D5",
			"ticks": 17880,
			"time": 128.3439988,
			"velocity": 0.5511811023622047
		  },
		  {
			"duration": 5.142852000000005,
			"durationTicks": 720,
			"midi": 73,
			"name": "C#5",
			"ticks": 18000,
			"time": 129.20114080000002,
			"velocity": 0.5511811023622047
		  },
		  {
			"duration": 0.10674034999996707,
			"durationTicks": 15,
			"midi": 45,
			"name": "A2",
			"ticks": 18720,
			"time": 134.34399280000002,
			"velocity": 0.47244094488188976
		  },
		  {
			"duration": 0.10494909166666844,
			"durationTicks": 15,
			"midi": 47,
			"name": "B2",
			"ticks": 18735,
			"time": 134.45073315,
			"velocity": 0.48031496062992124
		  },
		  {
			"duration": 0.10321529166665755,
			"durationTicks": 15,
			"midi": 49,
			"name": "C#3",
			"ticks": 18750,
			"time": 134.55568224166666,
			"velocity": 0.49606299212598426
		  },
		  {
			"duration": 0.10126364166666235,
			"durationTicks": 15,
			"midi": 50,
			"name": "D3",
			"ticks": 18765,
			"time": 134.65889753333332,
			"velocity": 0.5118110236220472
		  },
		  {
			"duration": 0.09956137500003592,
			"durationTicks": 15,
			"midi": 52,
			"name": "E3",
			"ticks": 18780,
			"time": 134.76016117499998,
			"velocity": 0.5196850393700787
		  },
		  {
			"duration": 0.0980005916666471,
			"durationTicks": 15,
			"midi": 54,
			"name": "F#3",
			"ticks": 18795,
			"time": 134.85972255000001,
			"velocity": 0.5354330708661418
		  },
		  {
			"duration": 0.09640349999997966,
			"durationTicks": 15,
			"midi": 55,
			"name": "G3",
			"ticks": 18810,
			"time": 134.95772314166666,
			"velocity": 0.5511811023622047
		  },
		  {
			"duration": 0.09469930000000204,
			"durationTicks": 15,
			"midi": 57,
			"name": "A3",
			"ticks": 18825,
			"time": 135.05412664166664,
			"velocity": 0.5590551181102362
		  },
		  {
			"duration": 0.09320983333330446,
			"durationTicks": 15,
			"midi": 54,
			"name": "F#3",
			"ticks": 18840,
			"time": 135.14882594166664,
			"velocity": 0.5748031496062992
		  },
		  {
			"duration": 0.09183975000001965,
			"durationTicks": 15,
			"midi": 55,
			"name": "G3",
			"ticks": 18855,
			"time": 135.24203577499995,
			"velocity": 0.5905511811023622
		  },
		  {
			"duration": 0.0904365916666734,
			"durationTicks": 15,
			"midi": 57,
			"name": "A3",
			"ticks": 18870,
			"time": 135.33387552499997,
			"velocity": 0.5984251968503937
		  },
		  {
			"duration": 0.08893550000001937,
			"durationTicks": 15,
			"midi": 59,
			"name": "B3",
			"ticks": 18885,
			"time": 135.42431211666664,
			"velocity": 0.6141732283464567
		  },
		  {
			"duration": 0.08768804999999702,
			"durationTicks": 15,
			"midi": 61,
			"name": "C#4",
			"ticks": 18900,
			"time": 135.51324761666666,
			"velocity": 0.6299212598425197
		  },
		  {
			"duration": 0.086474174999978,
			"durationTicks": 15,
			"midi": 62,
			"name": "D4",
			"ticks": 18915,
			"time": 135.60093566666666,
			"velocity": 0.6299212598425197
		  },
		  {
			"duration": 0.08503572499998313,
			"durationTicks": 15,
			"midi": 64,
			"name": "E4",
			"ticks": 18930,
			"time": 135.68740984166664,
			"velocity": 0.6299212598425197
		  },
		  {
			"duration": 0.08389507500001514,
			"durationTicks": 15,
			"midi": 66,
			"name": "F#4",
			"ticks": 18945,
			"time": 135.77244556666662,
			"velocity": 0.6299212598425197
		  },
		  {
			"duration": 0.08278380000001562,
			"durationTicks": 15,
			"midi": 62,
			"name": "D4",
			"ticks": 18960,
			"time": 135.85634064166663,
			"velocity": 0.6299212598425197
		  },
		  {
			"duration": 0.08158264166667095,
			"durationTicks": 15,
			"midi": 64,
			"name": "E4",
			"ticks": 18975,
			"time": 135.93912444166665,
			"velocity": 0.6220472440944882
		  },
		  {
			"duration": 0.08041632499998741,
			"durationTicks": 15,
			"midi": 66,
			"name": "F#4",
			"ticks": 18990,
			"time": 136.02070708333332,
			"velocity": 0.6141732283464567
		  },
		  {
			"duration": 0.07933919166666215,
			"durationTicks": 15,
			"midi": 67,
			"name": "G4",
			"ticks": 19005,
			"time": 136.1011234083333,
			"velocity": 0.6062992125984252
		  },
		  {
			"duration": 0.0783442666666474,
			"durationTicks": 15,
			"midi": 69,
			"name": "A4",
			"ticks": 19020,
			"time": 136.18046259999997,
			"velocity": 0.5984251968503937
		  },
		  {
			"duration": 0.07726800000000367,
			"durationTicks": 15,
			"midi": 71,
			"name": "B4",
			"ticks": 19035,
			"time": 136.25880686666662,
			"velocity": 0.5905511811023622
		  },
		  {
			"duration": 0.07622130000001448,
			"durationTicks": 15,
			"midi": 73,
			"name": "C#5",
			"ticks": 19050,
			"time": 136.33607486666662,
			"velocity": 0.5826771653543307
		  },
		  {
			"duration": 0.07530299999999102,
			"durationTicks": 15,
			"midi": 74,
			"name": "D5",
			"ticks": 19065,
			"time": 136.41229616666664,
			"velocity": 0.5748031496062992
		  },
		  {
			"duration": 0.07440590000001635,
			"durationTicks": 15,
			"midi": 71,
			"name": "B4",
			"ticks": 19080,
			"time": 136.48759916666663,
			"velocity": 0.5669291338582677
		  },
		  {
			"duration": 0.07352937499999257,
			"durationTicks": 15,
			"midi": 73,
			"name": "C#5",
			"ticks": 19095,
			"time": 136.56200506666664,
			"velocity": 0.5590551181102362
		  },
		  {
			"duration": 0.07352937500002099,
			"durationTicks": 15,
			"midi": 74,
			"name": "D5",
			"ticks": 19110,
			"time": 136.63553444166664,
			"velocity": 0.5511811023622047
		  },
		  {
			"duration": 0.07352937499999257,
			"durationTicks": 15,
			"midi": 76,
			"name": "E5",
			"ticks": 19125,
			"time": 136.70906381666666,
			"velocity": 0.5433070866141733
		  },
		  {
			"duration": 0.07352937499999257,
			"durationTicks": 15,
			"midi": 78,
			"name": "F#5",
			"ticks": 19140,
			"time": 136.78259319166665,
			"velocity": 0.5354330708661418
		  },
		  {
			"duration": 0.07352937499999257,
			"durationTicks": 15,
			"midi": 79,
			"name": "G5",
			"ticks": 19155,
			"time": 136.85612256666664,
			"velocity": 0.5275590551181102
		  },
		  {
			"duration": 0.07352937500002099,
			"durationTicks": 15,
			"midi": 76,
			"name": "E5",
			"ticks": 19170,
			"time": 136.92965194166663,
			"velocity": 0.5196850393700787
		  },
		  {
			"duration": 0.07352937499999257,
			"durationTicks": 15,
			"midi": 78,
			"name": "F#5",
			"ticks": 19185,
			"time": 137.00318131666666,
			"velocity": 0.5118110236220472
		  },
		  {
			"duration": 0.07352937499999257,
			"durationTicks": 15,
			"midi": 79,
			"name": "G5",
			"ticks": 19200,
			"time": 137.07671069166665,
			"velocity": 0.5039370078740157
		  },
		  {
			"duration": 0.07352937499999257,
			"durationTicks": 15,
			"midi": 81,
			"name": "A5",
			"ticks": 19215,
			"time": 137.15024006666664,
			"velocity": 0.49606299212598426
		  },
		  {
			"duration": 0.07352937500002099,
			"durationTicks": 15,
			"midi": 83,
			"name": "B5",
			"ticks": 19230,
			"time": 137.22376944166663,
			"velocity": 0.4881889763779528
		  },
		  {
			"duration": 0.07352937499999257,
			"durationTicks": 15,
			"midi": 85,
			"name": "C#6",
			"ticks": 19245,
			"time": 137.29729881666665,
			"velocity": 0.48031496062992124
		  },
		  {
			"duration": 0.07352937499999257,
			"durationTicks": 15,
			"midi": 86,
			"name": "D6",
			"ticks": 19260,
			"time": 137.37082819166665,
			"velocity": 0.47244094488188976
		  },
		  {
			"duration": 0.07411469999999554,
			"durationTicks": 15,
			"midi": 83,
			"name": "B5",
			"ticks": 19275,
			"time": 137.44435756666664,
			"velocity": 0.4645669291338583
		  },
		  {
			"duration": 0.0759152000000256,
			"durationTicks": 15,
			"midi": 85,
			"name": "C#6",
			"ticks": 19290,
			"time": 137.51847226666663,
			"velocity": 0.4566929133858268
		  },
		  {
			"duration": 0.07796725000000038,
			"durationTicks": 15,
			"midi": 86,
			"name": "D6",
			"ticks": 19305,
			"time": 137.59438746666666,
			"velocity": 0.44881889763779526
		  },
		  {
			"duration": 0.07996234999998819,
			"durationTicks": 15,
			"midi": 88,
			"name": "E6",
			"ticks": 19320,
			"time": 137.67235471666666,
			"velocity": 0.4409448818897638
		  },
		  {
			"duration": 0.08224229999999011,
			"durationTicks": 15,
			"midi": 90,
			"name": "F#6",
			"ticks": 19335,
			"time": 137.75231706666665,
			"velocity": 0.4409448818897638
		  },
		  {
			"duration": 0.08446539999999914,
			"durationTicks": 15,
			"midi": 91,
			"name": "G6",
			"ticks": 19350,
			"time": 137.83455936666664,
			"velocity": 0.4409448818897638
		  },
		  {
			"duration": 0.08701349999998342,
			"durationTicks": 15,
			"midi": 93,
			"name": "A6",
			"ticks": 19365,
			"time": 137.91902476666664,
			"velocity": 0.4409448818897638
		  },
		  {
			"duration": 0.0895058500000232,
			"durationTicks": 15,
			"midi": 95,
			"name": "B6",
			"ticks": 19380,
			"time": 138.00603826666662,
			"velocity": 0.4409448818897638
		  },
		  {
			"duration": 0.0923723500000051,
			"durationTicks": 15,
			"midi": 97,
			"name": "C#7",
			"ticks": 19395,
			"time": 138.09554411666664,
			"velocity": 0.4409448818897638
		  },
		  {
			"duration": 0.09518615000001773,
			"durationTicks": 15,
			"midi": 98,
			"name": "D7",
			"ticks": 19410,
			"time": 138.18791646666665,
			"velocity": 0.4409448818897638
		  },
		  {
			"duration": 0.09843465000000151,
			"durationTicks": 15,
			"midi": 100,
			"name": "E7",
			"ticks": 19425,
			"time": 138.28310261666667,
			"velocity": 0.4409448818897638
		  },
		  {
			"duration": 0.10163635000000681,
			"durationTicks": 15,
			"midi": 102,
			"name": "F#7",
			"ticks": 19440,
			"time": 138.38153726666667,
			"velocity": 0.4409448818897638
		  },
		  {
			"duration": 0.10416662500000484,
			"durationTicks": 15,
			"midi": 103,
			"name": "G7",
			"ticks": 19455,
			"time": 138.48317361666668,
			"velocity": 0.4409448818897638
		  },
		  {
			"duration": 0.09375,
			"durationTicks": 15,
			"midi": 105,
			"name": "A7",
			"ticks": 19470,
			"time": 138.58734024166668,
			"velocity": 0.4409448818897638
		  },
		  {
			"duration": 1.285712999999987,
			"durationTicks": 180,
			"midi": 50,
			"name": "D3",
			"ticks": 19680,
			"time": 139.89984024166668,
			"velocity": 0.7559055118110236
		  },
		  {
			"duration": 1.285712999999987,
			"durationTicks": 180,
			"midi": 38,
			"name": "D2",
			"ticks": 19680,
			"time": 139.89984024166668,
			"velocity": 0.7559055118110236
		  },
		  {
			"duration": 0.42857100000000514,
			"durationTicks": 60,
			"midi": 50,
			"name": "D3",
			"ticks": 19860,
			"time": 141.18555324166667,
			"velocity": 0.7559055118110236
		  },
		  {
			"duration": 1.2857130000000154,
			"durationTicks": 180,
			"midi": 50,
			"name": "D3",
			"ticks": 19920,
			"time": 141.61412424166667,
			"velocity": 0.7559055118110236
		  },
		  {
			"duration": 1.2857130000000154,
			"durationTicks": 180,
			"midi": 38,
			"name": "D2",
			"ticks": 19920,
			"time": 141.61412424166667,
			"velocity": 0.7559055118110236
		  },
		  {
			"duration": 0.42857100000000514,
			"durationTicks": 60,
			"midi": 50,
			"name": "D3",
			"ticks": 20100,
			"time": 142.8998372416667,
			"velocity": 0.7559055118110236
		  },
		  {
			"duration": 1.285712999999987,
			"durationTicks": 180,
			"midi": 43,
			"name": "G2",
			"ticks": 20160,
			"time": 143.3284082416667,
			"velocity": 0.7559055118110236
		  },
		  {
			"duration": 1.285712999999987,
			"durationTicks": 180,
			"midi": 31,
			"name": "G1",
			"ticks": 20160,
			"time": 143.3284082416667,
			"velocity": 0.7559055118110236
		  },
		  {
			"duration": 0.42857100000000514,
			"durationTicks": 60,
			"midi": 43,
			"name": "G2",
			"ticks": 20340,
			"time": 144.61412124166668,
			"velocity": 0.7559055118110236
		  },
		  {
			"duration": 1.285712999999987,
			"durationTicks": 180,
			"midi": 43,
			"name": "G2",
			"ticks": 20400,
			"time": 145.04269224166669,
			"velocity": 0.7559055118110236
		  },
		  {
			"duration": 1.285712999999987,
			"durationTicks": 180,
			"midi": 31,
			"name": "G1",
			"ticks": 20400,
			"time": 145.04269224166669,
			"velocity": 0.7559055118110236
		  },
		  {
			"duration": 0.42857100000000514,
			"durationTicks": 60,
			"midi": 43,
			"name": "G2",
			"ticks": 20580,
			"time": 146.32840524166667,
			"velocity": 0.7559055118110236
		  },
		  {
			"duration": 1.2857130000000154,
			"durationTicks": 180,
			"midi": 50,
			"name": "D3",
			"ticks": 20640,
			"time": 146.75697624166668,
			"velocity": 0.7559055118110236
		  },
		  {
			"duration": 1.2857130000000154,
			"durationTicks": 180,
			"midi": 38,
			"name": "D2",
			"ticks": 20640,
			"time": 146.75697624166668,
			"velocity": 0.7559055118110236
		  },
		  {
			"duration": 0.4285709999999767,
			"durationTicks": 60,
			"midi": 50,
			"name": "D3",
			"ticks": 20820,
			"time": 148.0426892416667,
			"velocity": 0.7559055118110236
		  },
		  {
			"duration": 1.2857130000000154,
			"durationTicks": 180,
			"midi": 50,
			"name": "D3",
			"ticks": 20880,
			"time": 148.47126024166667,
			"velocity": 0.7559055118110236
		  },
		  {
			"duration": 1.2857130000000154,
			"durationTicks": 180,
			"midi": 38,
			"name": "D2",
			"ticks": 20880,
			"time": 148.47126024166667,
			"velocity": 0.7559055118110236
		  },
		  {
			"duration": 0.42857100000000514,
			"durationTicks": 60,
			"midi": 50,
			"name": "D3",
			"ticks": 21060,
			"time": 149.75697324166669,
			"velocity": 0.7559055118110236
		  },
		  {
			"duration": 1.285712999999987,
			"durationTicks": 180,
			"midi": 43,
			"name": "G2",
			"ticks": 21120,
			"time": 150.1855442416667,
			"velocity": 0.7559055118110236
		  },
		  {
			"duration": 1.285712999999987,
			"durationTicks": 180,
			"midi": 31,
			"name": "G1",
			"ticks": 21120,
			"time": 150.1855442416667,
			"velocity": 0.7559055118110236
		  },
		  {
			"duration": 0.42857100000000514,
			"durationTicks": 60,
			"midi": 43,
			"name": "G2",
			"ticks": 21300,
			"time": 151.47125724166668,
			"velocity": 0.7559055118110236
		  },
		  {
			"duration": 1.285712999999987,
			"durationTicks": 180,
			"midi": 45,
			"name": "A2",
			"ticks": 21360,
			"time": 151.89982824166668,
			"velocity": 0.7559055118110236
		  },
		  {
			"duration": 1.285712999999987,
			"durationTicks": 180,
			"midi": 33,
			"name": "A1",
			"ticks": 21360,
			"time": 151.89982824166668,
			"velocity": 0.7559055118110236
		  },
		  {
			"duration": 0.42857100000000514,
			"durationTicks": 60,
			"midi": 45,
			"name": "A2",
			"ticks": 21540,
			"time": 153.18554124166667,
			"velocity": 0.7559055118110236
		  },
		  {
			"duration": 1.2857130000000154,
			"durationTicks": 180,
			"midi": 50,
			"name": "D3",
			"ticks": 21600,
			"time": 153.61411224166667,
			"velocity": 0.7559055118110236
		  },
		  {
			"duration": 1.2857130000000154,
			"durationTicks": 180,
			"midi": 38,
			"name": "D2",
			"ticks": 21600,
			"time": 153.61411224166667,
			"velocity": 0.7559055118110236
		  },
		  {
			"duration": 0.4285709999999767,
			"durationTicks": 60,
			"midi": 50,
			"name": "D3",
			"ticks": 21780,
			"time": 154.8998252416667,
			"velocity": 0.7559055118110236
		  },
		  {
			"duration": 1.2857130000000154,
			"durationTicks": 180,
			"midi": 50,
			"name": "D3",
			"ticks": 21840,
			"time": 155.32839624166667,
			"velocity": 0.7559055118110236
		  },
		  {
			"duration": 1.2857130000000154,
			"durationTicks": 180,
			"midi": 38,
			"name": "D2",
			"ticks": 21840,
			"time": 155.32839624166667,
			"velocity": 0.7559055118110236
		  },
		  {
			"duration": 0.42857100000000514,
			"durationTicks": 60,
			"midi": 50,
			"name": "D3",
			"ticks": 22020,
			"time": 156.61410924166668,
			"velocity": 0.7559055118110236
		  },
		  {
			"duration": 1.285712999999987,
			"durationTicks": 180,
			"midi": 43,
			"name": "G2",
			"ticks": 22080,
			"time": 157.0426802416667,
			"velocity": 0.7559055118110236
		  },
		  {
			"duration": 1.285712999999987,
			"durationTicks": 180,
			"midi": 31,
			"name": "G1",
			"ticks": 22080,
			"time": 157.0426802416667,
			"velocity": 0.7559055118110236
		  },
		  {
			"duration": 0.42857100000000514,
			"durationTicks": 60,
			"midi": 43,
			"name": "G2",
			"ticks": 22260,
			"time": 158.32839324166667,
			"velocity": 0.7559055118110236
		  },
		  {
			"duration": 1.2857130000000154,
			"durationTicks": 180,
			"midi": 43,
			"name": "G2",
			"ticks": 22320,
			"time": 158.75696424166668,
			"velocity": 0.7559055118110236
		  },
		  {
			"duration": 1.2857130000000154,
			"durationTicks": 180,
			"midi": 31,
			"name": "G1",
			"ticks": 22320,
			"time": 158.75696424166668,
			"velocity": 0.7559055118110236
		  },
		  {
			"duration": 0.4285709999999767,
			"durationTicks": 60,
			"midi": 43,
			"name": "G2",
			"ticks": 22500,
			"time": 160.0426772416667,
			"velocity": 0.7559055118110236
		  },
		  {
			"duration": 1.2857130000000154,
			"durationTicks": 180,
			"midi": 50,
			"name": "D3",
			"ticks": 22560,
			"time": 160.47124824166667,
			"velocity": 0.7559055118110236
		  },
		  {
			"duration": 1.2857130000000154,
			"durationTicks": 180,
			"midi": 38,
			"name": "D2",
			"ticks": 22560,
			"time": 160.47124824166667,
			"velocity": 0.7559055118110236
		  },
		  {
			"duration": 0.42857100000000514,
			"durationTicks": 60,
			"midi": 50,
			"name": "D3",
			"ticks": 22740,
			"time": 161.7569612416667,
			"velocity": 0.7559055118110236
		  },
		  {
			"duration": 1.285712999999987,
			"durationTicks": 180,
			"midi": 50,
			"name": "D3",
			"ticks": 22800,
			"time": 162.1855322416667,
			"velocity": 0.7559055118110236
		  },
		  {
			"duration": 1.285712999999987,
			"durationTicks": 180,
			"midi": 38,
			"name": "D2",
			"ticks": 22800,
			"time": 162.1855322416667,
			"velocity": 0.7559055118110236
		  },
		  {
			"duration": 0.42857100000000514,
			"durationTicks": 60,
			"midi": 50,
			"name": "D3",
			"ticks": 22980,
			"time": 163.47124524166668,
			"velocity": 0.7559055118110236
		  },
		  {
			"duration": 1.285712999999987,
			"durationTicks": 180,
			"midi": 43,
			"name": "G2",
			"ticks": 23040,
			"time": 163.89981624166668,
			"velocity": 0.7559055118110236
		  },
		  {
			"duration": 1.285712999999987,
			"durationTicks": 180,
			"midi": 31,
			"name": "G1",
			"ticks": 23040,
			"time": 163.89981624166668,
			"velocity": 0.7559055118110236
		  },
		  {
			"duration": 0.42857100000000514,
			"durationTicks": 60,
			"midi": 43,
			"name": "G2",
			"ticks": 23220,
			"time": 165.18552924166667,
			"velocity": 0.6850393700787402
		  },
		  {
			"duration": 1.2857130000000154,
			"durationTicks": 180,
			"midi": 45,
			"name": "A2",
			"ticks": 23280,
			"time": 165.61410024166668,
			"velocity": 0.6614173228346457
		  },
		  {
			"duration": 1.2857130000000154,
			"durationTicks": 180,
			"midi": 33,
			"name": "A1",
			"ticks": 23280,
			"time": 165.61410024166668,
			"velocity": 0.6614173228346457
		  },
		  {
			"duration": 0.42857100000000514,
			"durationTicks": 60,
			"midi": 45,
			"name": "A2",
			"ticks": 23460,
			"time": 166.8998132416667,
			"velocity": 0.5905511811023622
		  },
		  {
			"duration": 3.4285679999999843,
			"durationTicks": 480,
			"midi": 46,
			"name": "A#2",
			"ticks": 23520,
			"time": 167.3283842416667,
			"velocity": 0.5590551181102362
		  },
		  {
			"duration": 3.4285679999999843,
			"durationTicks": 480,
			"midi": 34,
			"name": "A#1",
			"ticks": 23520,
			"time": 167.3283842416667,
			"velocity": 0.5590551181102362
		  },
		  {
			"duration": 3.4285679999999843,
			"durationTicks": 480,
			"midi": 48,
			"name": "C3",
			"ticks": 24000,
			"time": 170.75695224166668,
			"velocity": 0.5590551181102362
		  },
		  {
			"duration": 3.4285679999999843,
			"durationTicks": 480,
			"midi": 36,
			"name": "C2",
			"ticks": 24000,
			"time": 170.75695224166668,
			"velocity": 0.5590551181102362
		  },
		  {
			"duration": 1.2857130000000154,
			"durationTicks": 180,
			"midi": 50,
			"name": "D3",
			"ticks": 24480,
			"time": 174.18552024166667,
			"velocity": 0.7559055118110236
		  },
		  {
			"duration": 1.2857130000000154,
			"durationTicks": 180,
			"midi": 38,
			"name": "D2",
			"ticks": 24480,
			"time": 174.18552024166667,
			"velocity": 0.7559055118110236
		  },
		  {
			"duration": 0.42857100000000514,
			"durationTicks": 60,
			"midi": 50,
			"name": "D3",
			"ticks": 24660,
			"time": 175.47123324166668,
			"velocity": 0.7559055118110236
		  },
		  {
			"duration": 1.285712999999987,
			"durationTicks": 180,
			"midi": 50,
			"name": "D3",
			"ticks": 24720,
			"time": 175.8998042416667,
			"velocity": 0.7559055118110236
		  },
		  {
			"duration": 1.285712999999987,
			"durationTicks": 180,
			"midi": 38,
			"name": "D2",
			"ticks": 24720,
			"time": 175.8998042416667,
			"velocity": 0.7559055118110236
		  },
		  {
			"duration": 0.42857100000000514,
			"durationTicks": 60,
			"midi": 50,
			"name": "D3",
			"ticks": 24900,
			"time": 177.18551724166667,
			"velocity": 0.7559055118110236
		  },
		  {
			"duration": 1.2857130000000154,
			"durationTicks": 180,
			"midi": 43,
			"name": "G2",
			"ticks": 24960,
			"time": 177.61408824166668,
			"velocity": 0.7559055118110236
		  },
		  {
			"duration": 1.2857130000000154,
			"durationTicks": 180,
			"midi": 31,
			"name": "G1",
			"ticks": 24960,
			"time": 177.61408824166668,
			"velocity": 0.7559055118110236
		  },
		  {
			"duration": 0.4285709999999767,
			"durationTicks": 60,
			"midi": 43,
			"name": "G2",
			"ticks": 25140,
			"time": 178.8998012416667,
			"velocity": 0.7559055118110236
		  },
		  {
			"duration": 1.2857130000000154,
			"durationTicks": 180,
			"midi": 43,
			"name": "G2",
			"ticks": 25200,
			"time": 179.32837224166667,
			"velocity": 0.7559055118110236
		  },
		  {
			"duration": 1.2857130000000154,
			"durationTicks": 180,
			"midi": 31,
			"name": "G1",
			"ticks": 25200,
			"time": 179.32837224166667,
			"velocity": 0.7559055118110236
		  },
		  {
			"duration": 0.42857100000000514,
			"durationTicks": 60,
			"midi": 43,
			"name": "G2",
			"ticks": 25380,
			"time": 180.6140852416667,
			"velocity": 0.7559055118110236
		  },
		  {
			"duration": 1.285712999999987,
			"durationTicks": 180,
			"midi": 50,
			"name": "D3",
			"ticks": 25440,
			"time": 181.0426562416667,
			"velocity": 0.7559055118110236
		  },
		  {
			"duration": 1.285712999999987,
			"durationTicks": 180,
			"midi": 38,
			"name": "D2",
			"ticks": 25440,
			"time": 181.0426562416667,
			"velocity": 0.7559055118110236
		  },
		  {
			"duration": 0.42857100000000514,
			"durationTicks": 60,
			"midi": 50,
			"name": "D3",
			"ticks": 25620,
			"time": 182.32836924166668,
			"velocity": 0.7559055118110236
		  },
		  {
			"duration": 1.2857130000000154,
			"durationTicks": 180,
			"midi": 50,
			"name": "D3",
			"ticks": 25680,
			"time": 182.75694024166668,
			"velocity": 0.7559055118110236
		  },
		  {
			"duration": 1.2857130000000154,
			"durationTicks": 180,
			"midi": 38,
			"name": "D2",
			"ticks": 25680,
			"time": 182.75694024166668,
			"velocity": 0.7559055118110236
		  },
		  {
			"duration": 0.4285709999999767,
			"durationTicks": 60,
			"midi": 50,
			"name": "D3",
			"ticks": 25860,
			"time": 184.0426532416667,
			"velocity": 0.7559055118110236
		  },
		  {
			"duration": 1.2857130000000154,
			"durationTicks": 180,
			"midi": 43,
			"name": "G2",
			"ticks": 25920,
			"time": 184.47122424166668,
			"velocity": 0.7559055118110236
		  },
		  {
			"duration": 1.2857130000000154,
			"durationTicks": 180,
			"midi": 31,
			"name": "G1",
			"ticks": 25920,
			"time": 184.47122424166668,
			"velocity": 0.7559055118110236
		  },
		  {
			"duration": 0.42857100000000514,
			"durationTicks": 60,
			"midi": 43,
			"name": "G2",
			"ticks": 26100,
			"time": 185.7569372416667,
			"velocity": 0.7559055118110236
		  },
		  {
			"duration": 1.285712999999987,
			"durationTicks": 180,
			"midi": 45,
			"name": "A2",
			"ticks": 26160,
			"time": 186.1855082416667,
			"velocity": 0.7559055118110236
		  },
		  {
			"duration": 1.285712999999987,
			"durationTicks": 180,
			"midi": 33,
			"name": "A1",
			"ticks": 26160,
			"time": 186.1855082416667,
			"velocity": 0.7559055118110236
		  },
		  {
			"duration": 0.42857100000000514,
			"durationTicks": 60,
			"midi": 45,
			"name": "A2",
			"ticks": 26340,
			"time": 187.47122124166668,
			"velocity": 0.7559055118110236
		  },
		  {
			"duration": 1.285712999999987,
			"durationTicks": 180,
			"midi": 50,
			"name": "D3",
			"ticks": 26400,
			"time": 187.8997922416667,
			"velocity": 0.7559055118110236
		  },
		  {
			"duration": 1.285712999999987,
			"durationTicks": 180,
			"midi": 38,
			"name": "D2",
			"ticks": 26400,
			"time": 187.8997922416667,
			"velocity": 0.7559055118110236
		  },
		  {
			"duration": 0.42857100000000514,
			"durationTicks": 60,
			"midi": 50,
			"name": "D3",
			"ticks": 26580,
			"time": 189.18550524166668,
			"velocity": 0.7559055118110236
		  },
		  {
			"duration": 1.285712999999987,
			"durationTicks": 180,
			"midi": 50,
			"name": "D3",
			"ticks": 26640,
			"time": 189.61407624166668,
			"velocity": 0.7559055118110236
		  },
		  {
			"duration": 1.285712999999987,
			"durationTicks": 180,
			"midi": 38,
			"name": "D2",
			"ticks": 26640,
			"time": 189.61407624166668,
			"velocity": 0.7559055118110236
		  },
		  {
			"duration": 0.42857100000003356,
			"durationTicks": 60,
			"midi": 50,
			"name": "D3",
			"ticks": 26820,
			"time": 190.89978924166667,
			"velocity": 0.7559055118110236
		  },
		  {
			"duration": 1.285712999999987,
			"durationTicks": 180,
			"midi": 43,
			"name": "G2",
			"ticks": 26880,
			"time": 191.3283602416667,
			"velocity": 0.7559055118110236
		  },
		  {
			"duration": 1.285712999999987,
			"durationTicks": 180,
			"midi": 31,
			"name": "G1",
			"ticks": 26880,
			"time": 191.3283602416667,
			"velocity": 0.7559055118110236
		  },
		  {
			"duration": 0.42857100000000514,
			"durationTicks": 60,
			"midi": 43,
			"name": "G2",
			"ticks": 27060,
			"time": 192.6140732416667,
			"velocity": 0.7559055118110236
		  },
		  {
			"duration": 1.285712999999987,
			"durationTicks": 180,
			"midi": 43,
			"name": "G2",
			"ticks": 27120,
			"time": 193.0426442416667,
			"velocity": 0.7559055118110236
		  },
		  {
			"duration": 1.285712999999987,
			"durationTicks": 180,
			"midi": 31,
			"name": "G1",
			"ticks": 27120,
			"time": 193.0426442416667,
			"velocity": 0.7559055118110236
		  },
		  {
			"duration": 0.42857100000000514,
			"durationTicks": 60,
			"midi": 43,
			"name": "G2",
			"ticks": 27300,
			"time": 194.32835724166668,
			"velocity": 0.7559055118110236
		  },
		  {
			"duration": 1.285712999999987,
			"durationTicks": 180,
			"midi": 50,
			"name": "D3",
			"ticks": 27360,
			"time": 194.75692824166669,
			"velocity": 0.7559055118110236
		  },
		  {
			"duration": 1.285712999999987,
			"durationTicks": 180,
			"midi": 38,
			"name": "D2",
			"ticks": 27360,
			"time": 194.75692824166669,
			"velocity": 0.7559055118110236
		  },
		  {
			"duration": 0.42857100000000514,
			"durationTicks": 60,
			"midi": 50,
			"name": "D3",
			"ticks": 27540,
			"time": 196.04264124166667,
			"velocity": 0.7559055118110236
		  },
		  {
			"duration": 1.2857130000000154,
			"durationTicks": 180,
			"midi": 50,
			"name": "D3",
			"ticks": 27600,
			"time": 196.47121224166668,
			"velocity": 0.7559055118110236
		  },
		  {
			"duration": 1.2857130000000154,
			"durationTicks": 180,
			"midi": 38,
			"name": "D2",
			"ticks": 27600,
			"time": 196.47121224166668,
			"velocity": 0.7559055118110236
		  },
		  {
			"duration": 0.4285709999999767,
			"durationTicks": 60,
			"midi": 50,
			"name": "D3",
			"ticks": 27780,
			"time": 197.7569252416667,
			"velocity": 0.7559055118110236
		  },
		  {
			"duration": 1.2857130000000154,
			"durationTicks": 180,
			"midi": 43,
			"name": "G2",
			"ticks": 27840,
			"time": 198.18549624166667,
			"velocity": 0.7559055118110236
		  },
		  {
			"duration": 1.2857130000000154,
			"durationTicks": 180,
			"midi": 31,
			"name": "G1",
			"ticks": 27840,
			"time": 198.18549624166667,
			"velocity": 0.7559055118110236
		  },
		  {
			"duration": 0.42857100000000514,
			"durationTicks": 60,
			"midi": 43,
			"name": "G2",
			"ticks": 28020,
			"time": 199.47120924166668,
			"velocity": 0.6850393700787402
		  },
		  {
			"duration": 1.285712999999987,
			"durationTicks": 180,
			"midi": 45,
			"name": "A2",
			"ticks": 28080,
			"time": 199.8997802416667,
			"velocity": 0.6614173228346457
		  },
		  {
			"duration": 1.285712999999987,
			"durationTicks": 180,
			"midi": 33,
			"name": "A1",
			"ticks": 28080,
			"time": 199.8997802416667,
			"velocity": 0.6614173228346457
		  },
		  {
			"duration": 0.42857100000000514,
			"durationTicks": 60,
			"midi": 45,
			"name": "A2",
			"ticks": 28260,
			"time": 201.18549324166668,
			"velocity": 0.5905511811023622
		  },
		  {
			"duration": 3.4285680000000127,
			"durationTicks": 480,
			"midi": 46,
			"name": "A#2",
			"ticks": 28320,
			"time": 201.61406424166668,
			"velocity": 0.5590551181102362
		  },
		  {
			"duration": 3.4285680000000127,
			"durationTicks": 480,
			"midi": 34,
			"name": "A#1",
			"ticks": 28320,
			"time": 201.61406424166668,
			"velocity": 0.5590551181102362
		  },
		  {
			"duration": 3.4285679999999843,
			"durationTicks": 480,
			"midi": 48,
			"name": "C3",
			"ticks": 28800,
			"time": 205.0426322416667,
			"velocity": 0.5590551181102362
		  },
		  {
			"duration": 3.4285679999999843,
			"durationTicks": 480,
			"midi": 36,
			"name": "C2",
			"ticks": 28800,
			"time": 205.0426322416667,
			"velocity": 0.5590551181102362
		  },
		  {
			"duration": 6.857136000000025,
			"durationTicks": 960,
			"midi": 38,
			"name": "D2",
			"ticks": 29280,
			"time": 208.47120024166668,
			"velocity": 0.5590551181102362
		  },
		  {
			"duration": 6.857136000000025,
			"durationTicks": 960,
			"midi": 45,
			"name": "A2",
			"ticks": 29280,
			"time": 208.47120024166668,
			"velocity": 0.5590551181102362
		  },
		  {
			"duration": 6.857136000000025,
			"durationTicks": 960,
			"midi": 54,
			"name": "F#3",
			"ticks": 29280,
			"time": 208.47120024166668,
			"velocity": 0.5590551181102362
		  }
		]
	  }
	]
  }