{
	"header": {
	  "keySignatures": [
		{
		  "key": "C",
		  "scale": "major",
		  "ticks": 0
		}
	  ],
	  "meta": [
		{
		  "text": "Trad.",
		  "ticks": 0,
		  "type": "text"
		}
	  ],
	  "name": "God Save the Queen",
	  "ppq": 960,
	  "tempos": [
		{
		  "bpm": 80,
		  "ticks": 0
		}
	  ],
	  "timeSignatures": [
		{
		  "ticks": 0,
		  "timeSignature": [
			3,
			4
		  ],
		  "measures": 0
		}
	  ]
	},
	"tracks": [
	  {
		"channel": 1,
		"controlChanges": {},
		"pitchBends": [],
		"instrument": {
		  "family": "piano",
		  "name": "acoustic grand piano",
		  "number": 0
		},
		"name": "Piano",
		"notes": [
		  {
			"duration": 2.25,
			"durationTicks": 2880,
			"midi": 48,
			"name": "C3",
			"ticks": 0,
			"time": 0,
			"velocity": 0.5984251968503937
		  },
		  {
			"duration": 2.25,
			"durationTicks": 2880,
			"midi": 43,
			"name": "G2",
			"ticks": 2880,
			"time": 2.25,
			"velocity": 0.6062992125984252
		  },
		  {
			"duration": 2.25,
			"durationTicks": 2880,
			"midi": 48,
			"name": "C3",
			"ticks": 5760,
			"time": 4.5,
			"velocity": 0.7007874015748031
		  },
		  {
			"duration": 1.5,
			"durationTicks": 1920,
			"midi": 43,
			"name": "G2",
			"ticks": 8640,
			"time": 6.75,
			"velocity": 0.6456692913385826
		  },
		  {
			"duration": 0.75,
			"durationTicks": 960,
			"midi": 45,
			"name": "A2",
			"ticks": 10560,
			"time": 8.25,
			"velocity": 0.7007874015748031
		  },
		  {
			"duration": 0.75,
			"durationTicks": 960,
			"midi": 43,
			"name": "G2",
			"ticks": 13440,
			"time": 10.5,
			"velocity": 0.5984251968503937
		  },
		  {
			"duration": 2.25,
			"durationTicks": 2880,
			"midi": 48,
			"name": "C3",
			"ticks": 14400,
			"time": 11.25,
			"velocity": 0.6771653543307087
		  },
		  {
			"duration": 2.25,
			"durationTicks": 2880,
			"midi": 48,
			"name": "C3",
			"ticks": 17280,
			"time": 13.5,
			"velocity": 0.7874015748031497
		  },
		  {
			"duration": 2.25,
			"durationTicks": 2880,
			"midi": 43,
			"name": "G2",
			"ticks": 23040,
			"time": 18,
			"velocity": 0.7086614173228346
		  },
		  {
			"duration": 2.25,
			"durationTicks": 2880,
			"midi": 48,
			"name": "C3",
			"ticks": 28800,
			"time": 22.5,
			"velocity": 0.8267716535433071
		  },
		  {
			"duration": 0.75,
			"durationTicks": 960,
			"midi": 43,
			"name": "G2",
			"ticks": 36480,
			"time": 28.5,
			"velocity": 0.7874015748031497
		  },
		  {
			"duration": 2.25,
			"durationTicks": 2880,
			"midi": 48,
			"name": "C3",
			"ticks": 37440,
			"time": 29.25,
			"velocity": 0.9763779527559056
		  }
		]
	  },
	  {
		"channel": 0,
		"controlChanges": {
		  "7": [
			{
			  "number": 7,
			  "ticks": 0,
			  "time": 0,
			  "value": 0.8267716535433071
			},
			{
			  "number": 7,
			  "ticks": 0,
			  "time": 0,
			  "value": 0.8267716535433071
			}
		  ],
		  "10": [
			{
			  "number": 10,
			  "ticks": 0,
			  "time": 0,
			  "value": 0.4015748031496063
			},
			{
			  "number": 10,
			  "ticks": 0,
			  "time": 0,
			  "value": 0.4015748031496063
			}
		  ],
		  "64": [
			{
			  "number": 64,
			  "ticks": 0,
			  "time": 0,
			  "value": 0
			},
			{
			  "number": 64,
			  "ticks": 0,
			  "time": 0,
			  "value": 0
			}
		  ],
		  "91": [
			{
			  "number": 91,
			  "ticks": 0,
			  "time": 0,
			  "value": 0.3779527559055118
			},
			{
			  "number": 91,
			  "ticks": 0,
			  "time": 0,
			  "value": 0.3779527559055118
			}
		  ],
		  "121": [
			{
			  "number": 121,
			  "ticks": 0,
			  "time": 0,
			  "value": 0
			},
			{
			  "number": 121,
			  "ticks": 0,
			  "time": 0,
			  "value": 0
			}
		  ]
		},
		"pitchBends": [],
		"instrument": {
		  "family": "piano",
		  "name": "acoustic grand piano",
		  "number": 0
		},
		"name": "",
		"notes": [
		  {
			"duration": 0.75,
			"durationTicks": 960,
			"midi": 60,
			"name": "C4",
			"ticks": 0,
			"time": 0,
			"velocity": 0.5826771653543307
		  },
		  {
			"duration": 0.7648437500000003,
			"durationTicks": 979,
			"midi": 60,
			"name": "C4",
			"ticks": 960,
			"time": 0.75,
			"velocity": 0.6141732283464567
		  },
		  {
			"duration": 0.7648437500000003,
			"durationTicks": 979,
			"midi": 62,
			"name": "D4",
			"ticks": 1920,
			"time": 1.5,
			"velocity": 0.7244094488188977
		  },
		  {
			"duration": 1.1453125000000002,
			"durationTicks": 1466,
			"midi": 59,
			"name": "B3",
			"ticks": 2880,
			"time": 2.25,
			"velocity": 0.6299212598425197
		  },
		  {
			"duration": 0.38125000000000053,
			"durationTicks": 488,
			"midi": 60,
			"name": "C4",
			"ticks": 4320,
			"time": 3.375,
			"velocity": 0.6850393700787402
		  },
		  {
			"duration": 0.7117187500000002,
			"durationTicks": 911,
			"midi": 62,
			"name": "D4",
			"ticks": 4800,
			"time": 3.75,
			"velocity": 0.7007874015748031
		  },
		  {
			"duration": 0.75,
			"durationTicks": 960,
			"midi": 64,
			"name": "E4",
			"ticks": 5760,
			"time": 4.5,
			"velocity": 0.7086614173228346
		  },
		  {
			"duration": 0.7648437499999998,
			"durationTicks": 979,
			"midi": 64,
			"name": "E4",
			"ticks": 6720,
			"time": 5.25,
			"velocity": 0.6850393700787402
		  },
		  {
			"duration": 0.7648437499999998,
			"durationTicks": 979,
			"midi": 65,
			"name": "F4",
			"ticks": 7680,
			"time": 6,
			"velocity": 0.7007874015748031
		  },
		  {
			"duration": 1.1453125000000002,
			"durationTicks": 1466,
			"midi": 64,
			"name": "E4",
			"ticks": 8640,
			"time": 6.75,
			"velocity": 0.6535433070866141
		  },
		  {
			"duration": 0.38124999999999964,
			"durationTicks": 488,
			"midi": 62,
			"name": "D4",
			"ticks": 10080,
			"time": 7.875,
			"velocity": 0.5826771653543307
		  },
		  {
			"duration": 0.7117187499999993,
			"durationTicks": 911,
			"midi": 60,
			"name": "C4",
			"ticks": 10560,
			"time": 8.25,
			"velocity": 0.5984251968503937
		  },
		  {
			"duration": 0.7648437500000007,
			"durationTicks": 979,
			"midi": 62,
			"name": "D4",
			"ticks": 11520,
			"time": 9,
			"velocity": 0.6850393700787402
		  },
		  {
			"duration": 0.7648437500000007,
			"durationTicks": 979,
			"midi": 60,
			"name": "C4",
			"ticks": 12480,
			"time": 9.75,
			"velocity": 0.6220472440944882
		  },
		  {
			"duration": 0.7648437500000007,
			"durationTicks": 979,
			"midi": 59,
			"name": "B3",
			"ticks": 13440,
			"time": 10.5,
			"velocity": 0.6456692913385826
		  },
		  {
			"duration": 0.7117187499999993,
			"durationTicks": 911,
			"midi": 60,
			"name": "C4",
			"ticks": 14400,
			"time": 11.25,
			"velocity": 0.7007874015748031
		  },
		  {
			"duration": 0.38124999999999964,
			"durationTicks": 488,
			"midi": 60,
			"name": "C4",
			"ticks": 15360,
			"time": 12,
			"velocity": 0.6692913385826772
		  },
		  {
			"duration": 0.38124999999999964,
			"durationTicks": 488,
			"midi": 62,
			"name": "D4",
			"ticks": 15840,
			"time": 12.375,
			"velocity": 0.7165354330708661
		  },
		  {
			"duration": 0.38124999999999964,
			"durationTicks": 488,
			"midi": 64,
			"name": "E4",
			"ticks": 16320,
			"time": 12.75,
			"velocity": 0.7401574803149606
		  },
		  {
			"duration": 0.3546875000000007,
			"durationTicks": 454,
			"midi": 65,
			"name": "F4",
			"ticks": 16800,
			"time": 13.125,
			"velocity": 0.7637795275590551
		  },
		  {
			"duration": 0.75,
			"durationTicks": 960,
			"midi": 67,
			"name": "G4",
			"ticks": 17280,
			"time": 13.5,
			"velocity": 0.8188976377952756
		  },
		  {
			"duration": 0.75,
			"durationTicks": 960,
			"midi": 67,
			"name": "G4",
			"ticks": 18240,
			"time": 14.25,
			"velocity": 0.7795275590551181
		  },
		  {
			"duration": 0.75,
			"durationTicks": 960,
			"midi": 67,
			"name": "G4",
			"ticks": 19264,
			"time": 15.05,
			"velocity": 0.7874015748031497
		  },
		  {
			"duration": 1.1453124999999993,
			"durationTicks": 1466,
			"midi": 67,
			"name": "G4",
			"ticks": 20160,
			"time": 15.75,
			"velocity": 0.7637795275590551
		  },
		  {
			"duration": 0.3812500000000014,
			"durationTicks": 488,
			"midi": 65,
			"name": "F4",
			"ticks": 21600,
			"time": 16.875,
			"velocity": 0.7165354330708661
		  },
		  {
			"duration": 0.7117187499999993,
			"durationTicks": 911,
			"midi": 64,
			"name": "E4",
			"ticks": 22080,
			"time": 17.25,
			"velocity": 0.7244094488188977
		  },
		  {
			"duration": 0.75,
			"durationTicks": 960,
			"midi": 65,
			"name": "F4",
			"ticks": 23040,
			"time": 18,
			"velocity": 0.8110236220472441
		  },
		  {
			"duration": 0.75,
			"durationTicks": 960,
			"midi": 65,
			"name": "F4",
			"ticks": 24000,
			"time": 18.75,
			"velocity": 0.7795275590551181
		  },
		  {
			"duration": 0.75,
			"durationTicks": 960,
			"midi": 65,
			"name": "F4",
			"ticks": 24960,
			"time": 19.5,
			"velocity": 0.7716535433070866
		  },
		  {
			"duration": 1.1453124999999993,
			"durationTicks": 1466,
			"midi": 65,
			"name": "F4",
			"ticks": 25920,
			"time": 20.25,
			"velocity": 0.7716535433070866
		  },
		  {
			"duration": 0.3812500000000014,
			"durationTicks": 488,
			"midi": 64,
			"name": "E4",
			"ticks": 27360,
			"time": 21.375,
			"velocity": 0.7559055118110236
		  },
		  {
			"duration": 0.7117187499999993,
			"durationTicks": 911,
			"midi": 62,
			"name": "D4",
			"ticks": 27840,
			"time": 21.75,
			"velocity": 0.7007874015748031
		  },
		  {
			"duration": 0.7648437500000007,
			"durationTicks": 979,
			"midi": 64,
			"name": "E4",
			"ticks": 28800,
			"time": 22.5,
			"velocity": 0.7637795275590551
		  },
		  {
			"duration": 0.3812500000000014,
			"durationTicks": 488,
			"midi": 65,
			"name": "F4",
			"ticks": 29760,
			"time": 23.25,
			"velocity": 0.7874015748031497
		  },
		  {
			"duration": 0.3812500000000014,
			"durationTicks": 488,
			"midi": 64,
			"name": "E4",
			"ticks": 30240,
			"time": 23.625,
			"velocity": 0.7401574803149606
		  },
		  {
			"duration": 0.3812500000000014,
			"durationTicks": 488,
			"midi": 62,
			"name": "D4",
			"ticks": 30720,
			"time": 24,
			"velocity": 0.7086614173228346
		  },
		  {
			"duration": 0.3812500000000014,
			"durationTicks": 488,
			"midi": 60,
			"name": "C4",
			"ticks": 31200,
			"time": 24.375,
			"velocity": 0.7007874015748031
		  },
		  {
			"duration": 1.1453124999999957,
			"durationTicks": 1466,
			"midi": 64,
			"name": "E4",
			"ticks": 31680,
			"time": 24.75,
			"velocity": 0.8267716535433071
		  },
		  {
			"duration": 0.3812500000000014,
			"durationTicks": 488,
			"midi": 65,
			"name": "F4",
			"ticks": 33120,
			"time": 25.875,
			"velocity": 0.8582677165354331
		  },
		  {
			"duration": 0.7117187499999957,
			"durationTicks": 911,
			"midi": 67,
			"name": "G4",
			"ticks": 33600,
			"time": 26.25,
			"velocity": 0.9212598425196851
		  },
		  {
			"duration": 0.3812500000000014,
			"durationTicks": 488,
			"midi": 69,
			"name": "A4",
			"ticks": 34560,
			"time": 27,
			"velocity": 1
		  },
		  {
			"duration": 0.3812500000000014,
			"durationTicks": 488,
			"midi": 65,
			"name": "F4",
			"ticks": 35040,
			"time": 27.375,
			"velocity": 0.8110236220472441
		  },
		  {
			"duration": 0.7648437500000043,
			"durationTicks": 979,
			"midi": 64,
			"name": "E4",
			"ticks": 35520,
			"time": 27.75,
			"velocity": 0.8267716535433071
		  },
		  {
			"duration": 0.7648437500000043,
			"durationTicks": 979,
			"midi": 62,
			"name": "D4",
			"ticks": 36480,
			"time": 28.5,
			"velocity": 0.8110236220472441
		  },
		  {
			"duration": 2.1359375000000043,
			"durationTicks": 2734,
			"midi": 60,
			"name": "C4",
			"ticks": 37440,
			"time": 29.25,
			"velocity": 0.8267716535433071
		  }
		]
	  }
	]
  }