{
	"header": {
	  "keySignatures": [
		{
		  "key": "C",
		  "scale": "major",
		  "ticks": 0
		}
	  ],
	  "meta": [
		{
		  "text": "Mozart",
		  "ticks": 0,
		  "type": "text"
		}
	  ],
	  "name": "Eine Kleine Nachtmusk (beginners)",
	  "ppq": 256,
	  "tempos": [
		{
		  "bpm": 100,
		  "ticks": 0
		}
	  ],
	  "timeSignatures": [
		{
		  "ticks": 0,
		  "timeSignature": [
			4,
			4
		  ],
		  "measures": 0
		}
	  ]
	},
	"tracks": [
	  {
		"channel": 0,
		"controlChanges": {
		  "7": [
			{
			  "number": 7,
			  "ticks": 0,
			  "time": 0,
			  "value": 0.7480314960629921
			},
			{
			  "number": 7,
			  "ticks": 0,
			  "time": 0,
			  "value": 0.7480314960629921
			}
		  ],
		  "10": [
			{
			  "number": 10,
			  "ticks": 0,
			  "time": 0,
			  "value": 0.5590551181102362
			},
			{
			  "number": 10,
			  "ticks": 0,
			  "time": 0,
			  "value": 0.5590551181102362
			}
		  ],
		  "64": [
			{
			  "number": 64,
			  "ticks": 0,
			  "time": 0,
			  "value": 0
			},
			{
			  "number": 64,
			  "ticks": 0,
			  "time": 0,
			  "value": 0
			}
		  ],
		  "91": [
			{
			  "number": 91,
			  "ticks": 0,
			  "time": 0,
			  "value": 0.4015748031496063
			},
			{
			  "number": 91,
			  "ticks": 0,
			  "time": 0,
			  "value": 0.4015748031496063
			}
		  ],
		  "121": [
			{
			  "number": 121,
			  "ticks": 0,
			  "time": 0,
			  "value": 0
			},
			{
			  "number": 121,
			  "ticks": 0,
			  "time": 0,
			  "value": 0
			}
		  ]
		},
		"pitchBends": [],
		"instrument": {
		  "family": "piano",
		  "name": "acoustic grand piano",
		  "number": 0
		},
		"name": "",
		"notes": [
		  {
			"duration": 1.7999999999999998,
			"durationTicks": 768,
			"midi": 60,
			"name": "C4",
			"ticks": 0,
			"time": 0,
			"velocity": 0.7165354330708661
		  },
		  {
			"duration": 0.6000000000000001,
			"durationTicks": 256,
			"midi": 55,
			"name": "G3",
			"ticks": 768,
			"time": 1.7999999999999998,
			"velocity": 0.6692913385826772
		  },
		  {
			"duration": 1.8000000000000003,
			"durationTicks": 768,
			"midi": 60,
			"name": "C4",
			"ticks": 1024,
			"time": 2.4,
			"velocity": 0.6692913385826772
		  },
		  {
			"duration": 0.5999999999999996,
			"durationTicks": 256,
			"midi": 55,
			"name": "G3",
			"ticks": 1792,
			"time": 4.2,
			"velocity": 0.6692913385826772
		  },
		  {
			"duration": 0.5999999999999996,
			"durationTicks": 256,
			"midi": 60,
			"name": "C4",
			"ticks": 2048,
			"time": 4.8,
			"velocity": 0.6929133858267716
		  },
		  {
			"duration": 0.6000000000000005,
			"durationTicks": 256,
			"midi": 55,
			"name": "G3",
			"ticks": 2304,
			"time": 5.3999999999999995,
			"velocity": 0.6850393700787402
		  },
		  {
			"duration": 0.5999999999999996,
			"durationTicks": 256,
			"midi": 60,
			"name": "C4",
			"ticks": 2560,
			"time": 6,
			"velocity": 0.7165354330708661
		  },
		  {
			"duration": 0.5999999999999996,
			"durationTicks": 256,
			"midi": 64,
			"name": "E4",
			"ticks": 2816,
			"time": 6.6,
			"velocity": 0.8346456692913385
		  },
		  {
			"duration": 2.4000000000000004,
			"durationTicks": 1024,
			"midi": 67,
			"name": "G4",
			"ticks": 3072,
			"time": 7.199999999999999,
			"velocity": 0.8346456692913385
		  },
		  {
			"duration": 1.8000000000000007,
			"durationTicks": 768,
			"midi": 65,
			"name": "F4",
			"ticks": 4096,
			"time": 9.6,
			"velocity": 0.6141732283464567
		  },
		  {
			"duration": 0.5999999999999996,
			"durationTicks": 256,
			"midi": 62,
			"name": "D4",
			"ticks": 4864,
			"time": 11.4,
			"velocity": 0.5748031496062992
		  },
		  {
			"duration": 1.799999999999999,
			"durationTicks": 768,
			"midi": 65,
			"name": "F4",
			"ticks": 5120,
			"time": 12,
			"velocity": 0.6692913385826772
		  },
		  {
			"duration": 0.5999999999999996,
			"durationTicks": 256,
			"midi": 62,
			"name": "D4",
			"ticks": 5888,
			"time": 13.799999999999999,
			"velocity": 0.5669291338582677
		  },
		  {
			"duration": 0.6000000000000014,
			"durationTicks": 256,
			"midi": 65,
			"name": "F4",
			"ticks": 6144,
			"time": 14.399999999999999,
			"velocity": 0.6614173228346457
		  },
		  {
			"duration": 0.5999999999999996,
			"durationTicks": 256,
			"midi": 62,
			"name": "D4",
			"ticks": 6400,
			"time": 15,
			"velocity": 0.6062992125984252
		  },
		  {
			"duration": 0.5999999999999996,
			"durationTicks": 256,
			"midi": 59,
			"name": "B3",
			"ticks": 6656,
			"time": 15.6,
			"velocity": 0.5275590551181102
		  },
		  {
			"duration": 0.6000000000000014,
			"durationTicks": 256,
			"midi": 62,
			"name": "D4",
			"ticks": 6912,
			"time": 16.2,
			"velocity": 0.5590551181102362
		  },
		  {
			"duration": 2.3999999999999986,
			"durationTicks": 1024,
			"midi": 55,
			"name": "G3",
			"ticks": 7168,
			"time": 16.8,
			"velocity": 0.5669291338582677
		  },
		  {
			"duration": 1.1999999999999993,
			"durationTicks": 512,
			"midi": 60,
			"name": "C4",
			"ticks": 8192,
			"time": 19.2,
			"velocity": 0.6771653543307087
		  },
		  {
			"duration": 1.1999999999999993,
			"durationTicks": 512,
			"midi": 60,
			"name": "C4",
			"ticks": 8704,
			"time": 20.4,
			"velocity": 0.7795275590551181
		  },
		  {
			"duration": 0.6000000000000014,
			"durationTicks": 256,
			"midi": 64,
			"name": "E4",
			"ticks": 9472,
			"time": 22.2,
			"velocity": 0.6929133858267716
		  },
		  {
			"duration": 0.5999999999999979,
			"durationTicks": 256,
			"midi": 62,
			"name": "D4",
			"ticks": 9728,
			"time": 22.8,
			"velocity": 0.6929133858267716
		  },
		  {
			"duration": 0.6000000000000014,
			"durationTicks": 256,
			"midi": 60,
			"name": "C4",
			"ticks": 9984,
			"time": 23.4,
			"velocity": 0.7244094488188977
		  },
		  {
			"duration": 0.5999999999999979,
			"durationTicks": 256,
			"midi": 60,
			"name": "C4",
			"ticks": 10240,
			"time": 24,
			"velocity": 0.8503937007874016
		  },
		  {
			"duration": 0.6000000000000014,
			"durationTicks": 256,
			"midi": 59,
			"name": "B3",
			"ticks": 10496,
			"time": 24.599999999999998,
			"velocity": 0.7559055118110236
		  },
		  {
			"duration": 1.1999999999999993,
			"durationTicks": 512,
			"midi": 59,
			"name": "B3",
			"ticks": 10752,
			"time": 25.2,
			"velocity": 0.7244094488188977
		  },
		  {
			"duration": 0.5999999999999979,
			"durationTicks": 256,
			"midi": 62,
			"name": "D4",
			"ticks": 11520,
			"time": 27,
			"velocity": 0.6614173228346457
		  },
		  {
			"duration": 0.6000000000000014,
			"durationTicks": 256,
			"midi": 65,
			"name": "F4",
			"ticks": 11776,
			"time": 27.599999999999998,
			"velocity": 0.8188976377952756
		  },
		  {
			"duration": 0.5999999999999979,
			"durationTicks": 256,
			"midi": 59,
			"name": "B3",
			"ticks": 12032,
			"time": 28.2,
			"velocity": 0.6850393700787402
		  },
		  {
			"duration": 0.6000000000000014,
			"durationTicks": 256,
			"midi": 62,
			"name": "D4",
			"ticks": 12288,
			"time": 28.799999999999997,
			"velocity": 0.7007874015748031
		  },
		  {
			"duration": 0.6000000000000014,
			"durationTicks": 256,
			"midi": 60,
			"name": "C4",
			"ticks": 12544,
			"time": 29.4,
			"velocity": 0.7322834645669292
		  },
		  {
			"duration": 1.1999999999999993,
			"durationTicks": 512,
			"midi": 60,
			"name": "C4",
			"ticks": 12800,
			"time": 30,
			"velocity": 0.7559055118110236
		  },
		  {
			"duration": 0.6000000000000014,
			"durationTicks": 256,
			"midi": 64,
			"name": "E4",
			"ticks": 13568,
			"time": 31.799999999999997,
			"velocity": 0.6850393700787402
		  },
		  {
			"duration": 0.6000000000000014,
			"durationTicks": 256,
			"midi": 62,
			"name": "D4",
			"ticks": 13824,
			"time": 32.4,
			"velocity": 0.7322834645669292
		  },
		  {
			"duration": 0.6000000000000014,
			"durationTicks": 256,
			"midi": 60,
			"name": "C4",
			"ticks": 14080,
			"time": 33,
			"velocity": 0.6771653543307087
		  },
		  {
			"duration": 0.5999999999999943,
			"durationTicks": 256,
			"midi": 60,
			"name": "C4",
			"ticks": 14336,
			"time": 33.6,
			"velocity": 0.7716535433070866
		  },
		  {
			"duration": 0.6000000000000014,
			"durationTicks": 256,
			"midi": 59,
			"name": "B3",
			"ticks": 14592,
			"time": 34.199999999999996,
			"velocity": 0.7637795275590551
		  },
		  {
			"duration": 1.2000000000000028,
			"durationTicks": 512,
			"midi": 59,
			"name": "B3",
			"ticks": 14848,
			"time": 34.8,
			"velocity": 0.7716535433070866
		  },
		  {
			"duration": 0.5999999999999943,
			"durationTicks": 256,
			"midi": 62,
			"name": "D4",
			"ticks": 15616,
			"time": 36.6,
			"velocity": 0.6771653543307087
		  },
		  {
			"duration": 0.6000000000000014,
			"durationTicks": 256,
			"midi": 65,
			"name": "F4",
			"ticks": 15872,
			"time": 37.199999999999996,
			"velocity": 0.8188976377952756
		  },
		  {
			"duration": 0.6000000000000014,
			"durationTicks": 256,
			"midi": 59,
			"name": "B3",
			"ticks": 16128,
			"time": 37.8,
			"velocity": 0.6929133858267716
		  },
		  {
			"duration": 0.6000000000000014,
			"durationTicks": 256,
			"midi": 60,
			"name": "C4",
			"ticks": 16384,
			"time": 38.4,
			"velocity": 0.7952755905511811
		  },
		  {
			"duration": 0.6000000000000014,
			"durationTicks": 256,
			"midi": 60,
			"name": "C4",
			"ticks": 16640,
			"time": 39,
			"velocity": 0.7480314960629921
		  },
		  {
			"duration": 0.29999999999999716,
			"durationTicks": 128,
			"midi": 60,
			"name": "C4",
			"ticks": 16896,
			"time": 39.6,
			"velocity": 0.7952755905511811
		  },
		  {
			"duration": 0.29999999999999716,
			"durationTicks": 128,
			"midi": 59,
			"name": "B3",
			"ticks": 17024,
			"time": 39.9,
			"velocity": 0.7165354330708661
		  },
		  {
			"duration": 0.30000000000000426,
			"durationTicks": 128,
			"midi": 57,
			"name": "A3",
			"ticks": 17152,
			"time": 40.199999999999996,
			"velocity": 0.7086614173228346
		  },
		  {
			"duration": 0.29999999999999716,
			"durationTicks": 128,
			"midi": 59,
			"name": "B3",
			"ticks": 17280,
			"time": 40.5,
			"velocity": 0.8031496062992126
		  },
		  {
			"duration": 0.6000000000000014,
			"durationTicks": 256,
			"midi": 60,
			"name": "C4",
			"ticks": 17408,
			"time": 40.8,
			"velocity": 0.7952755905511811
		  },
		  {
			"duration": 0.6000000000000014,
			"durationTicks": 256,
			"midi": 60,
			"name": "C4",
			"ticks": 17664,
			"time": 41.4,
			"velocity": 0.7401574803149606
		  },
		  {
			"duration": 0.29999999999999716,
			"durationTicks": 128,
			"midi": 64,
			"name": "E4",
			"ticks": 17920,
			"time": 42,
			"velocity": 0.6929133858267716
		  },
		  {
			"duration": 0.30000000000000426,
			"durationTicks": 128,
			"midi": 62,
			"name": "D4",
			"ticks": 18048,
			"time": 42.3,
			"velocity": 0.6929133858267716
		  },
		  {
			"duration": 0.29999999999999716,
			"durationTicks": 128,
			"midi": 60,
			"name": "C4",
			"ticks": 18176,
			"time": 42.6,
			"velocity": 0.7086614173228346
		  },
		  {
			"duration": 0.29999999999999716,
			"durationTicks": 128,
			"midi": 62,
			"name": "D4",
			"ticks": 18304,
			"time": 42.9,
			"velocity": 0.7952755905511811
		  },
		  {
			"duration": 0.6000000000000014,
			"durationTicks": 256,
			"midi": 64,
			"name": "E4",
			"ticks": 18432,
			"time": 43.199999999999996,
			"velocity": 0.8031496062992126
		  },
		  {
			"duration": 0.6000000000000014,
			"durationTicks": 256,
			"midi": 64,
			"name": "E4",
			"ticks": 18688,
			"time": 43.8,
			"velocity": 0.7795275590551181
		  },
		  {
			"duration": 0.29999999999999716,
			"durationTicks": 128,
			"midi": 67,
			"name": "G4",
			"ticks": 18944,
			"time": 44.4,
			"velocity": 0.8188976377952756
		  },
		  {
			"duration": 0.30000000000000426,
			"durationTicks": 128,
			"midi": 65,
			"name": "F4",
			"ticks": 19072,
			"time": 44.699999999999996,
			"velocity": 0.7244094488188977
		  },
		  {
			"duration": 0.29999999999999716,
			"durationTicks": 128,
			"midi": 64,
			"name": "E4",
			"ticks": 19200,
			"time": 45,
			"velocity": 0.7165354330708661
		  },
		  {
			"duration": 0.30000000000000426,
			"durationTicks": 128,
			"midi": 65,
			"name": "F4",
			"ticks": 19328,
			"time": 45.3,
			"velocity": 0.7716535433070866
		  },
		  {
			"duration": 2.3999999999999986,
			"durationTicks": 1024,
			"midi": 67,
			"name": "G4",
			"ticks": 19456,
			"time": 45.6,
			"velocity": 0.8346456692913385
		  },
		  {
			"duration": 2.3999999999999986,
			"durationTicks": 1024,
			"midi": 67,
			"name": "G4",
			"ticks": 20480,
			"time": 48,
			"velocity": 0.4015748031496063
		  },
		  {
			"duration": 2.3999999999999986,
			"durationTicks": 1024,
			"midi": 69,
			"name": "A4",
			"ticks": 21504,
			"time": 50.4,
			"velocity": 0.3700787401574803
		  },
		  {
			"duration": 0.6000000000000014,
			"durationTicks": 256,
			"midi": 67,
			"name": "G4",
			"ticks": 22528,
			"time": 52.8,
			"velocity": 0.3700787401574803
		  },
		  {
			"duration": 0.6000000000000014,
			"durationTicks": 256,
			"midi": 65,
			"name": "F4",
			"ticks": 22784,
			"time": 53.4,
			"velocity": 0.3464566929133858
		  },
		  {
			"duration": 0.6000000000000014,
			"durationTicks": 256,
			"midi": 65,
			"name": "F4",
			"ticks": 23040,
			"time": 54,
			"velocity": 0.4094488188976378
		  },
		  {
			"duration": 0.5999999999999943,
			"durationTicks": 256,
			"midi": 65,
			"name": "F4",
			"ticks": 23296,
			"time": 54.6,
			"velocity": 0.41732283464566927
		  },
		  {
			"duration": 0.6000000000000014,
			"durationTicks": 256,
			"midi": 65,
			"name": "F4",
			"ticks": 23552,
			"time": 55.199999999999996,
			"velocity": 0.3937007874015748
		  },
		  {
			"duration": 0.6000000000000014,
			"durationTicks": 256,
			"midi": 64,
			"name": "E4",
			"ticks": 23808,
			"time": 55.8,
			"velocity": 0.4015748031496063
		  },
		  {
			"duration": 0.6000000000000014,
			"durationTicks": 256,
			"midi": 64,
			"name": "E4",
			"ticks": 24064,
			"time": 56.4,
			"velocity": 0.4566929133858268
		  },
		  {
			"duration": 0.5999999999999943,
			"durationTicks": 256,
			"midi": 64,
			"name": "E4",
			"ticks": 24320,
			"time": 57,
			"velocity": 0.4330708661417323
		  },
		  {
			"duration": 0.6000000000000014,
			"durationTicks": 256,
			"midi": 64,
			"name": "E4",
			"ticks": 24576,
			"time": 57.599999999999994,
			"velocity": 0.41732283464566927
		  },
		  {
			"duration": 0.6000000000000014,
			"durationTicks": 256,
			"midi": 62,
			"name": "D4",
			"ticks": 24832,
			"time": 58.199999999999996,
			"velocity": 0.36220472440944884
		  },
		  {
			"duration": 0.6000000000000014,
			"durationTicks": 256,
			"midi": 62,
			"name": "D4",
			"ticks": 25088,
			"time": 58.8,
			"velocity": 0.3937007874015748
		  },
		  {
			"duration": 0.6000000000000014,
			"durationTicks": 256,
			"midi": 62,
			"name": "D4",
			"ticks": 25344,
			"time": 59.4,
			"velocity": 0.3937007874015748
		  },
		  {
			"duration": 0.5999999999999943,
			"durationTicks": 256,
			"midi": 60,
			"name": "C4",
			"ticks": 25600,
			"time": 60,
			"velocity": 0.4645669291338583
		  },
		  {
			"duration": 0.6000000000000014,
			"durationTicks": 256,
			"midi": 59,
			"name": "B3",
			"ticks": 25856,
			"time": 60.599999999999994,
			"velocity": 0.4330708661417323
		  },
		  {
			"duration": 0.6000000000000014,
			"durationTicks": 256,
			"midi": 57,
			"name": "A3",
			"ticks": 26112,
			"time": 61.199999999999996,
			"velocity": 0.4094488188976378
		  },
		  {
			"duration": 0.6000000000000014,
			"durationTicks": 256,
			"midi": 59,
			"name": "B3",
			"ticks": 26368,
			"time": 61.8,
			"velocity": 0.4251968503937008
		  },
		  {
			"duration": 1.1999999999999957,
			"durationTicks": 512,
			"midi": 60,
			"name": "C4",
			"ticks": 26624,
			"time": 62.4,
			"velocity": 0.968503937007874
		  },
		  {
			"duration": 1.2000000000000028,
			"durationTicks": 512,
			"midi": 62,
			"name": "D4",
			"ticks": 27136,
			"time": 63.599999999999994,
			"velocity": 0.8188976377952756
		  },
		  {
			"duration": 2.4000000000000057,
			"durationTicks": 1024,
			"midi": 64,
			"name": "E4",
			"ticks": 27648,
			"time": 64.8,
			"velocity": 0.937007874015748
		  },
		  {
			"duration": 2.3999999999999915,
			"durationTicks": 1024,
			"midi": 67,
			"name": "G4",
			"ticks": 28672,
			"time": 67.2,
			"velocity": 0.4094488188976378
		  },
		  {
			"duration": 2.4000000000000057,
			"durationTicks": 1024,
			"midi": 69,
			"name": "A4",
			"ticks": 29696,
			"time": 69.6,
			"velocity": 0.4330708661417323
		  },
		  {
			"duration": 0.5999999999999943,
			"durationTicks": 256,
			"midi": 67,
			"name": "G4",
			"ticks": 30720,
			"time": 72,
			"velocity": 0.36220472440944884
		  },
		  {
			"duration": 0.6000000000000085,
			"durationTicks": 256,
			"midi": 65,
			"name": "F4",
			"ticks": 30976,
			"time": 72.6,
			"velocity": 0.3937007874015748
		  },
		  {
			"duration": 0.5999999999999943,
			"durationTicks": 256,
			"midi": 65,
			"name": "F4",
			"ticks": 31232,
			"time": 73.2,
			"velocity": 0.41732283464566927
		  },
		  {
			"duration": 0.5999999999999943,
			"durationTicks": 256,
			"midi": 65,
			"name": "F4",
			"ticks": 31488,
			"time": 73.8,
			"velocity": 0.4251968503937008
		  },
		  {
			"duration": 0.6000000000000085,
			"durationTicks": 256,
			"midi": 65,
			"name": "F4",
			"ticks": 31744,
			"time": 74.39999999999999,
			"velocity": 0.3858267716535433
		  },
		  {
			"duration": 0.5999999999999943,
			"durationTicks": 256,
			"midi": 64,
			"name": "E4",
			"ticks": 32000,
			"time": 75,
			"velocity": 0.41732283464566927
		  },
		  {
			"duration": 0.6000000000000085,
			"durationTicks": 256,
			"midi": 64,
			"name": "E4",
			"ticks": 32256,
			"time": 75.6,
			"velocity": 0.4330708661417323
		  },
		  {
			"duration": 0.5999999999999943,
			"durationTicks": 256,
			"midi": 64,
			"name": "E4",
			"ticks": 32512,
			"time": 76.2,
			"velocity": 0.4251968503937008
		  },
		  {
			"duration": 0.5999999999999943,
			"durationTicks": 256,
			"midi": 64,
			"name": "E4",
			"ticks": 32768,
			"time": 76.8,
			"velocity": 0.4094488188976378
		  },
		  {
			"duration": 0.6000000000000085,
			"durationTicks": 256,
			"midi": 62,
			"name": "D4",
			"ticks": 33024,
			"time": 77.39999999999999,
			"velocity": 0.3858267716535433
		  },
		  {
			"duration": 0.5999999999999943,
			"durationTicks": 256,
			"midi": 62,
			"name": "D4",
			"ticks": 33280,
			"time": 78,
			"velocity": 0.41732283464566927
		  },
		  {
			"duration": 0.6000000000000085,
			"durationTicks": 256,
			"midi": 62,
			"name": "D4",
			"ticks": 33536,
			"time": 78.6,
			"velocity": 0.41732283464566927
		  },
		  {
			"duration": 0.5999999999999943,
			"durationTicks": 256,
			"midi": 60,
			"name": "C4",
			"ticks": 33792,
			"time": 79.2,
			"velocity": 0.5039370078740157
		  },
		  {
			"duration": 0.5999999999999943,
			"durationTicks": 256,
			"midi": 59,
			"name": "B3",
			"ticks": 34048,
			"time": 79.8,
			"velocity": 0.41732283464566927
		  },
		  {
			"duration": 0.6000000000000085,
			"durationTicks": 256,
			"midi": 57,
			"name": "A3",
			"ticks": 34304,
			"time": 80.39999999999999,
			"velocity": 0.4015748031496063
		  },
		  {
			"duration": 0.5999999999999943,
			"durationTicks": 256,
			"midi": 59,
			"name": "B3",
			"ticks": 34560,
			"time": 81,
			"velocity": 0.4015748031496063
		  },
		  {
			"duration": 1.2000000000000028,
			"durationTicks": 512,
			"midi": 60,
			"name": "C4",
			"ticks": 34816,
			"time": 81.6,
			"velocity": 0.5590551181102362
		  },
		  {
			"duration": 1.2000000000000028,
			"durationTicks": 512,
			"midi": 64,
			"name": "E4",
			"ticks": 35328,
			"time": 82.8,
			"velocity": 0.4409448818897638
		  },
		  {
			"duration": 1.2000000000000028,
			"durationTicks": 512,
			"midi": 60,
			"name": "C4",
			"ticks": 35840,
			"time": 84,
			"velocity": 0.6141732283464567
		  }
		]
	  },
	  {
		"channel": 1,
		"controlChanges": {},
		"pitchBends": [],
		"instrument": {
		  "family": "piano",
		  "name": "acoustic grand piano",
		  "number": 0
		},
		"name": "",
		"notes": [
		  {
			"duration": 2.3999999999999986,
			"durationTicks": 1024,
			"midi": 55,
			"name": "G3",
			"ticks": 20480,
			"time": 48,
			"velocity": 0.3464566929133858
		  },
		  {
			"duration": 2.3999999999999986,
			"durationTicks": 1024,
			"midi": 57,
			"name": "A3",
			"ticks": 21504,
			"time": 50.4,
			"velocity": 0.36220472440944884
		  },
		  {
			"duration": 2.3999999999999986,
			"durationTicks": 1024,
			"midi": 59,
			"name": "B3",
			"ticks": 22528,
			"time": 52.8,
			"velocity": 0.3937007874015748
		  },
		  {
			"duration": 2.3999999999999986,
			"durationTicks": 1024,
			"midi": 60,
			"name": "C4",
			"ticks": 23552,
			"time": 55.199999999999996,
			"velocity": 0.4015748031496063
		  },
		  {
			"duration": 2.4000000000000057,
			"durationTicks": 1024,
			"midi": 53,
			"name": "F3",
			"ticks": 24576,
			"time": 57.599999999999994,
			"velocity": 0.41732283464566927
		  },
		  {
			"duration": 1.2000000000000028,
			"durationTicks": 512,
			"midi": 55,
			"name": "G3",
			"ticks": 27136,
			"time": 63.599999999999994,
			"velocity": 0.8740157480314961
		  },
		  {
			"duration": 2.4000000000000057,
			"durationTicks": 1024,
			"midi": 60,
			"name": "C4",
			"ticks": 27648,
			"time": 64.8,
			"velocity": 1
		  },
		  {
			"duration": 2.3999999999999915,
			"durationTicks": 1024,
			"midi": 55,
			"name": "G3",
			"ticks": 28672,
			"time": 67.2,
			"velocity": 0.3779527559055118
		  },
		  {
			"duration": 2.4000000000000057,
			"durationTicks": 1024,
			"midi": 57,
			"name": "A3",
			"ticks": 29696,
			"time": 69.6,
			"velocity": 0.3700787401574803
		  },
		  {
			"duration": 2.3999999999999915,
			"durationTicks": 1024,
			"midi": 59,
			"name": "B3",
			"ticks": 30720,
			"time": 72,
			"velocity": 0.3779527559055118
		  },
		  {
			"duration": 2.4000000000000057,
			"durationTicks": 1024,
			"midi": 60,
			"name": "C4",
			"ticks": 31744,
			"time": 74.39999999999999,
			"velocity": 0.44881889763779526
		  },
		  {
			"duration": 2.4000000000000057,
			"durationTicks": 1024,
			"midi": 53,
			"name": "F3",
			"ticks": 32768,
			"time": 76.8,
			"velocity": 0.3700787401574803
		  },
		  {
			"duration": 1.2000000000000028,
			"durationTicks": 512,
			"midi": 55,
			"name": "G3",
			"ticks": 35328,
			"time": 82.8,
			"velocity": 0.48031496062992124
		  }
		]
	  }
	]
  }